<?xml version="1.0" encoding="utf-8"?>
<!-- Generator: Adobe Illustrator 24.2.3, SVG Export Plug-In . SVG Version: 6.00 Build 0)  -->
<svg version="1.1" id="Layer_1" xmlns="http://www.w3.org/2000/svg" xmlns:xlink="http://www.w3.org/1999/xlink" x="0px" y="0px"
	 viewBox="0 0 40 40" style="enable-background:new 0 0 40 40;" xml:space="preserve">
<style type="text/css">
	.st0{fill:#FFFFFF;}
	.st1{fill:#C32E29;}
	.st2{fill:#FAEBC8;}
	.st3{fill:url(#SVGID_1_);}
	.st4{fill:#C32D25;}
</style>
<g>
	<g>
		<g>
			<g>
				<path class="st0" d="M37.9,25c0.2-1.1,0.3-2.2,0.3-3.4c0-10-8.2-18.2-18.2-18.2S1.8,11.6,1.8,21.6c0,1.4,0.2,2.9,0.5,4.3
					c-0.3,0.5-0.5,1-0.5,1.6c0,0.9,0.4,2,2.4,2.8c0.7,0.3,1.6,0.5,2.7,0.7c1.4,0.2,3.3,0.3,5.8,0.3c0.7,0,1.5,0,2.3-0.1
					c-0.4,1.3-0.8,2.4-1.1,3.1c-0.1,0.3-0.2,0.6-0.2,0.9c0,0.7,0.4,1,0.9,1c0.7,0,1-0.7,1.2-1.1c0.4-0.9,0.9-2,1.5-3.5
					c0.1-0.3,0.2-0.6,0.3-0.8c0.5-0.1,1-0.2,1.5-0.3c1.1-0.2,2-0.5,2.8-0.8c0.1,0,0.2,0.1,0.3,0.1c0.8,0.3,1.8,0.5,2.8,0.5
					c0,0,0.1,0,0.1,0c0,0,0.1,0,0.1,0c1.6,0,3.2-0.3,4.7-0.9c0.2-0.1,0.4-0.2,0.6-0.3c0.3,0.6,1,1.2,2.3,1.2c0,0,0,0,0.1,0
					s0,0,0.1,0c0.7,0,1.5-0.1,2.2-0.3c0.4-0.1,0.7-0.2,1-0.3c0.5-0.2,0.9-0.5,1.3-0.8c0.5-0.5,0.8-1.3,0.8-2.3c0-0.5-0.1-1-0.3-1.4
					C37.9,25.1,37.9,25.1,37.9,25z"/>
				<path class="st1" d="M14.7,36.4c-0.6,0-1.2-0.4-1.2-1.3c0-0.3,0.1-0.6,0.2-1c0.3-0.7,0.6-1.5,0.9-2.7c-0.7,0.1-1.3,0.1-1.9,0.1
					c-2.5,0-4.5-0.1-5.9-0.3c-1.1-0.2-2.1-0.4-2.8-0.7c-2.1-0.8-2.6-2.1-2.6-3.1c0-0.6,0.2-1.1,0.5-1.6c-0.3-1.4-0.5-2.8-0.5-4.2
					C1.5,11.5,9.8,3.2,20,3.2s18.5,8.3,18.5,18.5c0,1.1-0.1,2.3-0.3,3.4l0,0.1c0.2,0.4,0.3,1,0.3,1.5c0,1.1-0.3,1.9-0.9,2.5
					c-0.4,0.4-0.8,0.7-1.3,0.9c-0.3,0.1-0.7,0.3-1,0.4c-0.8,0.2-1.5,0.3-2.3,0.3h-0.1h0c-1.3,0-2.1-0.5-2.4-1.1
					c-0.1,0.1-0.3,0.1-0.4,0.2c-1.5,0.6-3.1,0.9-4.8,0.9c0,0-0.1,0-0.1,0c0,0,0,0-0.1,0c-1.1,0-2.1-0.2-2.9-0.5
					c-0.1,0-0.1,0-0.2-0.1c-0.8,0.3-1.6,0.5-2.7,0.8c-0.5,0.1-0.9,0.2-1.4,0.3c-0.1,0.2-0.2,0.4-0.3,0.7c-0.6,1.5-1.1,2.6-1.5,3.5
					C16,35.6,15.6,36.4,14.7,36.4z M15.5,30.9l-0.1,0.4c-0.4,1.3-0.8,2.4-1.1,3.1c-0.1,0.3-0.2,0.5-0.2,0.8c0,0.5,0.3,0.7,0.6,0.7
					c0.5,0,0.8-0.6,1-0.9c0.4-0.9,0.9-2,1.5-3.4c0.1-0.3,0.2-0.5,0.3-0.8l0.1-0.1l0.2,0c0.5-0.1,1-0.2,1.5-0.3
					c1.1-0.2,1.9-0.5,2.7-0.8l0.1,0l0.1,0.1c0.1,0,0.2,0.1,0.2,0.1C23.1,29.9,24,30,25,30h0.1h0.1c1.6,0,3.1-0.3,4.6-0.9
					c0.2-0.1,0.4-0.2,0.6-0.3l0.2-0.1l0.1,0.2c0.4,0.7,1.1,1,2.1,1h0.1h0c0.8,0,1.5-0.1,2.2-0.3c0.3-0.1,0.7-0.2,0.9-0.3
					c0.5-0.2,0.9-0.5,1.2-0.8c0.5-0.5,0.7-1.2,0.7-2.1c0-0.5-0.1-0.9-0.2-1.3L37.6,25l0-0.1c0.2-1.1,0.3-2.2,0.3-3.3
					c0-9.9-8-17.9-17.9-17.9s-17.9,8.1-17.9,18c0,1.4,0.2,2.8,0.5,4.2l0,0.1l-0.1,0.1c-0.3,0.4-0.5,0.9-0.5,1.4c0,1.1,0.8,2,2.2,2.6
					C5,30.4,5.9,30.6,7,30.7c1.3,0.2,3.3,0.3,5.8,0.3c0.7,0,1.5,0,2.3-0.1L15.5,30.9z"/>
			</g>
			<path class="st2" d="M37.1,25.1c0.2-1.1,0.4-2.3,0.4-3.5C37.5,12,29.6,4.2,20,4.2C10.4,4.2,2.5,12,2.5,21.6c0,1.5,0.2,3,0.6,4.5
				c-0.4,0.4-0.6,0.9-0.6,1.4c0,0.9,0.6,1.6,1.9,2.1C5.2,29.9,6,30.1,7,30.3c1.3,0.2,3.2,0.3,5.7,0.3c1,0,2.2-0.1,3.4-0.3
				c-0.1,0.3-0.2,0.6-0.3,0.9c-0.5,1.5-0.9,2.6-1.2,3.4c-0.1,0.2-0.1,0.4-0.1,0.6c0,0.1,0,0.2,0.1,0.2c0.1,0,0.3-0.2,0.5-0.7
				c0.4-0.8,0.9-2,1.5-3.4c0.2-0.4,0.3-0.8,0.5-1.2c0.6-0.1,1.2-0.2,1.9-0.4c1.2-0.3,2.2-0.6,3-0.9c0.1,0.1,0.3,0.2,0.5,0.3
				c0.7,0.3,1.6,0.5,2.5,0.5c0,0,0.1,0,0.1,0c0,0,0.1,0,0.1,0c1.5,0,3-0.3,4.4-0.8c0.6-0.2,1-0.4,1.4-0.6c0,0.1,0,0.1,0,0.2
				c0.1,0.9,0.7,1.3,1.8,1.3c0,0,0,0,0.1,0s0,0,0.1,0c0.7,0,1.3-0.1,2-0.3c0.3-0.1,0.6-0.2,0.9-0.3c0.4-0.2,0.8-0.4,1-0.7
				c0.4-0.4,0.6-1,0.6-1.7c0-0.4-0.1-0.8-0.2-1.1C37.2,25.3,37.2,25.2,37.1,25.1z"/>
			
				<linearGradient id="SVGID_1_" gradientUnits="userSpaceOnUse" x1="11.6084" y1="38.2708" x2="25.1509" y2="6.0885" gradientTransform="matrix(1 0 0 -1 0 40)">
				<stop  offset="0" style="stop-color:#DE0024"/>
				<stop  offset="0.1081" style="stop-color:#DF0825"/>
				<stop  offset="0.2742" style="stop-color:#E11D27"/>
				<stop  offset="0.4776" style="stop-color:#E5402B"/>
				<stop  offset="0.7104" style="stop-color:#EB7130"/>
				<stop  offset="0.965" style="stop-color:#F2AF36"/>
				<stop  offset="1" style="stop-color:#F3B837"/>
			</linearGradient>
			<path class="st3" d="M37.5,21.6c0,1.2-0.1,2.4-0.4,3.5c-0.1,0.7-0.3,1.4-0.5,2c-0.2,0.6-0.5,1.2-0.7,1.8
				c-0.3,0.1-0.5,0.2-0.9,0.3c-0.7,0.2-1.3,0.3-2,0.3c0,0,0,0-0.1,0s0,0-0.1,0c-1.1,0-1.7-0.4-1.8-1.3c0-0.1,0-0.1,0-0.2
				c-0.4,0.2-0.8,0.4-1.4,0.6c-1.4,0.6-2.9,0.8-4.4,0.8c0,0-0.1,0-0.1,0c0,0-0.1,0-0.1,0c-1,0-1.8-0.2-2.5-0.5
				c-0.2-0.1-0.4-0.2-0.5-0.3c-0.8,0.3-1.8,0.6-3,0.9c-0.7,0.2-1.3,0.3-1.9,0.4c-0.1,0.4-0.3,0.8-0.5,1.2c-0.6,1.4-1,2.6-1.5,3.4
				c-0.2,0.4-0.4,0.7-0.5,0.7c-0.1,0-0.1-0.1-0.1-0.2c0-0.2,0-0.4,0.1-0.6c0.3-0.8,0.7-1.9,1.2-3.4c0.1-0.3,0.2-0.6,0.3-0.9
				c-1.2,0.2-2.3,0.3-3.4,0.3c-2.5,0-4.4-0.1-5.7-0.3c-1-0.2-1.9-0.4-2.6-0.6c-0.6-1.1-1-2.3-1.4-3.5c-0.4-1.4-0.6-2.9-0.6-4.5
				C2.5,12,10.3,4.2,20,4.2C29.6,4.2,37.5,12,37.5,21.6z"/>
		</g>
		<g>
			<path class="st0" d="M21.7,22.5c0.8,0,1.6-0.1,2.2-0.4c0.4-0.2,0.7-0.5,0.7-1c0-0.7-0.4-1.1-1.1-1.1c-0.2,0-0.3,0-0.5,0.1
				c-0.7,0.3-1.2,0.4-1.5,0.5c-0.3,0.1-1.3,0.2-1.3,1C20.2,22,20.4,22.5,21.7,22.5z"/>
			<path class="st0" d="M35,23.1c0.4,0,0.7-0.2,0.9-0.5l0.3-0.5c0.1-0.2,0.2-0.4,0.2-0.6c0-0.3-0.1-0.6-0.4-0.8
				c-0.2-0.2-0.5-0.3-0.8-0.3c-0.4,0-0.7,0.2-0.9,0.5L34,21.4c-0.1,0.2-0.2,0.4-0.2,0.6c0,0.3,0.1,0.6,0.3,0.8
				C34.4,23,34.7,23.1,35,23.1z"/>
			<path class="st0" d="M37.7,25.3c0-0.1-0.1-0.2-0.2-0.4c-0.5-0.9-1.1-1.1-1.6-1.1c-0.6,0-1.1,0.2-1.5,0.7
				c-0.4,0.4-0.6,0.9-0.6,1.4c0,0.9,0.6,1.4,1.5,1.4c0,0,0,0,0.1,0c-0.2,0.1-0.4,0.2-0.8,0.3c-0.6,0.2-1.2,0.3-1.8,0.3
				c0,0,0,0-0.1,0s0,0-0.1,0c-0.1,0-0.1,0-0.2,0c-0.3-3-0.6-5.4-0.7-7.3c-0.1-0.6-0.5-1-1.1-1c-0.7,0-1.1,0.4-1.1,1.1v0.1v0
				c0.2,2.6,0.4,4.5,0.5,5.8c-0.2,0.1-0.6,0.3-1.3,0.6c-1.2,0.5-2.5,0.7-3.8,0.7c0,0-0.1,0-0.1,0c0,0-0.1,0-0.1,0
				c-0.1,0-0.3,0-0.4,0c0.1-0.1,0.2-0.2,0.3-0.3c0.4-0.6,0.6-1.2,0.6-2c0-0.9-0.4-1.4-0.8-1.6c-0.2-0.1-0.5-0.2-0.8-0.2
				c-0.7,0-1.5,0.4-2.2,1.1c-0.7,0.7-1.1,1.5-1.2,2.3c0,0.2,0,0.3,0,0.4c-0.7,0.2-1.5,0.4-2.3,0.6c0.1-0.3,0.1-0.5,0.2-0.7
				c0.1-0.5,0.2-0.9,0.2-1.3c0-1.2-0.5-2-1.6-2.5c-0.8-0.4-2.1-0.6-3.8-0.6c-2.6,0-4.9,0.3-6.9,0.8c-1.8,0.5-2.9,1-3.6,1.8
				C2.3,26.3,2,26.9,2,27.5c0,1.1,0.8,2,2.3,2.6C5,30.4,5.9,30.6,7,30.8c1.3,0.2,3.3,0.3,5.8,0.3c0.8,0,1.7-0.1,2.7-0.2
				c0,0,0,0.1,0,0.1c-0.5,1.5-0.8,2.6-1.2,3.4c-0.1,0.3-0.2,0.5-0.2,0.8c0,0.6,0.4,0.7,0.6,0.7c0.5,0,0.8-0.5,1-0.9
				c0.4-0.9,0.9-2,1.5-3.4c0.1-0.3,0.2-0.6,0.4-0.9c0.5-0.1,1.1-0.2,1.6-0.3c1.1-0.3,2-0.5,2.8-0.8c0.1,0.1,0.2,0.1,0.3,0.2
				c0.8,0.3,1.7,0.5,2.7,0.5c0,0,0.1,0,0.1,0c0,0,0.1,0,0.1,0c1.6,0,3.1-0.3,4.6-0.9c0.3-0.1,0.6-0.2,0.8-0.4
				c0.2,0.6,0.8,1.2,2.2,1.2c0,0,0,0,0.1,0c0,0,0,0,0.1,0c0.7,0,1.4-0.1,2.1-0.3c0.3-0.1,0.7-0.2,0.9-0.3c0.5-0.2,0.9-0.5,1.2-0.8
				c0.5-0.5,0.7-1.2,0.7-2.1C38,26.1,37.9,25.6,37.7,25.3z M16.4,27.2c-0.1,0.4-0.2,0.9-0.3,1.4c-1.2,0.2-2.3,0.3-3.3,0.3
				c-1.8,0-3.4-0.1-4.8-0.2c-3.7-0.4-3.8-1.1-3.8-1.1c0-0.2,0.2-0.8,2.7-1.4c1.8-0.4,3.9-0.7,6.2-0.7c1.6,0,2.3,0.1,2.6,0.2
				c0.5,0.2,0.7,0.5,0.7,1C16.5,26.8,16.4,27,16.4,27.2z"/>
		</g>
		<g>
			<path class="st4" d="M21.7,22c0.8,0,1.4-0.1,2-0.4c0.2-0.1,0.4-0.3,0.4-0.5c0-0.4-0.2-0.6-0.6-0.6c-0.1,0-0.2,0-0.3,0.1
				c-0.7,0.3-1.3,0.5-1.7,0.5c-0.6,0.1-0.9,0.2-0.9,0.4C20.7,21.9,21,22,21.7,22z"/>
			<path class="st4" d="M35,22.6c0.2,0,0.4-0.1,0.5-0.3l0.3-0.5c0.1-0.1,0.1-0.2,0.1-0.3c0-0.2-0.1-0.3-0.2-0.4s-0.3-0.2-0.4-0.2
				c-0.2,0-0.4,0.1-0.5,0.3l-0.3,0.5c-0.1,0.1-0.1,0.2-0.1,0.3c0,0.2,0.1,0.3,0.2,0.4C34.7,22.5,34.8,22.6,35,22.6z"/>
			<path class="st4" d="M37.2,25.5c0-0.1-0.1-0.2-0.1-0.3c-0.3-0.5-0.7-0.8-1.1-0.8c-0.4,0-0.8,0.2-1.1,0.5
				c-0.3,0.3-0.4,0.7-0.4,1.1c0,0.6,0.3,0.9,1,0.9c0.2,0,0.4,0,0.6-0.1c0,0,0.1,0,0.1,0c0.1,0,0.2,0.1,0.2,0.2v0.1c0,0,0,0.1,0,0.1
				c0,0.1,0,0.1-0.1,0.2c-0.2,0.4-0.6,0.6-1.3,0.9c-0.6,0.2-1.3,0.3-1.9,0.3c0,0,0,0-0.1,0c0,0,0,0-0.1,0c-0.4,0-0.6-0.1-0.7-0.3
				c-0.3-3.1-0.6-5.6-0.7-7.5c0-0.4-0.2-0.5-0.6-0.5c-0.4,0-0.6,0.2-0.6,0.5v0.1c0.2,2.7,0.4,4.7,0.6,6.1c-0.2,0.2-0.8,0.5-1.6,0.9
				c-1.3,0.5-2.6,0.8-4,0.8c0,0-0.1,0-0.1,0c0,0-0.1,0-0.1,0c-0.6,0-1.2-0.1-1.6-0.2c0.5-0.3,0.8-0.6,1.1-0.9c0.3-0.5,0.5-1,0.5-1.7
				c0-0.6-0.2-0.9-0.6-1.1c-0.2-0.1-0.3-0.1-0.5-0.1c-0.6,0-1.2,0.3-1.8,1s-1,1.3-1,2c0,0.3,0,0.5,0.1,0.7c-0.9,0.3-2.1,0.6-3.4,0.9
				c-0.1,0-0.2,0-0.3,0.1c0.2-0.6,0.3-1.1,0.4-1.5c0.1-0.4,0.2-0.8,0.2-1.2c0-1-0.4-1.6-1.3-2c-0.7-0.3-2-0.5-3.6-0.5
				c-2.5,0-4.8,0.3-6.7,0.8c-1.6,0.4-2.8,1-3.4,1.6c-0.4,0.4-0.6,0.9-0.6,1.4c0,0.9,0.6,1.6,1.9,2.1c0.7,0.3,1.5,0.5,2.6,0.6
				c1.3,0.2,3.2,0.3,5.7,0.3c1,0,2.2-0.1,3.4-0.3c-0.1,0.3-0.2,0.6-0.3,0.9c-0.5,1.5-0.9,2.6-1.2,3.4c-0.1,0.2-0.1,0.4-0.1,0.6
				c0,0.1,0,0.2,0.1,0.2c0.1,0,0.3-0.2,0.5-0.7c0.4-0.8,0.9-2,1.5-3.4c0.2-0.4,0.3-0.8,0.5-1.2c0.6-0.1,1.2-0.2,1.9-0.4
				c1.2-0.3,2.2-0.6,3-0.9c0.1,0.1,0.3,0.2,0.5,0.3c0.7,0.3,1.6,0.5,2.5,0.5c0,0,0.1,0,0.1,0c0,0,0.1,0,0.1,0c1.5,0,3-0.3,4.4-0.8
				c0.6-0.2,1-0.4,1.4-0.6c0,0.1,0,0.1,0,0.2c0.1,0.9,0.7,1.3,1.8,1.3c0,0,0,0,0.1,0s0,0,0.1,0c0.7,0,1.3-0.1,2-0.3
				c0.3-0.1,0.6-0.2,0.9-0.3c0.4-0.2,0.8-0.4,1-0.7c0.4-0.4,0.6-1,0.6-1.7C37.5,26.2,37.4,25.8,37.2,25.5z M16.9,27.3
				c-0.1,0.5-0.2,1.1-0.4,1.8c-1.3,0.2-2.6,0.3-3.7,0.3c-1.8,0-3.4-0.1-4.9-0.2c-2.8-0.3-4.2-0.9-4.2-1.6c0-0.8,1-1.4,3.1-1.9
				c1.9-0.4,4-0.7,6.4-0.7c1.3,0,2.2,0.1,2.7,0.2c0.7,0.2,1.1,0.7,1.1,1.5C17,26.8,16.9,27.1,16.9,27.3z M22.9,27.2
				c-0.1,0.1-0.2,0.1-0.4,0.2c-0.1-0.2-0.1-0.3-0.1-0.5c0-0.2,0.1-0.5,0.3-0.8c0.2-0.3,0.5-0.5,0.7-0.5c0,0,0.1,0,0.1,0
				c0.1,0,0.2,0.2,0.2,0.5c0,0.2-0.1,0.3-0.2,0.5C23.4,26.8,23.2,27,22.9,27.2z"/>
		</g>
	</g>
	<g>
		<path class="st4" d="M20.1,35.9h-0.4v-0.1c-0.1-0.2-0.3-0.4-0.5-0.6C19,35.1,18.7,35,18.4,35l-0.1-0.3c0.2-0.2,0.4-0.3,0.4-0.3
			l0.4-0.3l-0.4-0.7h-0.5l0-0.4h0.5c0.1,0,0.1,0.1,0.2,0.2c0.1-0.1,0.1-0.2,0.2-0.2h2.6l0,0.4h-2.5l0.5,0.8L19,34.7h0
			c0.4,0.1,0.7,0.3,0.9,0.5l0.2-1.6c0.1,0,0.2,0,0.4,0c0.2,0,0.4,0.1,0.6,0.2c0.1,0.1,0.3,0.2,0.3,0.4c0,0.1,0.1,0.3,0,0.5
			c0,0.1-0.1,0.3-0.1,0.4c-0.1,0.1-0.2,0.2-0.4,0.3h-0.1c-0.1,0-0.2,0-0.3-0.1c-0.1-0.1-0.1-0.2-0.1-0.3c0-0.1,0.1-0.2,0.1-0.3
			c0.1-0.1,0.2-0.1,0.3-0.1c0,0,0.1,0,0.1,0c0-0.2-0.1-0.4-0.3-0.5c-0.1-0.1-0.3-0.1-0.4-0.1L20.1,35.9z"/>
		<path class="st4" d="M22.9,35.9h-0.4l0.3-2.5h-0.2l0-0.4h0.2c0.1,0,0.1,0.1,0.2,0.2c0.1-0.1,0.1-0.2,0.2-0.2h0.2l0,0.4h-0.2
			L22.9,35.9z"/>
		<path class="st4" d="M26.7,35.9h-0.4l0.2-1.5c0,0-0.1,0-0.1,0c0,0-0.1,0-0.1,0c-0.1,0-0.1,0-0.1,0c0,0,0,0,0,0s0,0,0,0
			c0,0.1,0.1,0.3,0,0.4h-0.4c0-0.1,0-0.2,0-0.3c0-0.1-0.1-0.2-0.2-0.3c-0.1-0.1-0.2-0.1-0.3-0.1c-0.2,0-0.3,0.1-0.4,0.2
			c-0.1,0.1-0.2,0.2-0.2,0.4c0,0.1,0,0.2,0.1,0.3c0.1,0.1,0.1,0.2,0.2,0.2c0-0.1,0-0.1,0-0.2c0-0.1,0.1-0.2,0.1-0.3
			c0.1-0.1,0.2-0.1,0.3-0.1c0.1,0,0.2,0,0.2,0.1c0.1,0.1,0.1,0.2,0.1,0.3c0,0,0,0,0,0c0,0,0,0,0,0c0,0,0,0,0,0c0,0,0,0,0,0
			c-0.1,0.1-0.2,0.3-0.3,0.3c-0.1,0.1-0.3,0.1-0.4,0.1c-0.1,0-0.3,0-0.4-0.1c-0.1-0.1-0.2-0.2-0.2-0.3c-0.1-0.1-0.1-0.3-0.1-0.4
			c0-0.3,0.2-0.5,0.4-0.7c0.2-0.2,0.4-0.2,0.6-0.2c0.2,0,0.5,0.1,0.6,0.3c0.2-0.1,0.3-0.2,0.5-0.2c0,0,0,0,0,0c0,0,0,0,0.1,0
			l0.1-0.6h-2.4l0-0.4h2.4c0.1,0,0.1,0.1,0.2,0.2c0.1-0.1,0.1-0.2,0.2-0.2h0.2l0,0.4H27L26.7,35.9z"/>
		<path class="st4" d="M28.3,35.9H28l0.3-2.5H28l0-0.4h0.2c0.1,0,0.1,0.1,0.2,0.2c0.1-0.1,0.1-0.2,0.2-0.2h0.2l0,0.4h-0.2L28.3,35.9
			z"/>
		<path class="st4" d="M31.8,35.9h-0.4l0-0.1c-0.1-0.2-0.1-0.3-0.3-0.5c-0.2-0.3-0.5-0.4-0.9-0.5c-0.1,0-0.3,0-0.5,0l-0.1-0.3
			c0.6-0.5,1.2-0.9,1.9-1.1h-1.9l0-0.4h2c0.1,0,0.1,0.1,0.2,0.2c0.1-0.1,0.1-0.2,0.2-0.2h1.3l0,0.4h-1.2c0.3,0,0.5,0.2,0.7,0.3
			C33,34,33,34.2,33,34.5c0,0.1-0.1,0.3-0.1,0.4c-0.1,0.1-0.2,0.2-0.3,0.2c0,0-0.1,0-0.1,0c-0.1,0-0.2,0-0.3-0.1
			c-0.1-0.1-0.1-0.2-0.1-0.3c0-0.1,0.1-0.2,0.1-0.3c0.1-0.1,0.2-0.1,0.3-0.1c0.1,0,0.1,0,0.1,0c0-0.2-0.1-0.3-0.2-0.4
			c-0.1-0.1-0.3-0.2-0.5-0.2L31.8,35.9z M31.5,35.1l0.1-1.3c-0.4,0.2-0.9,0.4-1.2,0.7C30.8,34.5,31.2,34.7,31.5,35.1z"/>
		<path class="st4" d="M31.8,36.3l-0.1,0.5l-0.5-0.5l0.3-0.3L31.8,36.3z"/>
	</g>
</g>
</svg>
