<?xml version="1.0" encoding="utf-8"?>
<!-- Generator: Adobe Illustrator 24.2.3, SVG Export Plug-In . SVG Version: 6.00 Build 0)  -->
<svg version="1.1" id="Layer_1" xmlns="http://www.w3.org/2000/svg" xmlns:xlink="http://www.w3.org/1999/xlink" x="0px" y="0px"
	 viewBox="0 0 38 38" style="enable-background:new 0 0 38 38;" xml:space="preserve">
<style type="text/css">
	.st0{fill:#FAEBC8;}
	.st1{fill:#C32D25;}
	.st2{fill:#E76D1B;}
</style>
<path class="st0" d="M41.67-9.05L41.67-9.05c-1.37,0-2.48-1.11-2.48-2.48l0,0c0-1.37,1.11-2.48,2.48-2.48l0,0
	c1.37,0,2.48,1.11,2.48,2.48l0,0C44.15-10.16,43.04-9.05,41.67-9.05z"/>
<path class="st1" d="M49.23-9.05L49.23-9.05c-1.37,0-2.48-1.11-2.48-2.48l0,0c0-1.37,1.11-2.48,2.48-2.48l0,0
	c1.37,0,2.48,1.11,2.48,2.48l0,0C51.7-10.16,50.59-9.05,49.23-9.05z"/>
<path class="st2" d="M56.78-9.05L56.78-9.05c-1.37,0-2.48-1.11-2.48-2.48l0,0c0-1.37,1.11-2.48,2.48-2.48l0,0
	c1.37,0,2.48,1.11,2.48,2.48l0,0C59.26-10.16,58.15-9.05,56.78-9.05z"/>
<g>
	<path d="M12.85,30.32c-0.38,0.02-0.72,0.08-1.05,0.04c-0.84-0.12-1.51-0.82-1.61-1.69c-0.04-0.33-0.09-0.42-0.47-0.4
		c-1.06,0.08-1.97-0.87-1.98-1.99c0-0.29-0.06-0.4-0.37-0.46c-1.31-0.25-1.92-1.68-1.3-2.96c0.04-0.08,0.07-0.17,0.13-0.23
		c0.3-0.31,0.23-0.59,0.07-0.98c-0.28-0.67-0.45-1.39-0.63-2.1c-0.07-0.3-0.19-0.53-0.42-0.73c-1.3-1.15-2.59-2.32-3.9-3.47
		c-0.32-0.28-0.4-0.56-0.29-0.97c0.41-1.5,1.11-2.87,1.91-4.19c0.94-1.55,2.07-2.94,3.42-4.15c0.51-0.46,0.68-0.47,1.24-0.05
		c1.22,0.92,2.45,1.84,3.66,2.77c0.29,0.22,0.58,0.32,0.96,0.3c2.05-0.1,4.09,0.05,6.11,0.47c0.13,0.03,0.28,0.02,0.4-0.03
		c0.94-0.45,1.94-0.57,2.96-0.51c1.45,0.08,2.85,0.39,4.25,0.76c0.25,0.07,0.46,0.05,0.68-0.09c1.43-0.88,2.87-1.75,4.3-2.63
		c0.52-0.32,0.68-0.31,1.1,0.15c2.25,2.46,3.94,5.25,4.91,8.46c0.15,0.5,0.08,0.84-0.33,1.16c-1.23,0.97-2.45,1.97-3.66,2.97
		c-0.18,0.15-0.33,0.38-0.4,0.6c-0.35,1.05-0.85,2.01-1.59,2.84c-0.17,0.18-0.18,0.32-0.07,0.55c0.58,1.18,0.22,2.31-0.9,2.84
		c-0.17,0.08-0.36,0.14-0.54,0.15c-0.24,0.01-0.33,0.1-0.38,0.34c-0.19,0.86-0.69,1.49-1.55,1.71c-0.39,0.1-0.82,0.02-1.26,0.02
		c-0.03,0.1-0.06,0.24-0.1,0.38c-0.35,1.29-1.7,1.95-2.76,1.55c-0.16-0.06-0.22-0.01-0.29,0.14c-0.61,1.25-1.66,1.7-2.99,1.3
		c-0.96-0.29-1.77-0.85-2.51-1.51c-0.24-0.21-0.38-0.21-0.6,0.01c-0.27,0.28-0.58,0.51-0.87,0.77c-1.12,0.98-2.67,0.57-3.17-0.85
		C12.91,30.5,12.88,30.39,12.85,30.32z M30.26,22.75c0.55-0.52,1.23-1.66,1.46-2.5c0.13-0.47,0.38-0.84,0.76-1.14
		c1.16-0.93,2.29-1.87,3.45-2.8c0.22-0.18,0.26-0.34,0.18-0.61c-0.91-2.97-2.48-5.56-4.58-7.83c-0.14-0.15-0.24-0.15-0.41-0.05
		c-1.39,0.86-2.78,1.7-4.16,2.57c-0.35,0.22-0.69,0.27-1.1,0.18c-1.22-0.26-2.45-0.53-3.68-0.72c-1.42-0.21-2.79-0.01-3.99,0.83
		c-1.23,0.87-2.45,1.76-3.67,2.65c-0.56,0.4-0.93,0.94-1.14,1.6c-0.39,1.2-0.82,2.38-1.48,3.47c-0.24,0.4,0.02,0.87,0.52,0.94
		c0.18,0.03,0.38,0.01,0.56-0.02c0.57-0.11,1.03-0.41,1.43-0.81c0.78-0.76,1.27-1.7,1.65-2.7c0.11-0.29,0.3-0.49,0.6-0.57
		c1.29-0.32,2.51-0.83,3.69-1.43c0.3-0.15,0.52-0.1,0.77,0.12c0.75,0.66,1.53,1.3,2.3,1.93c1.09,0.89,2.28,1.28,3.65,0.74
		c0.2-0.08,0.39-0.01,0.47,0.19c0.1,0.23,0,0.43-0.21,0.53c-0.23,0.11-0.48,0.21-0.73,0.24c-0.38,0.06-0.76,0.06-1.1,0.08
		C27.08,19.32,28.66,21.03,30.26,22.75z M8.44,26.22c0.15,0.33,0.23,0.64,0.41,0.88c0.34,0.47,1.07,0.58,1.46,0.22
		c0.79-0.73,1.57-1.46,2.31-2.24c0.61-0.64,0.37-1.68-0.43-1.98c-0.54-0.2-0.99,0.02-1.38,0.39c-0.65,0.63-1.3,1.25-1.92,1.91
		C8.69,25.62,8.6,25.92,8.44,26.22z M15.41,26.35c0-0.51-0.23-0.87-0.68-1.1c-0.42-0.21-0.96-0.13-1.3,0.2
		c-0.68,0.64-1.34,1.3-2.03,1.93c-0.4,0.37-0.52,0.81-0.4,1.32c0.2,0.83,1.11,1.19,1.7,0.66c0.79-0.72,1.57-1.46,2.35-2.19
		C15.28,26.95,15.42,26.68,15.41,26.35z M17.65,28.52c0-0.54-0.27-1.01-0.7-1.19c-0.48-0.2-0.87,0-1.22,0.32
		c-0.59,0.54-1.17,1.08-1.76,1.61c-0.32,0.29-0.42,0.63-0.3,1.05c0.26,0.88,1.18,1.19,1.88,0.61c0.61-0.51,1.19-1.05,1.78-1.59
		C17.56,29.11,17.67,28.84,17.65,28.52z M6.57,23.86c0.05,0.55,0.31,0.98,0.76,1.16c0.47,0.19,0.85,0.03,1.18-0.31
		c0.42-0.45,0.84-0.9,1.26-1.35c0.27-0.29,0.37-0.66,0.35-1.04c-0.02-0.45-0.24-0.77-0.64-0.97c-0.37-0.19-0.74-0.16-1.07,0.09
		c-0.62,0.47-1.18,1.01-1.57,1.69C6.73,23.35,6.67,23.62,6.57,23.86z"/>
	<path class="st0" d="M30.26,22.75c-1.59-1.72-3.18-3.43-4.73-5.11c0.34-0.02,0.72-0.02,1.1-0.08c0.25-0.04,0.5-0.13,0.73-0.24
		c0.2-0.1,0.31-0.3,0.21-0.53c-0.09-0.2-0.27-0.27-0.47-0.19c-1.38,0.55-2.57,0.15-3.65-0.74c-0.78-0.64-1.55-1.27-2.3-1.93
		c-0.25-0.22-0.47-0.27-0.77-0.12c-1.18,0.6-2.4,1.11-3.69,1.43c-0.3,0.08-0.49,0.28-0.6,0.57c-0.38,1-0.87,1.94-1.65,2.7
		c-0.41,0.39-0.87,0.7-1.43,0.81c-0.18,0.03-0.38,0.05-0.56,0.02c-0.5-0.07-0.77-0.54-0.52-0.94c0.66-1.09,1.1-2.27,1.48-3.47
		c0.21-0.66,0.58-1.19,1.14-1.6c1.22-0.88,2.44-1.78,3.67-2.65c1.2-0.85,2.58-1.04,3.99-0.83c1.24,0.18,2.46,0.45,3.68,0.72
		c0.41,0.09,0.75,0.04,1.1-0.18c1.38-0.86,2.78-1.71,4.16-2.57c0.16-0.1,0.27-0.09,0.41,0.05c2.11,2.27,3.67,4.86,4.58,7.83
		c0.08,0.27,0.04,0.43-0.18,0.61c-1.16,0.93-2.3,1.87-3.45,2.8c-0.38,0.3-0.63,0.67-0.76,1.14C31.49,21.09,30.8,22.24,30.26,22.75z"
		/>
	<path class="st0" d="M8.44,26.22c0.16-0.29,0.25-0.6,0.45-0.81c0.62-0.66,1.27-1.28,1.92-1.91c0.39-0.37,0.84-0.59,1.38-0.39
		c0.79,0.29,1.04,1.33,0.43,1.98c-0.74,0.78-1.52,1.51-2.31,2.24c-0.39,0.36-1.12,0.25-1.46-0.22C8.67,26.86,8.59,26.54,8.44,26.22z
		"/>
	<path class="st0" d="M15.41,26.35c0.01,0.33-0.13,0.6-0.36,0.82c-0.78,0.73-1.56,1.47-2.35,2.19c-0.58,0.53-1.49,0.17-1.7-0.66
		c-0.12-0.51,0-0.95,0.4-1.32c0.69-0.63,1.35-1.29,2.03-1.93c0.35-0.33,0.88-0.41,1.3-0.2C15.18,25.48,15.42,25.85,15.41,26.35z"/>
	<path class="st0" d="M17.65,28.52c0.02,0.32-0.09,0.59-0.32,0.8c-0.59,0.54-1.17,1.08-1.78,1.59c-0.7,0.58-1.62,0.27-1.88-0.61
		c-0.12-0.42-0.02-0.76,0.3-1.05c0.59-0.53,1.17-1.07,1.76-1.61c0.35-0.32,0.74-0.52,1.22-0.32C17.38,27.51,17.65,27.98,17.65,28.52
		z"/>
	<path class="st0" d="M6.57,23.86c0.09-0.25,0.15-0.51,0.28-0.74c0.39-0.68,0.95-1.22,1.57-1.69c0.32-0.25,0.69-0.28,1.07-0.09
		c0.39,0.2,0.62,0.52,0.64,0.97c0.01,0.39-0.08,0.75-0.35,1.04c-0.42,0.45-0.84,0.9-1.26,1.35c-0.33,0.35-0.71,0.5-1.18,0.31
		C6.89,24.84,6.62,24.41,6.57,23.86z"/>
</g>
</svg>
