<?xml version="1.0" encoding="utf-8"?>
<!-- Generator: Adobe Illustrator 24.2.3, SVG Export Plug-In . SVG Version: 6.00 Build 0)  -->
<svg version="1.1" id="Layer_1" xmlns="http://www.w3.org/2000/svg" xmlns:xlink="http://www.w3.org/1999/xlink" x="0px" y="0px"
	 viewBox="0 0 40 40" style="enable-background:new 0 0 40 40;" xml:space="preserve">
<style type="text/css">
	.st0{fill:#FAEBC8;}
	.st1{fill:#C32D25;}
	.st2{fill:#E76D1B;}
</style>
<path class="st0" d="M48.41,8.35L48.41,8.35c-1.37,0-2.48-1.11-2.48-2.48v0c0-1.37,1.11-2.48,2.48-2.48h0
	c1.37,0,2.48,1.11,2.48,2.48v0C50.89,7.24,49.78,8.35,48.41,8.35z"/>
<path class="st1" d="M55.97,8.35L55.97,8.35c-1.37,0-2.48-1.11-2.48-2.48v0c0-1.37,1.11-2.48,2.48-2.48h0
	c1.37,0,2.48,1.11,2.48,2.48v0C58.44,7.24,57.33,8.35,55.97,8.35z"/>
<path class="st2" d="M63.52,8.35L63.52,8.35c-1.37,0-2.48-1.11-2.48-2.48v0c0-1.37,1.11-2.48,2.48-2.48h0C64.89,3.39,66,4.5,66,5.87
	v0C66,7.24,64.89,8.35,63.52,8.35z"/>
<g>
	<path class="st2" d="M19.59,21.5c-0.01-2.15-0.01-4.3-0.02-6.45c0.01-0.17,0.02-0.34,0.02-0.51c0-4.05,0-8.09,0-12.14
		c0-1.27-0.09-1.37-1.37-1.52C18.14,0.86,18.07,0.86,18,0.86c-2.37,0-4.73-0.03-7.1,0.01C8.84,0.91,7.08,2.68,7.02,4.74
		c-0.04,1.52,0,3.05,0,4.57C7.01,9.45,7,9.57,7,9.7c0,9.29,0,18.58,0.01,27.87c0,0.11-0.01,0.23,0.01,0.34
		c0.08,0.55,0.37,0.95,0.89,1.15c0.93,0.35,1.82-0.34,1.82-1.4c0-4.37,0-8.75,0.01-13.12c0-0.66-0.09-0.59,0.6-0.59
		c2.94,0,5.87-0.01,8.81,0.01c0.36,0,0.46-0.1,0.45-0.45C19.57,22.84,19.59,22.17,19.59,21.5z"/>
	<path class="st1" d="M32.58,20.43c-0.67-1.62-1.34-3.23-2.03-4.84c-0.23-0.53-0.24-1.02-0.01-1.56c0.71-1.69,1.39-3.4,2.09-5.09
		c0.2-0.49,0.34-1,0.36-1.53c0.09-2.4-1.75-4.29-4.21-4.3c-2.28-0.01-4.56,0.01-6.84-0.01c-0.43,0-0.55,0.1-0.55,0.54
		c0.02,4,0.01,8.01,0.02,12.01c0,0.14,0.02,0.28,0.03,0.42c-0.01,0.04-0.02,0.08-0.02,0.13c0,3.11,0,6.21-0.01,9.32
		c0,0.23,0.1,0.33,0.29,0.41c0.54,0.22,1.09,0.32,1.67,0.32c1.78,0,3.56,0,5.34,0c0.43,0,0.85-0.05,1.27-0.17
		c2.11-0.6,3.45-2.91,2.85-4.87C32.81,20.93,32.69,20.68,32.58,20.43z"/>
</g>
</svg>
