<?xml version="1.0" encoding="utf-8"?>
<!-- Generator: Adobe Illustrator 24.2.3, SVG Export Plug-In . SVG Version: 6.00 Build 0)  -->
<svg version="1.1" id="Layer_1" xmlns="http://www.w3.org/2000/svg" xmlns:xlink="http://www.w3.org/1999/xlink" x="0px" y="0px"
	 viewBox="0 0 22 22" style="enable-background:new 0 0 22 22;" xml:space="preserve">
<style type="text/css">
	.st0{fill:#FAEBC8;}
	.st1{fill:#C32D25;}
	.st2{fill:#E76D1B;}
</style>
<path class="st0" d="M33.67-17.05L33.67-17.05c-1.37,0-2.48-1.11-2.48-2.48l0,0c0-1.37,1.11-2.48,2.48-2.48l0,0
	c1.37,0,2.48,1.11,2.48,2.48l0,0C36.15-18.16,35.04-17.05,33.67-17.05z"/>
<path class="st1" d="M41.23-17.05L41.23-17.05c-1.37,0-2.48-1.11-2.48-2.48l0,0c0-1.37,1.11-2.48,2.48-2.48l0,0
	c1.37,0,2.48,1.11,2.48,2.48l0,0C43.7-18.16,42.59-17.05,41.23-17.05z"/>
<path class="st2" d="M48.78-17.05L48.78-17.05c-1.37,0-2.48-1.11-2.48-2.48l0,0c0-1.37,1.11-2.48,2.48-2.48l0,0
	c1.37,0,2.48,1.11,2.48,2.48l0,0C51.26-18.16,50.15-17.05,48.78-17.05z"/>
<g>
	<path class="st1" d="M130.65-2.88c-2.92-0.7-5.53-1.33-8.15-1.96c0.04-0.2,0.09-0.41,0.13-0.61c2.02,0.43,4.04,0.87,6.19,1.33
		c-9.67-10.33-4.78-22.96,2.26-27.65c6.8-4.52,15.88-3.36,19.24,0.04c-11.61-4.67-20.67-2.45-25.43,9.85
		c-2.34,6.05,0.28,13.96,5.22,17.41c0-2.43,0-4.64,0-6.85c0.18,0.01,0.36,0.02,0.54,0.03C130.65-8.59,130.65-5.89,130.65-2.88z"/>
	<path class="st1" d="M151.91-29.57c0,2.55,0,4.73,0,6.91c-0.17-0.01-0.34-0.02-0.51-0.02c0-2.71,0-5.42,0-8.34
		c2.83,0.67,5.47,1.29,8.1,1.91c-0.04,0.21-0.08,0.42-0.12,0.63c-0.99-0.21-1.97-0.42-2.96-0.63c-1.01-0.22-2.02-0.44-3.48-0.77
		c4.41,4.52,6.32,9.61,5.5,15.47c-0.83,5.92-3.96,10.38-9.26,13.22c-5.59,2.99-15.63,2.38-17.42-1.04
		c10.62,4.52,19.36,2.81,24.73-8.06C159.68-16.75,157.55-24.99,151.91-29.57z"/>
	<path class="st1" d="M140.73-22.26c1.42-0.77,2.6-1.75,3.94-2.08c3.22-0.79,6.48,1.91,6.1,5.25c-0.23,2.05-0.96,4.34-2.23,5.89
		c-1.91,2.32-4.47,4.12-6.8,6.07c-0.28,0.24-1.01,0.28-1.33,0.08c-2.96-1.83-5.79-3.87-7.58-6.94c-0.78-1.34-1.33-2.9-1.61-4.43
		c-0.44-2.41,0.88-4.64,2.97-5.6c2.07-0.95,4.37-0.48,6.08,1.25C140.51-22.52,140.72-22.27,140.73-22.26z M141.01-19.99
		c-0.28-0.55-0.45-0.94-0.66-1.31c-1.07-1.93-3.14-2.8-5.2-2.19c-2.06,0.61-3.44,2.48-3.18,4.65c0.15,1.27,0.51,2.58,1.09,3.72
		c1.61,3.2,4.4,5.29,7.35,7.16c0.32,0.2,1.05,0.15,1.34-0.09c2.12-1.77,4.41-3.43,6.18-5.53c1.13-1.34,1.71-3.31,2.09-5.09
		c0.47-2.2-1.01-4.17-3.14-4.81c-2.05-0.62-4.12,0.25-5.2,2.19C141.46-20.93,141.29-20.54,141.01-19.99z"/>
	<path class="st0" d="M141.01-19.99c0.28-0.55,0.46-0.94,0.66-1.32c1.08-1.94,3.15-2.81,5.2-2.19c2.13,0.64,3.61,2.61,3.14,4.81
		c-0.38,1.78-0.96,3.75-2.09,5.09c-1.76,2.09-4.05,3.75-6.18,5.53c-0.29,0.24-1.03,0.29-1.34,0.09c-2.95-1.86-5.74-3.95-7.35-7.16
		c-0.57-1.14-0.93-2.45-1.09-3.72c-0.26-2.18,1.11-4.04,3.18-4.65c2.06-0.61,4.13,0.26,5.2,2.19
		C140.56-20.93,140.73-20.54,141.01-19.99z M136.01-13.52c-1.94-2.99-1.94-2.99-1.97-7.71C132.24-19.55,133.22-14.7,136.01-13.52z"
		/>
	<path class="st1" d="M136.01-13.52c-2.79-1.18-3.78-6.04-1.97-7.71C134.07-16.51,134.07-16.51,136.01-13.52z"/>
</g>
<g>
	<path class="st2" d="M10.78,11.81c-0.01-1.16-0.01-2.32-0.01-3.47c0.01-0.09,0.01-0.18,0.01-0.27c0-2.18,0-4.36,0-6.54
		c0-0.68-0.05-0.74-0.74-0.82C10,0.69,9.96,0.69,9.92,0.69c-1.28,0-2.55-0.02-3.82,0.01C4.99,0.72,4.04,1.67,4.01,2.78
		c-0.02,0.82,0,1.64,0,2.46C4.01,5.32,4,5.38,4,5.45c0,5,0,10.01,0.01,15.01c0,0.06-0.01,0.12,0.01,0.18
		c0.04,0.3,0.2,0.51,0.48,0.62c0.5,0.19,0.98-0.18,0.98-0.75c0-2.35,0-4.71,0.01-7.07c0-0.36-0.05-0.32,0.32-0.32
		c1.58,0,3.16-0.01,4.75,0.01c0.19,0,0.25-0.05,0.24-0.24C10.77,12.53,10.78,12.17,10.78,11.81z"/>
	<path class="st1" d="M17.78,11.23c-0.36-0.87-0.72-1.74-1.09-2.61c-0.12-0.29-0.13-0.55-0.01-0.84c0.38-0.91,0.75-1.83,1.13-2.74
		C17.91,4.78,17.99,4.5,18,4.22c0.05-1.29-0.94-2.31-2.27-2.32C14.5,1.9,13.27,1.91,12.05,1.9c-0.23,0-0.3,0.05-0.3,0.29
		c0.01,2.15,0.01,4.31,0.01,6.47c0,0.08,0.01,0.15,0.02,0.23c-0.01,0.02-0.01,0.04-0.01,0.07c0,1.68,0,3.34-0.01,5.02
		c0,0.12,0.05,0.18,0.16,0.22c0.29,0.12,0.59,0.17,0.9,0.17c0.96,0,1.92,0,2.88,0c0.23,0,0.46-0.03,0.68-0.09
		c1.14-0.32,1.86-1.57,1.54-2.62C17.9,11.5,17.84,11.37,17.78,11.23z"/>
</g>
<g>
	<path d="M62.53-8.25c-0.38,0.02-0.72,0.08-1.05,0.04c-0.84-0.12-1.51-0.82-1.61-1.69c-0.04-0.33-0.09-0.42-0.47-0.4
		c-1.06,0.08-1.97-0.87-1.98-1.99c0-0.29-0.06-0.4-0.37-0.46c-1.31-0.25-1.92-1.68-1.3-2.96c0.04-0.08,0.07-0.17,0.13-0.23
		c0.3-0.31,0.23-0.59,0.07-0.98c-0.28-0.67-0.45-1.39-0.63-2.1c-0.07-0.3-0.19-0.53-0.42-0.73c-1.3-1.15-2.59-2.32-3.9-3.47
		c-0.32-0.28-0.4-0.56-0.29-0.97c0.41-1.5,1.11-2.87,1.91-4.19c0.94-1.55,2.07-2.94,3.42-4.15c0.51-0.46,0.68-0.47,1.24-0.05
		c1.22,0.92,2.45,1.84,3.66,2.77c0.29,0.22,0.58,0.32,0.96,0.3c2.05-0.1,4.09,0.05,6.11,0.47c0.13,0.03,0.28,0.02,0.4-0.03
		c0.94-0.45,1.94-0.57,2.96-0.51c1.45,0.08,2.85,0.39,4.25,0.76c0.25,0.07,0.46,0.05,0.68-0.09c1.43-0.88,2.87-1.75,4.3-2.63
		c0.52-0.32,0.68-0.31,1.1,0.15c2.25,2.46,3.94,5.25,4.91,8.46c0.15,0.5,0.08,0.84-0.33,1.16c-1.23,0.97-2.45,1.97-3.66,2.97
		c-0.18,0.15-0.33,0.38-0.4,0.6c-0.35,1.05-0.85,2.01-1.59,2.84c-0.17,0.18-0.18,0.32-0.07,0.55c0.58,1.18,0.22,2.31-0.9,2.84
		c-0.17,0.08-0.36,0.14-0.54,0.15c-0.24,0.01-0.33,0.1-0.38,0.34c-0.19,0.86-0.69,1.49-1.55,1.71c-0.39,0.1-0.82,0.02-1.26,0.02
		c-0.03,0.1-0.06,0.24-0.1,0.38c-0.35,1.29-1.7,1.95-2.76,1.55c-0.16-0.06-0.22-0.01-0.29,0.14c-0.61,1.25-1.66,1.7-2.99,1.3
		c-0.96-0.29-1.77-0.85-2.51-1.51c-0.24-0.21-0.38-0.21-0.6,0.01c-0.27,0.28-0.58,0.51-0.87,0.77c-1.12,0.98-2.67,0.57-3.17-0.85
		C62.59-8.07,62.56-8.18,62.53-8.25z M79.94-15.82c0.55-0.52,1.23-1.66,1.46-2.5c0.13-0.47,0.38-0.84,0.76-1.14
		c1.16-0.93,2.29-1.87,3.45-2.8c0.22-0.18,0.26-0.34,0.18-0.61c-0.91-2.97-2.48-5.56-4.58-7.83c-0.14-0.15-0.24-0.15-0.41-0.05
		c-1.39,0.86-2.78,1.7-4.16,2.57c-0.35,0.22-0.69,0.27-1.1,0.18c-1.22-0.26-2.45-0.53-3.68-0.72c-1.42-0.21-2.79-0.01-3.99,0.83
		c-1.23,0.87-2.45,1.76-3.67,2.65c-0.56,0.4-0.93,0.94-1.14,1.6c-0.39,1.2-0.82,2.38-1.48,3.47c-0.24,0.4,0.02,0.87,0.52,0.94
		c0.18,0.03,0.38,0.01,0.56-0.02c0.57-0.11,1.03-0.41,1.43-0.81c0.78-0.76,1.27-1.7,1.65-2.7c0.11-0.29,0.3-0.49,0.6-0.57
		c1.29-0.32,2.51-0.83,3.69-1.43c0.3-0.15,0.52-0.1,0.77,0.12c0.75,0.66,1.53,1.3,2.3,1.93c1.09,0.89,2.28,1.28,3.65,0.74
		c0.2-0.08,0.39-0.01,0.47,0.19c0.1,0.23,0,0.43-0.21,0.53c-0.23,0.11-0.48,0.21-0.73,0.24c-0.38,0.06-0.76,0.06-1.1,0.08
		C76.76-19.25,78.34-17.54,79.94-15.82z M58.12-12.35c0.15,0.33,0.23,0.64,0.41,0.88c0.34,0.47,1.07,0.58,1.46,0.22
		c0.79-0.73,1.57-1.46,2.31-2.24c0.61-0.64,0.37-1.68-0.43-1.98c-0.54-0.2-0.99,0.02-1.38,0.39c-0.65,0.63-1.3,1.25-1.92,1.91
		C58.37-12.95,58.28-12.65,58.12-12.35z M65.09-12.22c0-0.51-0.23-0.87-0.68-1.1c-0.42-0.21-0.96-0.13-1.3,0.2
		c-0.68,0.64-1.34,1.3-2.03,1.93c-0.4,0.37-0.52,0.81-0.4,1.32c0.2,0.83,1.11,1.19,1.7,0.66c0.79-0.72,1.57-1.46,2.35-2.19
		C64.96-11.62,65.1-11.89,65.09-12.22z M67.33-10.05c0-0.54-0.27-1.01-0.7-1.19c-0.48-0.2-0.87,0-1.22,0.32
		c-0.59,0.54-1.17,1.08-1.76,1.61c-0.32,0.29-0.42,0.63-0.3,1.05c0.26,0.88,1.18,1.19,1.88,0.61c0.61-0.51,1.19-1.05,1.78-1.59
		C67.24-9.46,67.35-9.73,67.33-10.05z M56.25-14.71c0.05,0.55,0.31,0.98,0.76,1.16c0.47,0.19,0.85,0.03,1.18-0.31
		c0.42-0.45,0.84-0.9,1.26-1.35c0.27-0.29,0.37-0.66,0.35-1.04c-0.02-0.45-0.24-0.77-0.64-0.97c-0.37-0.19-0.74-0.16-1.07,0.09
		c-0.62,0.47-1.18,1.01-1.57,1.69C56.41-15.22,56.35-14.95,56.25-14.71z"/>
	<path class="st0" d="M79.94-15.82c-1.59-1.72-3.18-3.43-4.73-5.11c0.34-0.02,0.72-0.02,1.1-0.08c0.25-0.04,0.5-0.13,0.73-0.24
		c0.2-0.1,0.31-0.3,0.21-0.53c-0.09-0.2-0.27-0.27-0.47-0.19c-1.38,0.55-2.57,0.15-3.65-0.74c-0.78-0.64-1.55-1.27-2.3-1.93
		c-0.25-0.22-0.47-0.27-0.77-0.12c-1.18,0.6-2.4,1.11-3.69,1.43c-0.3,0.08-0.49,0.28-0.6,0.57c-0.38,1-0.87,1.94-1.65,2.7
		c-0.41,0.39-0.87,0.7-1.43,0.81c-0.18,0.03-0.38,0.05-0.56,0.02c-0.5-0.07-0.77-0.54-0.52-0.94c0.66-1.09,1.1-2.27,1.48-3.47
		c0.21-0.66,0.58-1.19,1.14-1.6c1.22-0.88,2.44-1.78,3.67-2.65c1.2-0.85,2.58-1.04,3.99-0.83c1.24,0.18,2.46,0.45,3.68,0.72
		c0.41,0.09,0.75,0.04,1.1-0.18c1.38-0.86,2.78-1.71,4.16-2.57c0.16-0.1,0.27-0.09,0.41,0.05c2.11,2.27,3.67,4.86,4.58,7.83
		c0.08,0.27,0.04,0.43-0.18,0.61c-1.16,0.93-2.3,1.87-3.45,2.8c-0.38,0.3-0.63,0.67-0.76,1.14C81.17-17.48,80.48-16.33,79.94-15.82z
		"/>
	<path class="st0" d="M58.12-12.35c0.16-0.29,0.25-0.6,0.45-0.81c0.62-0.66,1.27-1.28,1.92-1.91c0.39-0.37,0.84-0.59,1.38-0.39
		c0.79,0.29,1.04,1.33,0.43,1.98c-0.74,0.78-1.52,1.51-2.31,2.24c-0.39,0.36-1.12,0.25-1.46-0.22
		C58.35-11.71,58.27-12.03,58.12-12.35z"/>
	<path class="st0" d="M65.09-12.22c0.01,0.33-0.13,0.6-0.36,0.82c-0.78,0.73-1.56,1.47-2.35,2.19c-0.58,0.53-1.49,0.17-1.7-0.66
		c-0.12-0.51,0-0.95,0.4-1.32c0.69-0.63,1.35-1.29,2.03-1.93c0.35-0.33,0.88-0.41,1.3-0.2C64.86-13.09,65.1-12.72,65.09-12.22z"/>
	<path class="st0" d="M67.33-10.05c0.02,0.32-0.09,0.59-0.32,0.8c-0.59,0.54-1.17,1.08-1.78,1.59c-0.7,0.58-1.62,0.27-1.88-0.61
		c-0.12-0.42-0.02-0.76,0.3-1.05c0.59-0.53,1.17-1.07,1.76-1.61c0.35-0.32,0.74-0.52,1.22-0.32C67.06-11.06,67.33-10.59,67.33-10.05
		z"/>
	<path class="st0" d="M56.25-14.71c0.09-0.25,0.15-0.51,0.28-0.74c0.39-0.68,0.95-1.22,1.57-1.69c0.32-0.25,0.69-0.28,1.07-0.09
		c0.39,0.2,0.62,0.52,0.64,0.97c0.01,0.39-0.08,0.75-0.35,1.04c-0.42,0.45-0.84,0.9-1.26,1.35c-0.33,0.35-0.71,0.5-1.18,0.31
		C56.57-13.73,56.3-14.16,56.25-14.71z"/>
</g>
</svg>
