<?xml version="1.0" encoding="utf-8"?>
<!-- Generator: Adobe Illustrator 24.2.3, SVG Export Plug-In . SVG Version: 6.00 Build 0)  -->
<svg version="1.1" id="Layer_1" xmlns="http://www.w3.org/2000/svg" xmlns:xlink="http://www.w3.org/1999/xlink" x="0px" y="0px"
	 viewBox="0 0 24 24" style="enable-background:new 0 0 24 24;" xml:space="preserve">
<style type="text/css">
	.st0{fill:#FAEBC8;}
	.st1{fill:#C32D25;}
	.st2{fill:#E76D1B;}
</style>
<path class="st0" d="M40.41,0.35L40.41,0.35c-1.37,0-2.48-1.11-2.48-2.48v0c0-1.37,1.11-2.48,2.48-2.48h0
	c1.37,0,2.48,1.11,2.48,2.48v0C42.89-0.76,41.78,0.35,40.41,0.35z"/>
<path class="st1" d="M47.97,0.35L47.97,0.35c-1.37,0-2.48-1.11-2.48-2.48v0c0-1.37,1.11-2.48,2.48-2.48h0
	c1.37,0,2.48,1.11,2.48,2.48v0C50.44-0.76,49.33,0.35,47.97,0.35z"/>
<path class="st2" d="M55.52,0.35L55.52,0.35c-1.37,0-2.48-1.11-2.48-2.48v0c0-1.37,1.11-2.48,2.48-2.48h0C56.89-4.61,58-3.5,58-2.13
	v0C58-0.76,56.89,0.35,55.52,0.35z"/>
<path class="st1" d="M18.57,23c-1.32,0-2.64,0-3.95,0c-0.4-0.17-0.51-0.47-0.51-0.89c0.01-1.65,0.01-3.29,0.01-4.94
	c0-0.54-0.39-1.02-0.93-1.05c-0.69-0.04-1.39-0.01-2.08-0.04c-0.69-0.03-1.25,0.45-1.24,1.24c0.03,1.6,0,3.19,0.01,4.79
	c0,0.41-0.1,0.73-0.5,0.89c-1.3,0-2.61,0-3.91,0c-0.03-0.01-0.05-0.03-0.08-0.04c-1.03-0.12-2.05-1.07-2.03-2.46
	c0.03-2.07,0.01-4.14,0.01-6.21c0-0.09,0-0.18,0-0.28c-0.15,0-0.25,0-0.36,0C2.07,14,1.28,13.37,1.06,12.46
	C1.04,12.38,1.02,12.3,1,12.21c0-0.14,0-0.29,0-0.43c0.1-0.71,0.57-1.19,1.05-1.67c2.7-2.69,5.39-5.38,8.08-8.08
	C10.61,1.56,11.08,1.1,11.79,1c0.17,0,0.34,0,0.52,0c0.04,0.02,0.07,0.04,0.11,0.05c0.38,0.08,0.71,0.25,0.99,0.53
	c3.01,3,6.01,6.01,9.02,9.02c0.26,0.26,0.42,0.58,0.52,0.93c0.02,0.07,0.04,0.15,0.07,0.22c0,0.17,0,0.34,0,0.52
	c-0.01,0.02-0.04,0.05-0.04,0.07c-0.27,1.11-0.97,1.67-2.09,1.67c-0.2,0-0.25,0.07-0.25,0.26c0.01,2.14,0.01,4.28,0,6.42
	c0,1.08-0.8,2.04-1.85,2.26C18.71,22.96,18.64,22.98,18.57,23z"/>
</svg>
