<?xml version="1.0" encoding="utf-8"?>
<!-- Generator: Adobe Illustrator 24.2.3, SVG Export Plug-In . SVG Version: 6.00 Build 0)  -->
<svg version="1.1" id="Layer_1" xmlns="http://www.w3.org/2000/svg" xmlns:xlink="http://www.w3.org/1999/xlink" x="0px" y="0px"
	 viewBox="0 0 44 44" style="enable-background:new 0 0 44 44;" xml:space="preserve">
<style type="text/css">
	.st0{fill:#FAEBC8;}
	.st1{fill:#C32D25;}
	.st2{fill:#E76D1B;}
	.st3{fill:#293939;}
</style>
<path class="st0" d="M50.41,10.35L50.41,10.35c-1.37,0-2.48-1.11-2.48-2.48v0c0-1.37,1.11-2.48,2.48-2.48h0
	c1.37,0,2.48,1.11,2.48,2.48v0C52.89,9.24,51.78,10.35,50.41,10.35z"/>
<path class="st1" d="M57.97,10.35L57.97,10.35c-1.37,0-2.48-1.11-2.48-2.48v0c0-1.37,1.11-2.48,2.48-2.48h0
	c1.37,0,2.48,1.11,2.48,2.48v0C60.44,9.24,59.33,10.35,57.97,10.35z"/>
<path class="st2" d="M65.52,10.35L65.52,10.35c-1.37,0-2.48-1.11-2.48-2.48v0c0-1.37,1.11-2.48,2.48-2.48l0,0
	C66.89,5.39,68,6.5,68,7.87v0C68,9.24,66.89,10.35,65.52,10.35z"/>
<g>
	<path class="st1" d="M43.46,19.91c-0.05-0.85-0.06-1.7-0.23-2.53c-0.51-2.47-1.48-4.76-2.8-6.91c-0.13-0.21-0.25-0.44-0.49-0.56
		c-0.27-0.09-0.41,0.12-0.57,0.27c-1.08,1.06-2.14,2.13-3.21,3.2c-0.26,0.26-0.53,0.36-0.9,0.28c-0.75-0.16-1.51-0.32-2.26-0.45
		c-0.19-0.03-0.36-0.07-0.48,0.13c-0.07,0.23,0.09,0.37,0.2,0.53c0.43,0.6,0.83,1.23,1.18,1.88c1.28,2.39,1.74,4.94,1.47,7.62
		c-0.27,2.71-1.3,5.14-3.06,7.23c-2.44,2.89-5.55,4.48-9.32,4.81c-0.3,0.03-0.64-0.01-0.9,0.19c-0.14-0.18-0.35-0.2-0.56-0.2
		c-0.89,0-1.76-0.13-2.61-0.34c-3.41-0.83-6.13-2.69-8.08-5.6c-1.85-2.74-2.53-5.79-2.16-9.07c0.32-2.86,1.47-5.36,3.42-7.46
		c2.53-2.73,5.68-4.2,9.42-4.34c0.2-0.01,0.41,0,0.55-0.17c0.13,0.17,0.33,0.18,0.54,0.17c0.69-0.02,1.36,0.09,2.03,0.22
		c1.98,0.39,3.76,1.2,5.38,2.39c0.18,0.13,0.35,0.34,0.63,0.27c0.19-0.12,0.16-0.3,0.12-0.49c-0.13-0.7-0.25-1.4-0.42-2.09
		c-0.12-0.47-0.01-0.82,0.34-1.16c1.05-1.01,2.07-2.04,3.09-3.08c0.14-0.14,0.36-0.26,0.22-0.52c-0.05-0.03-0.1-0.06-0.14-0.09
		c-2.62-1.72-5.48-2.84-8.59-3.31c-0.53-0.08-1.08-0.07-1.6-0.23c-0.56,0-1.12,0-1.68,0c-0.5,0-1.01,0-1.51,0
		c-0.14,0.09-0.3,0.03-0.45,0.04c-0.86,0.06-1.72,0.06-2.57,0.23c-1.78,0.35-3.48,0.96-5.1,1.77C10.04,3.69,8,5.23,6.21,7.12
		c-1.87,1.98-3.32,4.21-4.34,6.73c-0.59,1.46-1.08,2.96-1.23,4.53c-0.07,0.64-0.05,1.29-0.14,1.94c0,1.06,0,2.13,0,3.19
		c0.08,0.13,0.04,0.27,0.04,0.41c0.05,1.31,0.15,2.6,0.51,3.87c1.14,3.98,3.21,7.37,6.26,10.18c1.83,1.69,3.87,3.03,6.15,4
		c1.7,0.72,3.45,1.3,5.32,1.42c0.71,0.04,1.42,0.02,2.12,0.1c0.36,0,0.73,0,1.09,0c0.53,0,1.06,0,1.6,0
		c0.16-0.09,0.33-0.03,0.49-0.04c0.84-0.05,1.7-0.05,2.53-0.23c4.8-1.04,8.77-3.48,11.97-7.19c1.66-1.93,2.92-4.1,3.8-6.48
		c0.46-1.26,0.87-2.53,0.98-3.88c0.06-0.66,0.06-1.33,0.14-2c0-1.09,0-2.18,0-3.28C43.41,20.25,43.47,20.08,43.46,19.91z"/>
	<path class="st0" d="M35.37,19.23c-0.46-2.18-1.41-4.12-2.78-5.87c-0.02-0.04-0.05-0.06-0.09-0.08c-0.21-0.03-0.34,0.09-0.47,0.22
		c-1.61,1.61-3.23,3.22-4.83,4.83c-0.12,0.12-0.25,0.23-0.21,0.43c0.04,0.16,0.07,0.32,0.14,0.48c0.99,1.98,0.97,3.95-0.2,5.84
		c-0.99,1.59-2.44,2.51-4.32,2.69c-0.22,0.02-0.44,0.03-0.57,0.23c-0.18-0.19-0.45-0.2-0.7-0.23c-3.14-0.35-5.5-3.21-5.09-6.44
		c0.26-2.04,1.32-3.56,3.16-4.51c0.6-0.31,1.24-0.49,1.91-0.59c0.25-0.04,0.54-0.02,0.72-0.22c0.13,0.2,0.36,0.21,0.58,0.22
		c0.54,0.02,1.04,0.17,1.54,0.35c0.37,0.13,0.69,0.36,1.08,0.43c0.22,0.04,0.34-0.12,0.46-0.24c1.6-1.58,3.19-3.18,4.77-4.77
		c0.14-0.14,0.28-0.28,0.25-0.5c-0.02-0.04-0.04-0.07-0.08-0.09c-0.06-0.04-0.11-0.08-0.17-0.12c-1.99-1.54-4.21-2.5-6.72-2.83
		c-0.58-0.08-1.17,0.04-1.74-0.14c0,0.02,0,0.04-0.01,0.06c-0.77-0.04-1.53,0.05-2.3,0.17C13.67,9.53,8.86,14.7,8.42,20.78
		c-0.36,4.93,1.42,8.99,5.32,12.05c2.41,1.89,5.18,2.82,8.26,2.78c0.01,0.02,0.01,0.04,0.01,0.06c0.32,0.01,0.63-0.04,0.95-0.06
		c2.17-0.14,4.17-0.79,6.04-1.89C33.96,30.81,36.56,24.88,35.37,19.23z"/>
	<path class="st2" d="M30.67,11.51c-0.01-0.03-0.02-0.06-0.03-0.1c-0.18-0.93-0.34-1.86-0.54-2.79c-0.07-0.34-0.01-0.56,0.24-0.81
		c1.24-1.22,2.45-2.45,3.67-3.68c0.83-0.88,1.66-1.76,2.49-2.64c0.05,0.03,0.11,0.07,0.16,0.1c0.18,0.86,0.36,1.72,0.53,2.58
		c0.12,0.6,0.25,1.2,0.34,1.8c0.05,0.33,0.23,0.44,0.54,0.5c1.44,0.27,2.88,0.57,4.4,0.87c-0.89,0.91-1.75,1.78-2.6,2.65
		c-1.23,1.22-2.47,2.44-3.68,3.67c-0.25,0.25-0.47,0.31-0.81,0.24c-0.93-0.2-1.86-0.36-2.79-0.54c-0.03-0.01-0.07-0.02-0.1-0.03
		c-0.17,0-0.32-0.07-0.45-0.19c-0.4-0.39-0.79-0.79-1.18-1.18C30.74,11.83,30.68,11.68,30.67,11.51z"/>
	<path class="st1" d="M27.09,18.73c-0.26-0.13-0.38,0.1-0.52,0.23c-0.81,0.79-1.59,1.6-2.4,2.39c-0.34,0.34-0.39,0.33-0.74-0.01
		c-0.32-0.31-0.62-0.64-0.95-0.94c-0.07-0.07-0.15-0.16-0.24-0.19c0-0.03,0-0.05-0.01-0.08c-0.01-0.05-0.03-0.1-0.05-0.15
		c1.03-1.03,2.06-2.05,3.08-3.08c-0.81-0.45-1.65-0.83-2.59-0.89c0,0,0,0,0,0c0,0,0,0,0,0c-0.22-0.12-0.46-0.05-0.68-0.08
		c-0.33,0.04-0.67,0.06-1,0.11c-2.52,0.42-4.52,2.42-4.94,4.94c-0.42,2.49,0.77,4.98,2.98,6.25c0.92,0.53,1.92,0.73,2.96,0.81
		c0.23-0.03,0.46,0.04,0.68-0.08c2.86-0.21,5.3-2.85,5.36-5.79C28.07,20.94,27.72,19.8,27.09,18.73z"/>
	<path class="st3" d="M30.67,11.51c-1.8,1.8-3.6,3.6-5.4,5.4c-0.25,0.03-0.43,0.16-0.6,0.34c-0.7,0.71-1.41,1.42-2.13,2.13
		c-0.23,0.23-0.43,0.47-0.53,0.79c0,0.03,0,0.06,0,0.1c0.46,0.45,0.91,0.9,1.37,1.35c0.41,0.41,0.41,0.41,0.83-0.01
		c0.96-0.95,1.92-1.9,2.87-2.85c1.8-1.8,3.6-3.6,5.4-5.4C31.91,12.7,31.3,12.09,30.67,11.51z"/>
</g>
</svg>
