<?xml version="1.0" encoding="utf-8"?>
<!-- Generator: Adobe Illustrator 24.2.3, SVG Export Plug-In . SVG Version: 6.00 Build 0)  -->
<svg version="1.1" id="Layer_1" xmlns="http://www.w3.org/2000/svg" xmlns:xlink="http://www.w3.org/1999/xlink" x="0px" y="0px"
	 viewBox="0 0 20 20" style="enable-background:new 0 0 20 20;" xml:space="preserve">
<style type="text/css">
	.st0{fill:#FAEBC8;}
	.st1{fill:#C32D25;}
	.st2{fill:#E76D1B;}
</style>
<path class="st0" d="M38.41-1.65L38.41-1.65c-1.37,0-2.48-1.11-2.48-2.48l0,0c0-1.37,1.11-2.48,2.48-2.48l0,0
	c1.37,0,2.48,1.11,2.48,2.48l0,0C40.89-2.76,39.78-1.65,38.41-1.65z"/>
<path class="st1" d="M45.97-1.65L45.97-1.65c-1.37,0-2.48-1.11-2.48-2.48l0,0c0-1.37,1.11-2.48,2.48-2.48l0,0
	c1.37,0,2.48,1.11,2.48,2.48l0,0C48.44-2.76,47.33-1.65,45.97-1.65z"/>
<path class="st2" d="M53.52-1.65L53.52-1.65c-1.37,0-2.48-1.11-2.48-2.48l0,0c0-1.37,1.11-2.48,2.48-2.48l0,0
	C54.89-6.61,56-5.5,56-4.13l0,0C56-2.76,54.89-1.65,53.52-1.65z"/>
<g>
	<path class="st0" d="M8.82,8.33L8.82,8.33c-1.95,0-3.53-1.58-3.53-3.53l0,0c0-1.95,1.58-3.53,3.53-3.53l0,0
		c1.95,0,3.53,1.58,3.53,3.53l0,0C12.34,6.75,10.77,8.33,8.82,8.33z"/>
	<path class="st1" d="M14.97,17.96H0.94c-0.56,0-1.01-0.48-0.94-1.04c0.51-4.41,4.25-7.84,8.81-7.84c2.26,0,4.34,0.85,5.9,2.24
		c0.15,0.14,0.3,0.27,0.45,0.43c-1.33,0.43-2.3,1.67-2.3,3.15C12.86,16.29,13.75,17.49,14.97,17.96z"/>
	<path class="st1" d="M17.29,15.32h-0.71v1.87h-0.85v-1.87h-1.87v-0.86h1.87v-1.87h0.15c0.26,0.34,0.5,0.7,0.71,1.08v0.79h0.39
		C17.09,14.74,17.2,15.03,17.29,15.32z"/>
	<g>
		<path class="st0" d="M16.15,11.05c-0.51,0-1,0.1-1.45,0.27c-1.41,0.57-2.4,1.95-2.4,3.56c0,1.26,0.61,2.37,1.55,3.07
			c0.64,0.48,1.44,0.77,2.3,0.77c2.12,0,3.85-1.72,3.85-3.85S18.28,11.05,16.15,11.05z M16.15,18.19c-0.42,0-0.82-0.07-1.18-0.23
			c-1.23-0.47-2.12-1.67-2.12-3.07c0-1.46,0.97-2.71,2.3-3.15c0.32-0.1,0.65-0.15,1-0.15c1.82,0,3.3,1.48,3.3,3.3
			S17.97,18.19,16.15,18.19z"/>
	</g>
	<polygon class="st0" points="18.46,14.45 18.46,15.32 16.59,15.32 16.59,17.19 15.73,17.19 15.73,15.32 13.85,15.32 13.85,14.45 
		15.73,14.45 15.73,12.58 16.59,12.58 16.59,14.45 	"/>
</g>
</svg>
