<?xml version="1.0" encoding="utf-8"?>
<!-- Generator: Adobe Illustrator 24.2.3, SVG Export Plug-In . SVG Version: 6.00 Build 0)  -->
<svg version="1.1" id="Layer_1" xmlns="http://www.w3.org/2000/svg" xmlns:xlink="http://www.w3.org/1999/xlink" x="0px" y="0px"
	 viewBox="0 0 20 20" style="enable-background:new 0 0 20 20;" xml:space="preserve">
<style type="text/css">
	.st0{fill:#FAEBC8;}
	.st1{fill:#C32D25;}
	.st2{fill:#E76D1B;}
</style>
<path class="st0" d="M38.41-1.65L38.41-1.65c-1.37,0-2.48-1.11-2.48-2.48v0c0-1.37,1.11-2.48,2.48-2.48h0
	c1.37,0,2.48,1.11,2.48,2.48v0C40.89-2.76,39.78-1.65,38.41-1.65z"/>
<path class="st1" d="M45.97-1.65L45.97-1.65c-1.37,0-2.48-1.11-2.48-2.48v0c0-1.37,1.11-2.48,2.48-2.48h0
	c1.37,0,2.48,1.11,2.48,2.48v0C48.44-2.76,47.33-1.65,45.97-1.65z"/>
<path class="st2" d="M53.52-1.65L53.52-1.65c-1.37,0-2.48-1.11-2.48-2.48v0c0-1.37,1.11-2.48,2.48-2.48h0C54.89-6.61,56-5.5,56-4.13
	v0C56-2.76,54.89-1.65,53.52-1.65z"/>
<g>
	<path class="st2" d="M5.09,19.74c-0.29-0.09-0.59-0.15-0.86-0.27c-1.66-0.76-2.17-2.88-1.04-4.32c0.04-0.05,0.08-0.09,0.12-0.14
		c0.15,0.24,0.27,0.49,0.43,0.71c0.78,1.06,2.35,1.36,3.46,0.71c0.28-0.17,0.57-0.34,0.89-0.53c0.06,0.25,0.13,0.48,0.16,0.71
		c0.15,1.51-0.9,2.85-2.4,3.08c-0.04,0.01-0.07,0.02-0.11,0.03C5.53,19.74,5.31,19.74,5.09,19.74z"/>
	<path class="st1" d="M5.36,9.77c0.17,0.4,0.34,0.78,0.51,1.18c-0.43,0.26-0.82,0.5-1.22,0.73c-0.52,0.29-0.94,0.66-1.19,1.21
		c-0.01,0.02-0.02,0.03-0.04,0.06c-0.12-0.24-0.24-0.47-0.35-0.69c-0.27-0.54-0.54-1.08-0.81-1.61c-0.36-0.71-0.33-1.4,0.08-2.08
		c0.54-0.89,1.07-1.78,1.6-2.67C4.2,5.43,4.58,5.11,5.09,4.93C6.34,4.46,7.6,3.99,8.85,3.51C9,3.46,9.11,3.46,9.25,3.53
		c2.15,1.08,4.3,2.16,6.45,3.23c0.06,0.03,0.11,0.06,0.18,0.1c-0.17,0.37-0.34,0.73-0.52,1.09c-0.61,1.22-1.24,2.43-2.07,3.51
		c-0.85,1.1-1.9,1.96-3.22,2.43c-0.53,0.19-0.99,0.49-1.47,0.77c-0.58,0.34-1.15,0.69-1.73,1.03c-1.18,0.69-2.64,0.01-2.87-1.33
		c-0.12-0.71,0.21-1.48,0.82-1.85c0.86-0.53,1.74-1.04,2.6-1.56c0.05-0.03,0.1-0.07,0.12-0.12c0.26-0.59,0.63-1.11,1.02-1.62
		c0.02-0.03,0.04-0.06,0.05-0.07C8.13,8.96,7.66,8.77,7.16,8.58C6.66,9.1,6.01,9.47,5.36,9.77z"/>
	<path class="st1" d="M18,4.14c0,0.29,0,0.57,0,0.86c-0.01,0.97-0.92,1.54-1.79,1.11c-2.02-1-4.03-2.01-6.04-3.02
		c-0.32-0.16-0.37-0.42-0.15-0.7c0.51-0.64,1.02-1.28,1.53-1.91c0.19-0.23,0.32-0.26,0.6-0.15c1.85,0.79,3.7,1.58,5.54,2.37
		C17.91,2.79,18,2.94,18,3.17C17.99,3.5,18,3.82,18,4.14z"/>
</g>
</svg>
