<?xml version="1.0" encoding="utf-8"?>
<!-- Generator: Adobe Illustrator 24.2.3, SVG Export Plug-In . SVG Version: 6.00 Build 0)  -->
<svg version="1.1" id="Layer_1" xmlns="http://www.w3.org/2000/svg" xmlns:xlink="http://www.w3.org/1999/xlink" x="0px" y="0px"
	 viewBox="0 0 38 38" style="enable-background:new 0 0 38 38;" xml:space="preserve">
<style type="text/css">
	.st0{fill:#FAEBC8;}
	.st1{fill:#C32D25;}
	.st2{fill:#E76D1B;}
</style>
<g>
	<path class="st0" d="M23.91,29.16c0.1,0.01,0.16,0.01,0.22,0.02c0.61,0.01,0.69,0.09,0.69,0.72c0,2.24,0,4.47,0,6.71
		c0,0.56-0.18,0.7-0.72,0.54c-3.53-1.01-7.05-2.02-10.58-3.04c-0.47-0.13-0.52-0.2-0.52-0.69c0-1.18,0-2.36,0-3.54
		c0-0.61,0.08-0.69,0.68-0.7c0.06,0,0.11-0.01,0.23-0.01c0-0.35-0.03-0.69,0.01-1.03c0.04-0.45-0.1-0.8-0.4-1.14
		c-2.16-2.5-3.08-5.43-3.01-8.71c0.05-2.03,0.06-4.07,0.11-6.1c0.04-1.59,1.62-2.51,3.03-1.79c0.06,0.03,0.12,0.06,0.2,0.1
		c0.14-0.73,0.51-1.29,1.2-1.58c0.69-0.29,1.34-0.19,1.98,0.24c0.27-0.6,0.67-1.05,1.3-1.25c0.62-0.2,1.2-0.09,1.79,0.25
		c0-0.15,0-0.25,0-0.36c0-1.59,0-3.18,0-4.76c0-0.97,0.53-1.75,1.4-2.08c0.81-0.31,1.75-0.1,2.35,0.54
		c0.41,0.44,0.59,0.97,0.59,1.56c0,2.67,0,5.35-0.01,8.02c0,0.24,0.06,0.36,0.3,0.46c1.25,0.54,1.99,1.54,2.39,2.8
		c0.44,1.39,0.42,2.81,0.27,4.23c-0.2,1.89-0.68,3.71-1.28,5.5c-0.42,1.25-1.16,2.32-2,3.32c-0.15,0.17-0.22,0.34-0.21,0.57
		C23.92,28.34,23.91,28.74,23.91,29.16z M14.79,29.15c2.77,0,5.5,0,8.27,0c0-0.54-0.02-1.05,0.01-1.56
		c0.01-0.19,0.11-0.41,0.24-0.56c0.76-0.91,1.48-1.86,1.89-2.98c0.79-2.21,1.37-4.48,1.45-6.85c0.04-1.12-0.05-2.24-0.58-3.25
		c-0.58-1.11-1.4-1.88-2.78-1.72c-0.14,0.02-0.29,0-0.44,0.01c-1.01,0.03-2.01,0.06-3.02,0.11c-0.76,0.04-1.08,0.59-0.68,1.24
		c0.21,0.34,0.51,0.67,0.84,0.9c1.16,0.84,2.46,1.37,3.89,1.57c0.19,0.03,0.38,0.06,0.57,0.1c0.2,0.04,0.36,0.15,0.39,0.37
		c0.02,0.22-0.09,0.36-0.28,0.46c-1.81,1-3.26,2.42-4.47,4.08c-0.32,0.44-0.58,0.91-0.9,1.35c-0.09,0.12-0.29,0.24-0.42,0.22
		c-0.14-0.02-0.31-0.17-0.36-0.31c-0.05-0.11,0.03-0.3,0.1-0.43c0.75-1.29,1.66-2.45,2.73-3.49c0.09-0.09,0.22-0.16,0.33-0.23
		c-0.35-0.24-0.62-0.42-0.9-0.61c-0.46,0.63-1.08,0.97-1.87,0.9c-0.8-0.06-1.35-0.52-1.72-1.21c-0.53,0.39-1.09,0.52-1.7,0.39
		c-0.62-0.14-1.05-0.54-1.36-1.09c-0.85,0.63-1.7,0.64-2.59,0.11c-0.01,0.13-0.03,0.22-0.03,0.31c-0.01,0.61-0.02,1.22-0.02,1.83
		c-0.01,2.98,0.96,5.61,2.96,7.83c0.32,0.35,0.47,0.71,0.45,1.17C14.78,28.24,14.79,28.69,14.79,29.15z M23.94,36.23
		c0-2.08,0-4.12,0-6.17c-3.36,0-6.7,0-10.08,0c0,0.12,0,0.23,0,0.33c0,0.87,0.01,1.74-0.01,2.61c-0.01,0.26,0.09,0.34,0.32,0.41
		c2.2,0.62,4.39,1.26,6.58,1.89C21.81,35.61,22.85,35.91,23.94,36.23z M23.59,11.38c0-0.19,0-0.3,0-0.41c0-2.08,0-4.17,0-6.25
		c0-0.6,0.01-1.2-0.01-1.8c-0.01-0.49-0.22-0.88-0.68-1.1c-0.94-0.46-1.92,0.15-1.93,1.21c0,2.72,0,5.44,0,8.17
		c0,0.07,0.01,0.15,0.02,0.19C21.87,11.38,22.71,11.38,23.59,11.38z M16.93,13.26C16.93,13.26,16.93,13.26,16.93,13.26
		c0-0.84,0.01-1.68,0-2.53c-0.01-0.64-0.48-1.12-1.09-1.13c-0.61-0.01-1.11,0.47-1.12,1.1c-0.01,1.68-0.01,3.37,0,5.05
		c0,0.5,0.27,0.84,0.71,0.99c0.77,0.27,1.48-0.21,1.5-1.02C16.94,14.9,16.93,14.08,16.93,13.26z M20.12,11.43c0-0.53,0-1.04,0-1.56
		c0-0.11,0-0.21-0.02-0.32c-0.09-0.41-0.34-0.69-0.74-0.82C18.53,8.46,17.79,9,17.79,9.87c-0.01,2.18,0,4.35,0,6.53
		c0,0.11,0.01,0.21,0.03,0.32c0.1,0.49,0.46,0.8,1,0.87c0.48,0.06,1.03-0.16,1.16-0.59c0.12-0.41,0.14-0.87,0.1-1.31
		c-0.01-0.15-0.31-0.27-0.49-0.41c-0.11-0.08-0.22-0.16-0.32-0.24c-0.54-0.44-0.96-0.95-1.1-1.66c-0.19-0.95,0.31-1.7,1.26-1.88
		C19.65,11.48,19.87,11.46,20.12,11.43z M13.85,13.61C13.85,13.61,13.85,13.61,13.85,13.61c0-0.23,0-0.46,0-0.7
		c0-0.24,0.01-0.48,0-0.73c-0.03-0.69-0.53-1.19-1.18-1.19c-0.66,0-1.19,0.5-1.2,1.2c-0.02,0.94-0.02,1.88,0,2.82
		c0.02,0.72,0.52,1.17,1.22,1.16c0.68-0.01,1.15-0.48,1.16-1.19C13.86,14.52,13.85,14.06,13.85,13.61z M23.1,16.82
		c-0.69-0.23-1.38-0.46-2.08-0.69c-0.05,0.43,0.25,0.91,0.71,1.12C22.26,17.49,22.57,17.39,23.1,16.82z"/>
	<path class="st1" d="M14.79,29.15c0-0.46-0.01-0.91,0-1.35c0.01-0.46-0.14-0.82-0.45-1.17c-2-2.22-2.96-4.84-2.96-7.83
		c0-0.61,0.01-1.22,0.02-1.83c0-0.09,0.02-0.18,0.03-0.31c0.9,0.54,1.75,0.52,2.59-0.11c0.31,0.55,0.73,0.95,1.36,1.09
		c0.61,0.14,1.17,0,1.7-0.39c0.37,0.7,0.92,1.15,1.72,1.21c0.79,0.06,1.4-0.28,1.87-0.9c0.28,0.19,0.55,0.37,0.9,0.61
		c-0.11,0.08-0.24,0.14-0.33,0.23c-1.06,1.04-1.98,2.2-2.73,3.49c-0.07,0.12-0.14,0.31-0.1,0.43c0.05,0.14,0.23,0.29,0.36,0.31
		c0.13,0.01,0.33-0.1,0.42-0.22c0.32-0.44,0.58-0.91,0.9-1.35c1.21-1.66,2.66-3.08,4.47-4.08c0.19-0.11,0.3-0.25,0.28-0.46
		c-0.02-0.23-0.19-0.33-0.39-0.37c-0.19-0.04-0.38-0.07-0.57-0.1c-1.43-0.2-2.73-0.73-3.89-1.57c-0.33-0.24-0.63-0.56-0.84-0.9
		c-0.4-0.65-0.08-1.2,0.68-1.24c1.01-0.05,2.01-0.07,3.02-0.11c0.15,0,0.29,0.01,0.44-0.01c1.38-0.16,2.2,0.61,2.78,1.72
		c0.53,1.02,0.62,2.13,0.58,3.25c-0.08,2.37-0.65,4.64-1.45,6.85c-0.4,1.12-1.13,2.07-1.89,2.98c-0.13,0.15-0.23,0.37-0.24,0.56
		c-0.03,0.51-0.01,1.02-0.01,1.56C20.29,29.15,17.56,29.15,14.79,29.15z"/>
	<path class="st1" d="M23.94,36.23c-1.09-0.31-2.13-0.62-3.18-0.92c-2.19-0.63-4.39-1.27-6.58-1.89c-0.23-0.07-0.33-0.15-0.32-0.41
		c0.02-0.87,0.01-1.74,0.01-2.61c0-0.1,0-0.21,0-0.33c3.37,0,6.71,0,10.08,0C23.94,32.11,23.94,34.14,23.94,36.23z"/>
	<path class="st1" d="M23.59,11.38c-0.88,0-1.72,0-2.59,0c0-0.04-0.02-0.12-0.02-0.19c0-2.72-0.01-5.44,0-8.17
		c0-1.05,0.98-1.67,1.93-1.21c0.46,0.22,0.67,0.61,0.68,1.1c0.01,0.6,0.01,1.2,0.01,1.8c0,2.08,0,4.17,0,6.25
		C23.59,11.08,23.59,11.19,23.59,11.38z"/>
	<path class="st1" d="M16.93,13.26c0,0.82,0.01,1.65,0,2.47c-0.02,0.81-0.73,1.29-1.5,1.02c-0.44-0.15-0.71-0.49-0.71-0.99
		c-0.01-1.68-0.01-3.37,0-5.05c0-0.63,0.51-1.1,1.12-1.1c0.61,0.01,1.08,0.49,1.09,1.13C16.94,11.57,16.93,12.41,16.93,13.26
		C16.93,13.26,16.93,13.26,16.93,13.26z"/>
	<path class="st1" d="M20.12,11.43c-0.25,0.03-0.47,0.04-0.69,0.08c-0.95,0.17-1.45,0.93-1.26,1.88c0.14,0.7,0.56,1.22,1.1,1.66
		c0.11,0.09,0.22,0.16,0.32,0.24c0.17,0.13,0.47,0.26,0.49,0.41c0.03,0.43,0.02,0.89-0.1,1.31c-0.13,0.43-0.68,0.65-1.16,0.59
		c-0.53-0.07-0.89-0.38-1-0.87c-0.02-0.1-0.03-0.21-0.03-0.32c0-2.18-0.01-4.35,0-6.53c0-0.87,0.74-1.41,1.57-1.14
		c0.4,0.13,0.65,0.41,0.74,0.82c0.02,0.1,0.02,0.21,0.02,0.32C20.12,10.39,20.12,10.91,20.12,11.43z"/>
	<path class="st1" d="M13.85,13.61c0,0.46,0.01,0.91,0,1.37c-0.01,0.71-0.47,1.18-1.16,1.19c-0.7,0.01-1.2-0.44-1.22-1.16
		c-0.02-0.94-0.02-1.88,0-2.82c0.01-0.69,0.54-1.2,1.2-1.2c0.65,0,1.15,0.51,1.18,1.19c0.01,0.24,0,0.48,0,0.73
		C13.85,13.14,13.85,13.38,13.85,13.61C13.85,13.61,13.85,13.61,13.85,13.61z"/>
	<path class="st1" d="M23.1,16.82c-0.54,0.57-0.85,0.67-1.37,0.42c-0.46-0.21-0.75-0.68-0.71-1.12
		C21.72,16.36,22.41,16.59,23.1,16.82z"/>
</g>
<path class="st0" d="M41.67-9.05L41.67-9.05c-1.37,0-2.48-1.11-2.48-2.48l0,0c0-1.37,1.11-2.48,2.48-2.48l0,0
	c1.37,0,2.48,1.11,2.48,2.48l0,0C44.15-10.16,43.04-9.05,41.67-9.05z"/>
<path class="st1" d="M49.23-9.05L49.23-9.05c-1.37,0-2.48-1.11-2.48-2.48l0,0c0-1.37,1.11-2.48,2.48-2.48l0,0
	c1.37,0,2.48,1.11,2.48,2.48l0,0C51.7-10.16,50.59-9.05,49.23-9.05z"/>
<path class="st2" d="M56.78-9.05L56.78-9.05c-1.37,0-2.48-1.11-2.48-2.48l0,0c0-1.37,1.11-2.48,2.48-2.48l0,0
	c1.37,0,2.48,1.11,2.48,2.48l0,0C59.26-10.16,58.15-9.05,56.78-9.05z"/>
</svg>
