<?xml version="1.0" encoding="utf-8"?>
<!-- Generator: Adobe Illustrator 24.2.3, SVG Export Plug-In . SVG Version: 6.00 Build 0)  -->
<svg version="1.1" id="Layer_1" xmlns="http://www.w3.org/2000/svg" xmlns:xlink="http://www.w3.org/1999/xlink" x="0px" y="0px"
	 viewBox="0 0 20 20" style="enable-background:new 0 0 20 20;" xml:space="preserve">
<style type="text/css">
	.st0{fill:#FAEBC8;}
	.st1{fill:#C32D25;}
	.st2{fill:#E76D1B;}
</style>
<path class="st0" d="M32.7-18L32.7-18c-1.4,0-2.5-1.1-2.5-2.5l0,0c0-1.4,1.1-2.5,2.5-2.5l0,0c1.4,0,2.5,1.1,2.5,2.5l0,0
	C35.2-19.2,34-18,32.7-18z"/>
<path class="st1" d="M40.2-18L40.2-18c-1.4,0-2.5-1.1-2.5-2.5l0,0c0-1.4,1.1-2.5,2.5-2.5l0,0c1.4,0,2.5,1.1,2.5,2.5l0,0
	C42.7-19.2,41.6-18,40.2-18z"/>
<path class="st2" d="M47.8-18L47.8-18c-1.4,0-2.5-1.1-2.5-2.5l0,0c0-1.4,1.1-2.5,2.5-2.5l0,0c1.4,0,2.5,1.1,2.5,2.5l0,0
	C50.3-19.2,49.2-18,47.8-18z"/>
<path class="st1" d="M2.4,9.2c-0.3,0-0.6,0-0.8,0c-0.5,0-0.8-0.2-1-0.6c-0.2-0.5,0-0.8,0.4-1.1c1-0.8,2-1.6,2.9-2.3
	c1.8-1.4,3.6-2.8,5.3-4.3c0.6-0.5,1-0.5,1.6,0c2.7,2.2,5.4,4.3,8.1,6.5c0.4,0.3,0.7,0.7,0.5,1.3c-0.2,0.5-0.6,0.6-1.1,0.6
	c-0.2,0-0.4,0-0.7,0c0,0.2,0,0.4,0,0.7c0,2.8,0,5.6,0,8.4c0,0.9-0.3,1.2-1.2,1.2c-1.1,0-2.2,0-3.3,0c-0.8,0-1.2-0.3-1.2-1.2
	c0-0.9,0-1.8,0-2.7c0-1.2-0.8-2-1.9-2c-1.1,0-1.9,0.8-1.9,2c0,0.9,0,1.8,0,2.7c0,0.8-0.3,1.2-1.2,1.2c-1.1,0-2.3,0-3.4,0
	c-0.8,0-1.1-0.4-1.1-1.1c0-2.8,0-5.6,0-8.5C2.4,9.7,2.4,9.5,2.4,9.2z"/>
</svg>
