<?xml version="1.0" encoding="utf-8"?>
<!-- Generator: Adobe Illustrator 24.2.3, SVG Export Plug-In . SVG Version: 6.00 Build 0)  -->
<svg version="1.1" id="Layer_1" xmlns="http://www.w3.org/2000/svg" xmlns:xlink="http://www.w3.org/1999/xlink" x="0px" y="0px"
	 viewBox="0 0 38 38" style="enable-background:new 0 0 38 38;" xml:space="preserve">
<style type="text/css">
	.st0{fill:#FAEBC8;}
	.st1{fill:#C32D25;}
	.st2{fill:#E76D1B;}
</style>
<path class="st0" d="M41.67-9.05L41.67-9.05c-1.37,0-2.48-1.11-2.48-2.48l0,0c0-1.37,1.11-2.48,2.48-2.48l0,0
	c1.37,0,2.48,1.11,2.48,2.48l0,0C44.15-10.16,43.04-9.05,41.67-9.05z"/>
<path class="st1" d="M49.23-9.05L49.23-9.05c-1.37,0-2.48-1.11-2.48-2.48l0,0c0-1.37,1.11-2.48,2.48-2.48l0,0
	c1.37,0,2.48,1.11,2.48,2.48l0,0C51.7-10.16,50.59-9.05,49.23-9.05z"/>
<path class="st2" d="M56.78-9.05L56.78-9.05c-1.37,0-2.48-1.11-2.48-2.48l0,0c0-1.37,1.11-2.48,2.48-2.48l0,0
	c1.37,0,2.48,1.11,2.48,2.48l0,0C59.26-10.16,58.15-9.05,56.78-9.05z"/>
<g>
	<path class="st1" d="M8.65,33.12c-2.92-0.7-5.53-1.33-8.15-1.96c0.04-0.2,0.09-0.41,0.13-0.61c2.02,0.43,4.04,0.87,6.19,1.33
		C-2.84,21.56,2.04,8.92,9.09,4.24c6.8-4.52,15.88-3.36,19.24,0.04C16.71-0.4,7.65,1.82,2.9,14.12c-2.34,6.05,0.28,13.96,5.22,17.41
		c0-2.43,0-4.64,0-6.85c0.18,0.01,0.36,0.02,0.54,0.03C8.65,27.41,8.65,30.11,8.65,33.12z"/>
	<path class="st1" d="M29.91,6.43c0,2.55,0,4.73,0,6.91c-0.17-0.01-0.34-0.02-0.51-0.02c0-2.71,0-5.42,0-8.34
		c2.83,0.67,5.47,1.29,8.1,1.91c-0.04,0.21-0.08,0.42-0.12,0.63c-0.99-0.21-1.97-0.42-2.96-0.63c-1.01-0.22-2.02-0.44-3.48-0.77
		c4.41,4.52,6.32,9.61,5.5,15.47c-0.83,5.92-3.96,10.38-9.26,13.22c-5.59,2.99-15.63,2.38-17.42-1.04
		c10.62,4.52,19.36,2.81,24.73-8.06C37.68,19.25,35.55,11.01,29.91,6.43z"/>
	<path class="st1" d="M18.73,13.74c1.42-0.77,2.6-1.75,3.94-2.08c3.22-0.79,6.48,1.91,6.1,5.25c-0.23,2.05-0.96,4.34-2.23,5.89
		c-1.91,2.32-4.47,4.12-6.8,6.07c-0.28,0.24-1.01,0.28-1.33,0.08c-2.96-1.83-5.79-3.87-7.58-6.94c-0.78-1.34-1.33-2.9-1.61-4.43
		c-0.44-2.41,0.88-4.64,2.97-5.6c2.07-0.95,4.37-0.48,6.08,1.25C18.51,13.48,18.72,13.73,18.73,13.74z M19.01,16.01
		c-0.28-0.55-0.45-0.94-0.66-1.31c-1.07-1.93-3.14-2.8-5.2-2.19c-2.06,0.61-3.44,2.48-3.18,4.65c0.15,1.27,0.51,2.58,1.09,3.72
		c1.61,3.2,4.4,5.29,7.35,7.16c0.32,0.2,1.05,0.15,1.34-0.09c2.12-1.77,4.41-3.43,6.18-5.53c1.13-1.34,1.71-3.31,2.09-5.09
		c0.47-2.2-1.01-4.17-3.14-4.81c-2.05-0.62-4.12,0.25-5.2,2.19C19.46,15.07,19.29,15.46,19.01,16.01z"/>
	<path class="st0" d="M19.01,16.01c0.28-0.55,0.46-0.94,0.66-1.32c1.08-1.94,3.15-2.81,5.2-2.19c2.13,0.64,3.61,2.61,3.14,4.81
		c-0.38,1.78-0.96,3.75-2.09,5.09c-1.76,2.09-4.05,3.75-6.18,5.53c-0.29,0.24-1.03,0.29-1.34,0.09c-2.95-1.86-5.74-3.95-7.35-7.16
		c-0.57-1.14-0.93-2.45-1.09-3.72c-0.26-2.18,1.11-4.04,3.18-4.65c2.06-0.61,4.13,0.26,5.2,2.19
		C18.56,15.07,18.73,15.46,19.01,16.01z M14.01,22.48c-1.94-2.99-1.94-2.99-1.97-7.71C10.24,16.45,11.22,21.3,14.01,22.48z"/>
	<path class="st1" d="M14.01,22.48c-2.79-1.18-3.78-6.04-1.97-7.71C12.07,19.49,12.07,19.49,14.01,22.48z"/>
</g>
</svg>
