<?xml version="1.0" encoding="utf-8"?>
<!-- Generator: Adobe Illustrator 24.2.3, SVG Export Plug-In . SVG Version: 6.00 Build 0)  -->
<svg version="1.1" id="Layer_1" xmlns="http://www.w3.org/2000/svg" xmlns:xlink="http://www.w3.org/1999/xlink" x="0px" y="0px"
	 viewBox="0 0 18 18" style="enable-background:new 0 0 18 18;" xml:space="preserve">
<style type="text/css">
	.st0{fill:#FAEBC8;}
	.st1{fill:#C32D25;}
	.st2{fill:#E76D1B;}
</style>
<path class="st0" d="M31.67-19.05L31.67-19.05c-1.37,0-2.48-1.11-2.48-2.48l0,0c0-1.37,1.11-2.48,2.48-2.48l0,0
	c1.37,0,2.48,1.11,2.48,2.48l0,0C34.15-20.16,33.04-19.05,31.67-19.05z"/>
<path class="st1" d="M39.23-19.05L39.23-19.05c-1.37,0-2.48-1.11-2.48-2.48l0,0c0-1.37,1.11-2.48,2.48-2.48l0,0
	c1.37,0,2.48,1.11,2.48,2.48l0,0C41.7-20.16,40.59-19.05,39.23-19.05z"/>
<path class="st2" d="M46.78-19.05L46.78-19.05c-1.37,0-2.48-1.11-2.48-2.48l0,0c0-1.37,1.11-2.48,2.48-2.48l0,0
	c1.37,0,2.48,1.11,2.48,2.48l0,0C49.26-20.16,48.15-19.05,46.78-19.05z"/>
<g>
	<path class="st1" d="M8.96,0.51c4.7-0.03,8.51,3.74,8.54,8.47c0.04,5.25-4.87,9.49-10.34,8.31c-3.57-0.77-6.3-3.86-6.62-7.5
		C0.09,4.75,4,0.55,8.96,0.51z M7.49,7.51c0.25-0.23,0.5-0.43,0.7-0.67c0.24-0.27,0.2-0.7-0.05-0.96C7.79,5.52,7.43,5.16,7.06,4.81
		c-0.28-0.26-0.71-0.25-1-0.01c-1.1,0.91-1.35,2.02-0.63,3.27c1.04,1.82,2.5,3.24,4.33,4.24c0.84,0.46,1.89,0.48,2.72-0.01
		c0.84-0.49,1.06-0.97,0.6-1.46c-0.34-0.35-0.68-0.69-1.03-1.03c-0.3-0.29-0.79-0.3-1.09,0c-0.19,0.19-0.37,0.4-0.57,0.61
		C9.25,9.64,8.28,8.72,7.49,7.51z"/>
	<path class="st0" d="M7.49,7.51c0.79,1.21,1.77,2.13,2.91,2.91c0.2-0.21,0.38-0.42,0.57-0.61c0.29-0.3,0.79-0.29,1.09,0
		c0.35,0.34,0.69,0.68,1.03,1.03c0.27,0.28,0.26,0.73,0,1.01c-1.06,1.13-1.7,1.3-3.08,0.58c-1.94-1-3.49-2.47-4.57-4.37
		C4.71,6.81,4.97,5.71,6.06,4.8c0.29-0.24,0.73-0.25,1,0.01c0.37,0.35,0.73,0.71,1.08,1.07c0.25,0.26,0.29,0.68,0.05,0.96
		C7.98,7.08,7.74,7.28,7.49,7.51z"/>
</g>
</svg>
