<?xml version="1.0" encoding="utf-8"?>
<!-- Generator: Adobe Illustrator 24.2.3, SVG Export Plug-In . SVG Version: 6.00 Build 0)  -->
<svg version="1.1" id="Layer_1" xmlns="http://www.w3.org/2000/svg" xmlns:xlink="http://www.w3.org/1999/xlink" x="0px" y="0px"
	 viewBox="0 0 18 18" style="enable-background:new 0 0 18 18;" xml:space="preserve">
<style type="text/css">
	.st0{fill:#FAEBC8;}
	.st1{fill:#C32D25;}
	.st2{fill:#E76D1B;}
</style>
<path class="st0" d="M31.67-19.05L31.67-19.05c-1.37,0-2.48-1.11-2.48-2.48l0,0c0-1.37,1.11-2.48,2.48-2.48l0,0
	c1.37,0,2.48,1.11,2.48,2.48l0,0C34.15-20.16,33.04-19.05,31.67-19.05z"/>
<path class="st1" d="M39.23-19.05L39.23-19.05c-1.37,0-2.48-1.11-2.48-2.48l0,0c0-1.37,1.11-2.48,2.48-2.48l0,0
	c1.37,0,2.48,1.11,2.48,2.48l0,0C41.7-20.16,40.59-19.05,39.23-19.05z"/>
<path class="st2" d="M46.78-19.05L46.78-19.05c-1.37,0-2.48-1.11-2.48-2.48l0,0c0-1.37,1.11-2.48,2.48-2.48l0,0
	c1.37,0,2.48,1.11,2.48,2.48l0,0C49.26-20.16,48.15-19.05,46.78-19.05z"/>
<g>
	<path class="st1" d="M1,15.54c0-1.85,0-3.67,0-5.51c4.47,0,8.93,0,13.42,0c0,1.83,0,3.66,0,5.51C9.95,15.54,5.49,15.54,1,15.54z
		 M7.71,11.05c-0.83,0-1.67,0-2.5,0c-0.07,0-0.16-0.02-0.21,0.01c-0.07,0.04-0.17,0.12-0.17,0.19c0,0.06,0.09,0.15,0.17,0.19
		c0.05,0.03,0.14,0.01,0.21,0.01c1.68,0,3.36,0,5.05,0c0.06,0,0.14,0.02,0.19-0.01c0.07-0.05,0.15-0.13,0.16-0.2
		c0.01-0.05-0.09-0.14-0.15-0.17c-0.06-0.03-0.14-0.01-0.21-0.01C9.39,11.05,8.55,11.05,7.71,11.05z"/>
	<path class="st1" d="M7.38,4.41c0.34-0.3,0.67-0.63,1.04-0.91c0.29-0.22,0.66-0.21,1.01-0.15c1.11,0.2,2.21,0.41,3.32,0.61
		c0.18,0.03,0.28,0.11,0.35,0.29c0.42,1.07,0.85,2.13,1.28,3.22c-0.63,0.33-1.24,0.67-1.87,0.98c-0.25,0.12-0.53,0.21-0.81,0.24
		c-0.24,0.03-0.51,0.03-0.73-0.05c-0.72-0.26-1.43-0.2-2.15-0.03c-0.55,0.13-1.1,0.24-1.65,0.35C6.76,9.04,6.42,8.84,6.32,8.47
		c-0.1-0.39,0.1-0.71,0.52-0.85c1.01-0.33,2.01-0.67,3.02-1c0.29-0.1,0.31-0.14,0.23-0.43C10.03,5.96,9.96,5.73,9.9,5.5
		C9.87,5.35,9.78,5.26,9.62,5.27C9.1,5.31,8.67,5.18,8.27,4.82C8.04,4.62,7.71,4.55,7.38,4.41z"/>
	<path class="st1" d="M13.08,3.11c0.59-0.22,1.17-0.43,1.78-0.65c0.71,1.58,1.42,3.16,2.14,4.76c-0.65,0.29-1.28,0.58-1.93,0.87
		C14.4,6.42,13.74,4.78,13.08,3.11z"/>
	<path class="st1" d="M8.97,6.49C8.34,6.7,7.73,6.91,7.11,7.11C7.06,7.13,7,7.14,6.95,7.16C6.1,7.44,5.92,7.67,5.9,8.56
		C5.33,8.42,4.85,7.44,4.95,6.6c0.11-0.99,0.98-1.76,2.01-1.77C7.93,4.82,8.83,5.54,8.97,6.49z"/>
</g>
</svg>
