<?xml version="1.0" encoding="utf-8"?>
<!-- Generator: Adobe Illustrator 24.2.3, SVG Export Plug-In . SVG Version: 6.00 Build 0)  -->
<svg version="1.1" id="Layer_1" xmlns="http://www.w3.org/2000/svg" xmlns:xlink="http://www.w3.org/1999/xlink" x="0px" y="0px"
	 viewBox="0 0 50 50" style="enable-background:new 0 0 50 50;" xml:space="preserve">
<style type="text/css">
	.st0{fill:#FAEBC8;}
	.st1{fill:#C32D25;}
	.st2{fill:#E76D1B;}
</style>
<path class="st0" d="M47.67-3.05L47.67-3.05c-1.37,0-2.48-1.11-2.48-2.48l0,0c0-1.37,1.11-2.48,2.48-2.48l0,0
	c1.37,0,2.48,1.11,2.48,2.48l0,0C50.15-4.16,49.04-3.05,47.67-3.05z"/>
<path class="st1" d="M55.23-3.05L55.23-3.05c-1.37,0-2.48-1.11-2.48-2.48l0,0c0-1.37,1.11-2.48,2.48-2.48l0,0
	c1.37,0,2.48,1.11,2.48,2.48l0,0C57.7-4.16,56.59-3.05,55.23-3.05z"/>
<path class="st2" d="M62.78-3.05L62.78-3.05c-1.37,0-2.48-1.11-2.48-2.48l0,0c0-1.37,1.11-2.48,2.48-2.48l0,0
	c1.37,0,2.48,1.11,2.48,2.48l0,0C65.26-4.16,64.15-3.05,62.78-3.05z"/>
<g>
	<path class="st0" d="M17.8,23.61C12.34,16.63,6.98,9.79,1.62,2.94C1.64,2.9,1.67,2.85,1.69,2.81c7.02,0.83,14.04,1.67,21.16,2.51
		C21.17,11.41,19.51,17.43,17.8,23.61z"/>
	<path class="st0" d="M39.13,27.02c-6.77-1.06-13.55-2.12-20.44-3.2c1.69-6.11,3.36-12.17,5.08-18.41
		c5.2,7.24,10.32,14.35,15.43,21.46C39.18,26.92,39.15,26.97,39.13,27.02z"/>
	<path class="st0" d="M38.35,28.01c-5.61,2.8-11.21,5.59-16.93,8.44c-0.9-3.9-1.78-7.75-2.69-11.71c6.59,1.05,13.09,2.08,19.59,3.11
		C38.34,27.91,38.34,27.96,38.35,28.01z"/>
	<path class="st0" d="M11.35,47.19c2.15-7.55,4.26-14.93,6.4-22.45c0.1,0.25,0.18,0.37,0.21,0.5c1,4.5,2.01,9.01,3,13.51
		c0.07,0.31,0.13,0.58-0.21,0.86c-3.01,2.41-5.99,4.86-8.98,7.29C11.69,46.98,11.59,47.03,11.35,47.19z"/>
	<path class="st0" d="M44.13,16.49c-1.3,3.53-2.55,6.93-3.85,10.47c-2.11-2.92-4.14-5.73-6.25-8.65
		C37.42,17.7,40.7,17.11,44.13,16.49z"/>
	<path class="st0" d="M24.71,35.77c4.86-2.46,9.72-4.92,14.58-7.38c0.04,0.03,0.08,0.06,0.12,0.09c-0.2,0.57-0.38,1.14-0.6,1.7
		c-0.05,0.11-0.23,0.2-0.36,0.25c-4.44,1.79-8.89,3.57-13.33,5.35c-0.12,0.05-0.24,0.07-0.36,0.1
		C24.74,35.85,24.73,35.81,24.71,35.77z"/>
	<path class="st0" d="M48.96,20.87c-1.83,0-3.66,0-5.58,0c0.52-1.42,1.03-2.8,1.49-4.05c1.37,1.29,2.75,2.6,4.13,3.9
		C48.99,20.77,48.97,20.82,48.96,20.87z"/>
	<path class="st0" d="M1.06,6.45c0.67,0,1.34-0.01,2.01,0.01c0.15,0.01,0.34,0.1,0.43,0.22c2.04,2.6,4.08,5.21,6.11,7.83
		c0.02,0.02,0,0.07,0,0.21C6.71,11.98,3.85,9.28,1,6.59C1.02,6.55,1.04,6.5,1.06,6.45z"/>
</g>
</svg>
