<?xml version="1.0" encoding="utf-8"?>
<!-- Generator: Adobe Illustrator 24.2.3, SVG Export Plug-In . SVG Version: 6.00 Build 0)  -->
<svg version="1.1" id="Layer_1" xmlns="http://www.w3.org/2000/svg" xmlns:xlink="http://www.w3.org/1999/xlink" x="0px" y="0px"
	 viewBox="0 0 40 40" style="enable-background:new 0 0 40 40;" xml:space="preserve">
<style type="text/css">
	.st0{fill:#E76D1B;}
	.st1{fill:#FAEBC8;}
	.st2{fill:#C32D25;}
</style>
<path class="st0" d="M2.15,19.95C2.26,9.81,10.37,2.11,20.06,2.15C30.1,2.2,37.88,10.26,37.85,20.02
	c-0.03,10.04-8.08,17.85-17.88,17.81C9.86,37.8,2.17,29.69,2.15,19.95z M19.99,24.76c0.59,0,1.17,0,1.76,0
	c0.32,0,0.52-0.13,0.54-0.48c0.13-1.79,0.26-3.58,0.39-5.37c0.12-1.56,0.24-3.11,0.36-4.67c0.09-1.3,0.23-2.59,0.25-3.89
	c0.03-2.1-2.05-3.67-4.08-3.14c-1.65,0.43-2.61,1.83-2.49,3.66c0.09,1.44,0.21,2.88,0.32,4.32c0.23,3.01,0.46,6.02,0.68,9.02
	c0.03,0.38,0.2,0.54,0.56,0.54C18.85,24.76,19.42,24.76,19.99,24.76z M20,32.9c1.5,0,2.73-1.24,2.73-2.73
	c0.01-1.48-1.25-2.73-2.74-2.73c-1.5,0.01-2.74,1.24-2.73,2.73C17.27,31.67,18.51,32.91,20,32.9z"/>
<path class="st1" d="M19.99,24.76c-0.57,0-1.15,0-1.72,0c-0.36,0-0.53-0.17-0.56-0.54c-0.22-3.01-0.45-6.02-0.68-9.02
	c-0.11-1.44-0.22-2.88-0.32-4.32c-0.12-1.83,0.84-3.23,2.49-3.66c2.03-0.53,4.11,1.03,4.08,3.14c-0.02,1.3-0.16,2.6-0.25,3.89
	c-0.11,1.56-0.24,3.11-0.36,4.67c-0.13,1.79-0.27,3.58-0.39,5.37c-0.02,0.35-0.23,0.48-0.54,0.48
	C21.16,24.76,20.58,24.76,19.99,24.76z"/>
<path class="st1" d="M20,32.9c-1.49,0-2.73-1.23-2.74-2.73c0-1.49,1.23-2.73,2.73-2.73c1.49-0.01,2.75,1.24,2.74,2.73
	C22.73,31.67,21.5,32.9,20,32.9z"/>
<path class="st1" d="M48.41,8.35L48.41,8.35c-1.37,0-2.48-1.11-2.48-2.48v0c0-1.37,1.11-2.48,2.48-2.48h0
	c1.37,0,2.48,1.11,2.48,2.48v0C50.89,7.24,49.78,8.35,48.41,8.35z"/>
<path class="st2" d="M55.97,8.35L55.97,8.35c-1.37,0-2.48-1.11-2.48-2.48v0c0-1.37,1.11-2.48,2.48-2.48h0
	c1.37,0,2.48,1.11,2.48,2.48v0C58.44,7.24,57.33,8.35,55.97,8.35z"/>
<path class="st0" d="M63.52,8.35L63.52,8.35c-1.37,0-2.48-1.11-2.48-2.48v0c0-1.37,1.11-2.48,2.48-2.48h0C64.89,3.39,66,4.5,66,5.87
	v0C66,7.24,64.89,8.35,63.52,8.35z"/>
</svg>
