<?xml version="1.0" encoding="utf-8"?>
<!-- Generator: Adobe Illustrator 24.2.3, SVG Export Plug-In . SVG Version: 6.00 Build 0)  -->
<svg version="1.1" id="Layer_1" xmlns="http://www.w3.org/2000/svg" xmlns:xlink="http://www.w3.org/1999/xlink" x="0px" y="0px"
	 viewBox="0 0 24 24" style="enable-background:new 0 0 24 24;" xml:space="preserve">
<style type="text/css">
	.st0{fill:#FAEBC8;}
	.st1{fill:#C32D25;}
	.st2{fill:#E76D1B;}
</style>
<path class="st0" d="M40.41,0.35L40.41,0.35c-1.37,0-2.48-1.11-2.48-2.48v0c0-1.37,1.11-2.48,2.48-2.48h0
	c1.37,0,2.48,1.11,2.48,2.48v0C42.89-0.76,41.78,0.35,40.41,0.35z"/>
<path class="st1" d="M47.97,0.35L47.97,0.35c-1.37,0-2.48-1.11-2.48-2.48v0c0-1.37,1.11-2.48,2.48-2.48h0
	c1.37,0,2.48,1.11,2.48,2.48v0C50.44-0.76,49.33,0.35,47.97,0.35z"/>
<path class="st2" d="M55.52,0.35L55.52,0.35c-1.37,0-2.48-1.11-2.48-2.48v0c0-1.37,1.11-2.48,2.48-2.48h0C56.89-4.61,58-3.5,58-2.13
	v0C58-0.76,56.89,0.35,55.52,0.35z"/>
<g>
	<path class="st2" d="M6.25,23.4c-0.34-0.1-0.69-0.17-1.01-0.32C3.3,22.2,2.7,19.71,4.02,18.03c0.04-0.06,0.09-0.11,0.14-0.16
		c0.17,0.29,0.32,0.58,0.51,0.84c0.92,1.24,2.75,1.59,4.06,0.83c0.33-0.19,0.66-0.39,1.04-0.62c0.07,0.29,0.16,0.56,0.18,0.83
		c0.18,1.77-1.05,3.34-2.81,3.61c-0.04,0.01-0.08,0.03-0.12,0.04C6.76,23.4,6.51,23.4,6.25,23.4z"/>
	<path class="st1" d="M6.56,11.73c0.2,0.47,0.39,0.92,0.59,1.38c-0.5,0.3-0.96,0.59-1.43,0.85c-0.61,0.34-1.1,0.78-1.4,1.42
		c-0.01,0.02-0.02,0.04-0.05,0.07C4.13,15.17,4,14.9,3.87,14.64c-0.32-0.63-0.63-1.26-0.95-1.89c-0.42-0.83-0.39-1.64,0.09-2.44
		c0.63-1.04,1.25-2.08,1.88-3.13c0.32-0.54,0.77-0.91,1.36-1.13c1.47-0.55,2.94-1.1,4.41-1.66c0.17-0.06,0.3-0.06,0.46,0.02
		c2.52,1.27,5.04,2.52,7.56,3.79c0.07,0.03,0.13,0.07,0.22,0.12c-0.2,0.43-0.39,0.86-0.6,1.27c-0.72,1.42-1.45,2.84-2.43,4.11
		C14.87,15,13.64,16,12.09,16.55c-0.63,0.22-1.17,0.58-1.73,0.9c-0.68,0.4-1.35,0.81-2.02,1.21c-1.38,0.81-3.09,0.01-3.36-1.55
		c-0.14-0.84,0.24-1.73,0.96-2.17c1.01-0.62,2.03-1.22,3.05-1.83c0.05-0.03,0.11-0.08,0.14-0.13c0.3-0.69,0.74-1.3,1.2-1.9
		c0.03-0.03,0.05-0.07,0.05-0.08c-0.57-0.22-1.12-0.43-1.71-0.65C8.09,10.95,7.33,11.37,6.56,11.73z"/>
	<path class="st1" d="M21.37,5.14c0,0.33,0,0.67,0,1c-0.02,1.13-1.08,1.8-2.09,1.3c-2.36-1.17-4.72-2.36-7.08-3.54
		c-0.37-0.19-0.44-0.49-0.18-0.82c0.6-0.75,1.19-1.5,1.79-2.24c0.22-0.27,0.38-0.31,0.7-0.17c2.17,0.93,4.33,1.85,6.5,2.78
		c0.25,0.11,0.36,0.28,0.36,0.55C21.36,4.38,21.37,4.76,21.37,5.14z"/>
</g>
</svg>
