<?xml version="1.0" encoding="utf-8"?>
<!-- Generator: Adobe Illustrator 24.2.3, SVG Export Plug-In . SVG Version: 6.00 Build 0)  -->
<svg version="1.1" id="Layer_1" xmlns="http://www.w3.org/2000/svg" xmlns:xlink="http://www.w3.org/1999/xlink" x="0px" y="0px"
	 viewBox="0 0 38 38" style="enable-background:new 0 0 38 38;" xml:space="preserve">
<style type="text/css">
	.st0{fill:#FAEBC8;}
	.st1{fill:#C32D25;}
	.st2{fill:#E76D1B;}
</style>
<path class="st0" d="M41.67-9.05L41.67-9.05c-1.37,0-2.48-1.11-2.48-2.48l0,0c0-1.37,1.11-2.48,2.48-2.48l0,0
	c1.37,0,2.48,1.11,2.48,2.48l0,0C44.15-10.16,43.04-9.05,41.67-9.05z"/>
<path class="st1" d="M49.23-9.05L49.23-9.05c-1.37,0-2.48-1.11-2.48-2.48l0,0c0-1.37,1.11-2.48,2.48-2.48l0,0
	c1.37,0,2.48,1.11,2.48,2.48l0,0C51.7-10.16,50.59-9.05,49.23-9.05z"/>
<path class="st2" d="M56.78-9.05L56.78-9.05c-1.37,0-2.48-1.11-2.48-2.48l0,0c0-1.37,1.11-2.48,2.48-2.48l0,0
	c1.37,0,2.48,1.11,2.48,2.48l0,0C59.26-10.16,58.15-9.05,56.78-9.05z"/>
<g>
	<path class="st1" d="M37,29.02c0-0.31-0.15-0.47-0.45-0.47c-0.35,0-0.7,0-1.1,0c0-0.2,0-0.35,0-0.5c0-1.28,0-2.56,0-3.85
		c0-0.59-0.09-0.68-0.62-0.68c-3.69,0-7.38-0.01-11.07,0.01c-1.67,0.01-3.03,0.73-4.06,2.12c-0.26,0.35-0.46,0.75-0.71,1.15
		c-0.08-0.16-0.14-0.3-0.22-0.43c-0.95-1.76-2.39-2.79-4.3-2.82c-3.8-0.07-7.6-0.02-11.4-0.03c-0.39,0-0.52,0.21-0.52,0.59
		c0,1.2,0,2.39,0,3.59c0,0.27,0,0.54,0,0.86c-0.38,0-0.69,0-1,0C1.11,28.56,1.01,28.66,1,29.14C1,29.8,1,30.47,1,31.14
		c0,0.69,0.06,0.75,0.72,0.75c5.26,0,10.52,0,15.78-0.01c0.48,0,0.96-0.1,1.43-0.15c0.06-0.01,0.13,0.02,0.19,0.03
		c0.26,0.04,0.53,0.13,0.79,0.13c5.45,0.01,10.9,0.01,16.35,0.01c0.09,0,0.19,0,0.28,0c0.3-0.01,0.45-0.17,0.45-0.48
		C37,30.62,37,29.82,37,29.02z M3.36,24.36c0.11-0.01,0.21-0.03,0.32-0.03c3.5,0,7-0.02,10.5,0.01c2.23,0.01,3.95,1.56,4.37,3.85
		c0.02,0.1,0.02,0.19,0.04,0.35c-5.1,0-10.14,0-15.23,0C3.36,27.14,3.36,25.76,3.36,24.36z M18.59,30.74
		c-0.01,0.11-0.17,0.23-0.27,0.32c-0.04,0.04-0.13,0.01-0.2,0.01c-5.31,0-10.63,0-15.94,0c-0.11,0-0.21,0-0.36,0
		c0-0.57,0-1.11,0-1.69c5.58,0,11.15,0,16.78,0C18.6,29.86,18.62,30.31,18.59,30.74z M20.93,25.45c0.81-0.73,1.76-1.11,2.82-1.11
		c3.55-0.01,7.11-0.01,10.66-0.01c0.07,0,0.13,0.02,0.25,0.03c0,1.31,0,2.57,0,3.84c0,0.1-0.01,0.2-0.02,0.32
		c-5.07,0-10.13,0-15.23,0C19.54,27.27,20.05,26.25,20.93,25.45z M36.2,31.07c-0.17,0-0.31,0-0.46,0c-5.25,0-10.49,0-15.74,0
		c-0.6,0-0.6,0-0.6-0.63c0-0.34,0-0.68,0-1.05c5.61,0,11.18,0,16.8,0C36.2,29.95,36.2,30.49,36.2,31.07z"/>
	<path class="st1" d="M20.77,6.44c-1.96-0.77-4.26-0.19-5.57,1.49c-1.26,1.62-1.67,3.41-0.71,5.38c0.36,0.75,0.71,1.5,1.07,2.25
		c0.51,1.05,0.99,2.1,0.76,3.33c0,0.4-0.01,0.8,0,1.2c0.02,1.43,1.07,2.59,2.48,2.72c1.32,0.13,2.61-0.84,2.8-2.21
		c0.12-0.89,0.05-1.82,0.09-2.72c0.02-0.33,0.06-0.69,0.19-0.98c0.5-1.15,1.07-2.27,1.55-3.43c0.27-0.66,0.56-1.36,0.58-2.06
		C24.11,9.22,22.74,7.22,20.77,6.44z M20.19,21.56c-0.62,0.52-1.41,0.59-2.09,0.2c-0.7-0.41-1.07-1.16-0.98-2.04
		c1.26,0,2.5,0,3.73,0C21.02,20.34,20.74,21.09,20.19,21.56z M20.9,18.86c-1.26,0-2.51,0-3.78,0c0-0.36,0-0.72,0-1.11
		c1.25,0,2.5,0,3.78,0C20.9,18.13,20.9,18.48,20.9,18.86z M23.01,12.46c-0.64,1.41-1.26,2.83-1.93,4.23
		c-0.06,0.14-0.38,0.15-0.58,0.2c-0.1,0.02-0.21,0-0.4,0c0.21-0.81,0.41-1.54,0.6-2.28c0.03-0.11,0.06-0.22,0.08-0.33
		c0.04-0.24,0.02-0.47-0.25-0.55c-0.28-0.08-0.43,0.08-0.5,0.35c-0.21,0.79-0.43,1.58-0.63,2.38c-0.06,0.24-0.09,0.45-0.42,0.44
		c-0.31-0.01-0.34-0.2-0.39-0.42c-0.2-0.78-0.42-1.56-0.62-2.34c-0.07-0.29-0.2-0.49-0.5-0.41c-0.32,0.08-0.31,0.36-0.25,0.62
		c0.21,0.82,0.43,1.64,0.67,2.54c-0.28,0-0.52,0.02-0.75-0.01c-0.08-0.01-0.2-0.1-0.24-0.18c-0.63-1.37-1.23-2.75-1.87-4.11
		c-0.78-1.65,0.14-3.66,1.17-4.57c2.5-2.21,6.22-0.91,6.96,2.44C23.32,11.15,23.3,11.82,23.01,12.46z"/>
	<path class="st0" d="M34.66,24.36c0,1.31,0,2.57,0,3.84c0,0.1-0.01,0.2-0.02,0.32c-5.07,0-10.13,0-15.23,0
		c0.13-1.25,0.64-2.27,1.52-3.07c0.81-0.73,1.76-1.11,2.82-1.11c3.55-0.01,7.11-0.01,10.66-0.01
		C34.48,24.33,34.55,24.35,34.66,24.36z"/>
	<path class="st0" d="M18.59,28.53c-5.1,0-10.14,0-15.23,0c0-1.39,0-2.77,0-4.17c0.11-0.01,0.21-0.03,0.32-0.03
		c3.5,0,7-0.02,10.5,0.01c2.23,0.01,3.95,1.56,4.37,3.85C18.57,28.28,18.57,28.38,18.59,28.53z"/>
	<path class="st0" d="M18.6,29.38c0,0.48,0.02,0.92-0.01,1.36c-0.01,0.11-0.17,0.23-0.27,0.32c-0.04,0.04-0.13,0.01-0.2,0.01
		c-5.31,0-10.63,0-15.94,0c-0.11,0-0.21,0-0.36,0c0-0.57,0-1.11,0-1.69C7.4,29.38,12.97,29.38,18.6,29.38z"/>
	<path class="st0" d="M36.2,29.39c0,0.57,0,1.1,0,1.68c-0.17,0-0.31,0-0.46,0c-5.25,0-10.49,0-15.74,0c-0.6,0-0.6,0-0.6-0.63
		c0-0.34,0-0.68,0-1.05C25,29.39,30.58,29.39,36.2,29.39z"/>
	<path class="st0" d="M20.11,16.89c0.21-0.81,0.41-1.54,0.6-2.28c0.03-0.11,0.06-0.22,0.08-0.33c0.04-0.24,0.02-0.47-0.25-0.55
		c-0.28-0.08-0.43,0.08-0.5,0.35c-0.21,0.79-0.43,1.58-0.63,2.38c-0.06,0.24-0.09,0.45-0.42,0.44c-0.31-0.01-0.34-0.2-0.39-0.42
		c-0.2-0.78-0.42-1.56-0.62-2.34c-0.07-0.29-0.2-0.49-0.5-0.41c-0.32,0.08-0.31,0.36-0.25,0.62c0.21,0.82,0.43,1.64,0.67,2.54
		c-0.28,0-0.52,0.02-0.75-0.01c-0.08-0.01-0.2-0.1-0.24-0.18c-0.63-1.37-1.23-2.75-1.87-4.11c-0.78-1.65,0.14-3.66,1.17-4.57
		c2.5-2.21,6.22-0.91,6.96,2.44c0.15,0.69,0.13,1.35-0.16,2c-0.64,1.41-1.26,2.83-1.93,4.23c-0.06,0.14-0.38,0.15-0.58,0.2
		C20.41,16.91,20.29,16.89,20.11,16.89z"/>
	<path class="st0" d="M17.12,19.72c1.26,0,2.5,0,3.73,0c0.17,0.62-0.11,1.38-0.67,1.84c-0.62,0.52-1.41,0.59-2.09,0.2
		C17.4,21.35,17.02,20.6,17.12,19.72z"/>
	<path class="st0" d="M20.9,17.75c0,0.38,0,0.73,0,1.11c-1.26,0-2.51,0-3.78,0c0-0.36,0-0.72,0-1.11
		C18.37,17.75,19.62,17.75,20.9,17.75z"/>
</g>
</svg>
