<?xml version="1.0" encoding="utf-8"?>
<!-- Generator: Adobe Illustrator 24.2.3, SVG Export Plug-In . SVG Version: 6.00 Build 0)  -->
<svg version="1.1" id="Layer_1" xmlns="http://www.w3.org/2000/svg" xmlns:xlink="http://www.w3.org/1999/xlink" x="0px" y="0px"
	 viewBox="0 0 24 24" style="enable-background:new 0 0 24 24;" xml:space="preserve">
<style type="text/css">
	.st0{fill:#FAEBC8;}
	.st1{fill:#C32D25;}
	.st2{fill:#E76D1B;}
</style>
<path class="st0" d="M40.41,0.35L40.41,0.35c-1.37,0-2.48-1.11-2.48-2.48v0c0-1.37,1.11-2.48,2.48-2.48h0
	c1.37,0,2.48,1.11,2.48,2.48v0C42.89-0.76,41.78,0.35,40.41,0.35z"/>
<path class="st1" d="M47.97,0.35L47.97,0.35c-1.37,0-2.48-1.11-2.48-2.48v0c0-1.37,1.11-2.48,2.48-2.48h0
	c1.37,0,2.48,1.11,2.48,2.48v0C50.44-0.76,49.33,0.35,47.97,0.35z"/>
<path class="st2" d="M55.52,0.35L55.52,0.35c-1.37,0-2.48-1.11-2.48-2.48v0c0-1.37,1.11-2.48,2.48-2.48h0C56.89-4.61,58-3.5,58-2.13
	v0C58-0.76,56.89,0.35,55.52,0.35z"/>
<path class="st1" d="M12,23.55L12,23.55C5.62,23.55,0.45,18.38,0.45,12v0C0.45,5.62,5.62,0.45,12,0.45h0
	c6.38,0,11.55,5.17,11.55,11.55v0C23.55,18.38,18.38,23.55,12,23.55z"/>
<g>
	<path class="st0" d="M12,21L12,21c-0.83,0-1.5-0.67-1.5-1.5v-9C10.5,9.67,11.17,9,12,9h0c0.83,0,1.5,0.67,1.5,1.5v9
		C13.5,20.33,12.83,21,12,21z"/>
	<path class="st0" d="M12,6L12,6c-0.83,0-1.5-0.67-1.5-1.5v0C10.5,3.67,11.17,3,12,3h0c0.83,0,1.5,0.67,1.5,1.5v0
		C13.5,5.33,12.83,6,12,6z"/>
</g>
</svg>
