<?xml version="1.0" encoding="utf-8"?>
<!-- Generator: Adobe Illustrator 24.2.3, SVG Export Plug-In . SVG Version: 6.00 Build 0)  -->
<svg version="1.1" id="Layer_1" xmlns="http://www.w3.org/2000/svg" xmlns:xlink="http://www.w3.org/1999/xlink" x="0px" y="0px"
	 viewBox="0 0 38 38" style="enable-background:new 0 0 38 38;" xml:space="preserve">
<style type="text/css">
	.st0{fill:#FAEBC8;}
	.st1{fill:#C32D25;}
	.st2{fill:#E76D1B;}
</style>
<path class="st0" d="M41.67-9.05L41.67-9.05c-1.37,0-2.48-1.11-2.48-2.48l0,0c0-1.37,1.11-2.48,2.48-2.48l0,0
	c1.37,0,2.48,1.11,2.48,2.48l0,0C44.15-10.16,43.04-9.05,41.67-9.05z"/>
<path class="st1" d="M49.23-9.05L49.23-9.05c-1.37,0-2.48-1.11-2.48-2.48l0,0c0-1.37,1.11-2.48,2.48-2.48l0,0
	c1.37,0,2.48,1.11,2.48,2.48l0,0C51.7-10.16,50.59-9.05,49.23-9.05z"/>
<path class="st2" d="M56.78-9.05L56.78-9.05c-1.37,0-2.48-1.11-2.48-2.48l0,0c0-1.37,1.11-2.48,2.48-2.48l0,0
	c1.37,0,2.48,1.11,2.48,2.48l0,0C59.26-10.16,58.15-9.05,56.78-9.05z"/>
<path class="st1" d="M37.5,26.41c-0.3,0.8-0.92,1.25-1.66,1.58c-1.71,0.76-3.52,0.93-5.37,0.86c-1.38-0.06-2.73-0.27-4-0.86
	c-0.58-0.27-1.11-0.59-1.46-1.16c-0.24-0.4-0.23-0.56,0.06-0.94c0.03-0.04,0.05-0.1,0.08-0.15c1.82-3.74,3.64-7.48,5.46-11.22
	c0.02-0.05,0.04-0.11,0.08-0.19c-1.65-0.25-2.89-1.28-4.19-2.17c-1.86-1.27-3.93-1.91-6.14-2.17c-0.07-0.01-0.13-0.01-0.21-0.01
	c0.09,0.32,0.25,0.62,0.24,0.92c-0.02,0.59-0.1,1.18-0.22,1.75c-0.13,0.64-0.33,1.26-0.49,1.89c-0.04,0.16-0.06,0.34-0.06,0.51
	c0,3.88,0,7.76,0,11.63c0,0.17,0.12,0.33,0.15,0.5c0.06,0.28,0.1,0.56,0.14,0.85c0.02,0.16-0.03,0.34,0,0.49
	c0.13,0.6,0.28,1.2,0.44,1.8c0.2,0.72,0.23,1.42-0.11,2.16c0.15,0.01,0.27,0.02,0.39,0.02c0.73,0,1.46,0,2.2,0
	c0.51,0,0.73,0.18,0.78,0.7c0.03,0.25,0,0.5,0,0.81c0.42,0,0.81,0.01,1.21,0c0.59-0.03,0.84,0.09,1.04,0.57
	c0.22,0.52,0.08,1.14-0.3,1.49c-0.03,0.03-0.06,0.06-0.1,0.09c-4.32,0-8.65,0-12.97,0c-0.4-0.31-0.51-0.73-0.48-1.21
	c0.04-0.61,0.38-0.93,0.99-0.93c0.43,0,0.86,0,1.34,0c0-0.28-0.02-0.53,0-0.78c0.06-0.55,0.27-0.73,0.82-0.73
	c0.81,0,1.62,0,2.44-0.01c0.02,0,0.04-0.02,0.09-0.04c-0.54-1.05,0-2.04,0.18-3.06c0.05-0.26,0.14-0.51,0.18-0.77
	c0.03-0.21-0.02-0.42,0-0.63c0.03-0.27,0.08-0.54,0.14-0.81c0.04-0.17,0.15-0.33,0.15-0.5c0.01-3.89,0.02-7.78-0.01-11.67
	c0-0.54-0.21-1.07-0.33-1.6c-0.1-0.45-0.19-0.89-0.32-1.33c-0.19-0.71-0.25-1.39,0.23-2.15c-0.69,0.11-1.28,0.2-1.86,0.31
	c-1.75,0.32-3.32,1.07-4.79,2.05c-0.35,0.23-0.71,0.47-1.05,0.7c-0.89,0.61-1.79,1.2-2.94,1.34c0.12,0.26,0.23,0.49,0.34,0.72
	c1.72,3.54,3.45,7.09,5.17,10.63c0.03,0.07,0.06,0.15,0.11,0.21c0.3,0.38,0.35,0.56,0.05,0.93c-0.3,0.36-0.66,0.71-1.06,0.95
	c-1.08,0.65-2.3,0.88-3.53,1.01c-1.8,0.19-3.59,0.08-5.33-0.45c-0.34-0.1-0.67-0.23-0.99-0.38c-0.7-0.33-1.29-0.78-1.57-1.54
	c0-0.09,0-0.18,0-0.27c0.16-0.19,0.36-0.36,0.47-0.57c1.77-3.61,3.52-7.23,5.28-10.84c0.05-0.1,0.09-0.2,0.14-0.31
	c-0.96-0.01-1.29-0.23-1.43-0.91c-0.11-0.53,0.16-1.05,0.65-1.27c0.58-0.25,1.07-0.05,1.55,0.62c0.67-0.08,1.18-0.3,2.18-1.01
	c1.49-1.05,3-2.07,4.77-2.57c1.27-0.36,2.57-0.6,3.86-0.89c-0.16-0.62-0.14-0.77,0.23-1.33c-0.59-0.75-0.53-1.55-0.18-2.41
	c0.28-0.68,0.46-1.41,0.69-2.11c0.08-0.24,0.17-0.47,0.26-0.7c0.09,0,0.18,0,0.27,0c0.07,0.22,0.14,0.43,0.2,0.65
	c0.21,0.76,0.37,1.53,0.63,2.28c0.28,0.83,0.27,1.59-0.25,2.33c0.34,0.43,0.41,0.89,0.17,1.39c0.26,0.03,0.48,0.06,0.71,0.09
	c1.83,0.23,3.6,0.65,5.21,1.58c1.08,0.62,2.1,1.34,3.17,1.98c0.47,0.28,0.98,0.47,1.48,0.7c0.19,0.09,0.31,0.03,0.44-0.17
	c0.3-0.48,0.88-0.63,1.39-0.42c0.49,0.21,0.76,0.73,0.66,1.26c-0.12,0.6-0.49,0.9-1.1,0.91c-0.1,0-0.2,0-0.32,0
	c0.05,0.11,0.08,0.19,0.12,0.27c1.78,3.67,3.57,7.34,5.36,11c0.09,0.17,0.27,0.3,0.41,0.45C37.5,26.23,37.5,26.32,37.5,26.41z
	 M12.39,25.94c-1.78-3.66-3.55-7.29-5.35-10.99c0,3.73,0,7.35,0,10.99C8.83,25.94,10.59,25.94,12.39,25.94z M30.96,15.05
	c-0.02-0.01-0.03-0.01-0.05-0.02c-1.76,3.63-3.53,7.25-5.31,10.91c1.82,0,3.58,0,5.35,0C30.96,22.3,30.96,18.68,30.96,15.05z
	 M36.67,25.94c-1.72-3.54-3.42-7.04-5.12-10.53c-0.02,0.01-0.03,0.01-0.05,0.02c0,3.5,0,7,0,10.51
	C33.21,25.94,34.9,25.94,36.67,25.94z M6.51,25.93c0-3.54,0-7.03,0-10.63c-1.75,3.59-3.45,7.09-5.17,10.63
	C3.1,25.93,4.8,25.93,6.51,25.93z"/>
</svg>
