<?xml version="1.0" encoding="utf-8"?>
<!-- Generator: Adobe Illustrator 24.2.3, SVG Export Plug-In . SVG Version: 6.00 Build 0)  -->
<svg version="1.1" id="Layer_1" xmlns="http://www.w3.org/2000/svg" xmlns:xlink="http://www.w3.org/1999/xlink" x="0px" y="0px"
	 viewBox="0 0 22 22" style="enable-background:new 0 0 22 22;" xml:space="preserve">
<style type="text/css">
	.st0{fill:#FAEBC8;}
	.st1{fill:#C32D25;}
	.st2{fill:#E76D1B;}
</style>
<path class="st0" d="M33.67-17.05L33.67-17.05c-1.37,0-2.48-1.11-2.48-2.48l0,0c0-1.37,1.11-2.48,2.48-2.48l0,0
	c1.37,0,2.48,1.11,2.48,2.48l0,0C36.15-18.16,35.04-17.05,33.67-17.05z"/>
<path class="st1" d="M41.23-17.05L41.23-17.05c-1.37,0-2.48-1.11-2.48-2.48l0,0c0-1.37,1.11-2.48,2.48-2.48l0,0
	c1.37,0,2.48,1.11,2.48,2.48l0,0C43.7-18.16,42.59-17.05,41.23-17.05z"/>
<path class="st2" d="M48.78-17.05L48.78-17.05c-1.37,0-2.48-1.11-2.48-2.48l0,0c0-1.37,1.11-2.48,2.48-2.48l0,0
	c1.37,0,2.48,1.11,2.48,2.48l0,0C51.26-18.16,50.15-17.05,48.78-17.05z"/>
<g>
	<path class="st1" d="M130.65-2.88c-2.92-0.7-5.53-1.33-8.15-1.96c0.04-0.2,0.09-0.41,0.13-0.61c2.02,0.43,4.04,0.87,6.19,1.33
		c-9.67-10.33-4.78-22.96,2.26-27.65c6.8-4.52,15.88-3.36,19.24,0.04c-11.61-4.67-20.67-2.45-25.43,9.85
		c-2.34,6.05,0.28,13.96,5.22,17.41c0-2.43,0-4.64,0-6.85c0.18,0.01,0.36,0.02,0.54,0.03C130.65-8.59,130.65-5.89,130.65-2.88z"/>
	<path class="st1" d="M151.91-29.57c0,2.55,0,4.73,0,6.91c-0.17-0.01-0.34-0.02-0.51-0.02c0-2.71,0-5.42,0-8.34
		c2.83,0.67,5.47,1.29,8.1,1.91c-0.04,0.21-0.08,0.42-0.12,0.63c-0.99-0.21-1.97-0.42-2.96-0.63c-1.01-0.22-2.02-0.44-3.48-0.77
		c4.41,4.52,6.32,9.61,5.5,15.47c-0.83,5.92-3.96,10.38-9.26,13.22c-5.59,2.99-15.63,2.38-17.42-1.04
		c10.62,4.52,19.36,2.81,24.73-8.06C159.68-16.75,157.55-24.99,151.91-29.57z"/>
	<path class="st1" d="M140.73-22.26c1.42-0.77,2.6-1.75,3.94-2.08c3.22-0.79,6.48,1.91,6.1,5.25c-0.23,2.05-0.96,4.34-2.23,5.89
		c-1.91,2.32-4.47,4.12-6.8,6.07c-0.28,0.24-1.01,0.28-1.33,0.08c-2.96-1.83-5.79-3.87-7.58-6.94c-0.78-1.34-1.33-2.9-1.61-4.43
		c-0.44-2.41,0.88-4.64,2.97-5.6c2.07-0.95,4.37-0.48,6.08,1.25C140.51-22.52,140.72-22.27,140.73-22.26z M141.01-19.99
		c-0.28-0.55-0.45-0.94-0.66-1.31c-1.07-1.93-3.14-2.8-5.2-2.19c-2.06,0.61-3.44,2.48-3.18,4.65c0.15,1.27,0.51,2.58,1.09,3.72
		c1.61,3.2,4.4,5.29,7.35,7.16c0.32,0.2,1.05,0.15,1.34-0.09c2.12-1.77,4.41-3.43,6.18-5.53c1.13-1.34,1.71-3.31,2.09-5.09
		c0.47-2.2-1.01-4.17-3.14-4.81c-2.05-0.62-4.12,0.25-5.2,2.19C141.46-20.93,141.29-20.54,141.01-19.99z"/>
	<path class="st0" d="M141.01-19.99c0.28-0.55,0.46-0.94,0.66-1.32c1.08-1.94,3.15-2.81,5.2-2.19c2.13,0.64,3.61,2.61,3.14,4.81
		c-0.38,1.78-0.96,3.75-2.09,5.09c-1.76,2.09-4.05,3.75-6.18,5.53c-0.29,0.24-1.03,0.29-1.34,0.09c-2.95-1.86-5.74-3.95-7.35-7.16
		c-0.57-1.14-0.93-2.45-1.09-3.72c-0.26-2.18,1.11-4.04,3.18-4.65c2.06-0.61,4.13,0.26,5.2,2.19
		C140.56-20.93,140.73-20.54,141.01-19.99z M136.01-13.52c-1.94-2.99-1.94-2.99-1.97-7.71C132.24-19.55,133.22-14.7,136.01-13.52z"
		/>
	<path class="st1" d="M136.01-13.52c-2.79-1.18-3.78-6.04-1.97-7.71C134.07-16.51,134.07-16.51,136.01-13.52z"/>
</g>
<g>
	<path d="M7.42,17.6C7.2,17.61,7,17.64,6.81,17.62c-0.49-0.07-0.88-0.48-0.94-0.99c-0.02-0.19-0.05-0.24-0.27-0.23
		c-0.62,0.05-1.15-0.51-1.15-1.16c0-0.17-0.03-0.23-0.22-0.27c-0.76-0.15-1.12-0.98-0.76-1.73c0.02-0.05,0.04-0.1,0.08-0.13
		c0.17-0.18,0.13-0.34,0.04-0.57c-0.16-0.39-0.26-0.81-0.37-1.22c-0.04-0.17-0.11-0.31-0.24-0.43C2.21,10.22,1.46,9.54,0.7,8.87
		C0.51,8.7,0.46,8.54,0.53,8.3c0.24-0.87,0.65-1.67,1.11-2.44c0.55-0.9,1.21-1.71,1.99-2.42c0.3-0.27,0.4-0.27,0.72-0.03
		c0.71,0.54,1.43,1.07,2.13,1.61C6.66,5.15,6.83,5.21,7.05,5.2c1.2-0.06,2.38,0.03,3.56,0.27c0.08,0.02,0.16,0.01,0.23-0.02
		c0.55-0.26,1.13-0.33,1.73-0.3c0.85,0.05,1.66,0.23,2.48,0.44c0.15,0.04,0.27,0.03,0.4-0.05c0.83-0.51,1.67-1.02,2.51-1.53
		c0.3-0.19,0.4-0.18,0.64,0.09c1.31,1.43,2.3,3.06,2.86,4.93c0.09,0.29,0.05,0.49-0.19,0.68c-0.72,0.57-1.43,1.15-2.13,1.73
		c-0.1,0.09-0.19,0.22-0.23,0.35c-0.2,0.61-0.5,1.17-0.93,1.66c-0.1,0.1-0.1,0.19-0.04,0.32c0.34,0.69,0.13,1.35-0.52,1.66
		c-0.1,0.05-0.21,0.08-0.31,0.09c-0.14,0.01-0.19,0.06-0.22,0.2c-0.11,0.5-0.4,0.87-0.9,1c-0.23,0.06-0.48,0.01-0.73,0.01
		c-0.02,0.06-0.03,0.14-0.06,0.22c-0.2,0.75-0.99,1.14-1.61,0.9c-0.09-0.03-0.13-0.01-0.17,0.08c-0.36,0.73-0.97,0.99-1.74,0.76
		c-0.56-0.17-1.03-0.5-1.46-0.88c-0.14-0.12-0.22-0.12-0.35,0.01c-0.16,0.16-0.34,0.3-0.51,0.45c-0.65,0.57-1.56,0.33-1.85-0.5
		C7.45,17.7,7.44,17.64,7.42,17.6z M17.57,13.18c0.32-0.3,0.72-0.97,0.85-1.46c0.08-0.27,0.22-0.49,0.44-0.66
		c0.68-0.54,1.34-1.09,2.01-1.63c0.13-0.1,0.15-0.2,0.1-0.36c-0.53-1.73-1.45-3.24-2.67-4.57c-0.08-0.09-0.14-0.09-0.24-0.03
		c-0.81,0.5-1.62,0.99-2.43,1.5c-0.2,0.13-0.4,0.16-0.64,0.1c-0.71-0.15-1.43-0.31-2.15-0.42c-0.83-0.12-1.63-0.01-2.33,0.48
		C9.81,6.65,9.1,7.17,8.39,7.69C8.07,7.92,7.85,8.24,7.73,8.62c-0.23,0.7-0.48,1.39-0.86,2.02c-0.14,0.23,0.01,0.51,0.3,0.55
		c0.1,0.02,0.22,0.01,0.33-0.01c0.33-0.06,0.6-0.24,0.83-0.47c0.45-0.44,0.74-0.99,0.96-1.57C9.35,8.97,9.46,8.85,9.64,8.8
		c0.75-0.19,1.46-0.48,2.15-0.83c0.17-0.09,0.3-0.06,0.45,0.07c0.44,0.38,0.89,0.76,1.34,1.13c0.64,0.52,1.33,0.75,2.13,0.43
		c0.12-0.05,0.23-0.01,0.27,0.11c0.06,0.13,0,0.25-0.12,0.31c-0.13,0.06-0.28,0.12-0.43,0.14c-0.22,0.03-0.44,0.03-0.64,0.05
		C15.71,11.18,16.64,12.18,17.57,13.18z M4.85,15.2c0.09,0.19,0.13,0.37,0.24,0.51c0.2,0.27,0.62,0.34,0.85,0.13
		c0.46-0.43,0.92-0.85,1.35-1.31c0.36-0.37,0.22-0.98-0.25-1.15c-0.31-0.12-0.58,0.01-0.8,0.23c-0.38,0.37-0.76,0.73-1.12,1.11
		C4.99,14.85,4.94,15.03,4.85,15.2z M8.91,15.28c0-0.3-0.13-0.51-0.4-0.64c-0.24-0.12-0.56-0.08-0.76,0.12
		c-0.4,0.37-0.78,0.76-1.18,1.13c-0.23,0.22-0.3,0.47-0.23,0.77c0.12,0.48,0.65,0.69,0.99,0.38c0.46-0.42,0.92-0.85,1.37-1.28
		C8.84,15.63,8.92,15.47,8.91,15.28z M10.22,16.55c0-0.31-0.16-0.59-0.41-0.69c-0.28-0.12-0.51,0-0.71,0.19
		c-0.34,0.31-0.68,0.63-1.03,0.94c-0.19,0.17-0.24,0.37-0.17,0.61c0.15,0.51,0.69,0.69,1.1,0.36c0.36-0.3,0.69-0.61,1.04-0.93
		C10.16,16.89,10.23,16.73,10.22,16.55z M3.76,13.83c0.03,0.32,0.18,0.57,0.44,0.68c0.27,0.11,0.5,0.02,0.69-0.18
		c0.24-0.26,0.49-0.52,0.73-0.79c0.16-0.17,0.22-0.38,0.2-0.61c-0.01-0.26-0.14-0.45-0.37-0.57c-0.22-0.11-0.43-0.09-0.62,0.05
		c-0.36,0.27-0.69,0.59-0.92,0.99C3.85,13.53,3.82,13.69,3.76,13.83z"/>
	<path class="st0" d="M17.57,13.18c-0.93-1-1.85-2-2.76-2.98c0.2-0.01,0.42-0.01,0.64-0.05c0.15-0.02,0.29-0.08,0.43-0.14
		c0.12-0.06,0.18-0.17,0.12-0.31c-0.05-0.12-0.16-0.16-0.27-0.11c-0.8,0.32-1.5,0.09-2.13-0.43c-0.45-0.37-0.9-0.74-1.34-1.13
		c-0.15-0.13-0.27-0.16-0.45-0.07c-0.69,0.35-1.4,0.65-2.15,0.83C9.48,8.85,9.37,8.97,9.31,9.14c-0.22,0.58-0.51,1.13-0.96,1.57
		c-0.24,0.23-0.51,0.41-0.83,0.47c-0.1,0.02-0.22,0.03-0.33,0.01c-0.29-0.04-0.45-0.31-0.3-0.55c0.38-0.64,0.64-1.32,0.86-2.02
		c0.12-0.38,0.34-0.69,0.66-0.93c0.71-0.51,1.42-1.04,2.14-1.55c0.7-0.5,1.5-0.61,2.33-0.48c0.72,0.1,1.43,0.26,2.15,0.42
		c0.24,0.05,0.44,0.02,0.64-0.1c0.8-0.5,1.62-1,2.43-1.5c0.09-0.06,0.16-0.05,0.24,0.03c1.23,1.32,2.14,2.83,2.67,4.57
		c0.05,0.16,0.02,0.25-0.1,0.36c-0.68,0.54-1.34,1.09-2.01,1.63c-0.22,0.17-0.37,0.39-0.44,0.66
		C18.29,12.21,17.88,12.88,17.57,13.18z"/>
	<path class="st0" d="M4.85,15.2c0.09-0.17,0.15-0.35,0.26-0.47c0.36-0.38,0.74-0.75,1.12-1.11c0.23-0.22,0.49-0.34,0.8-0.23
		c0.46,0.17,0.61,0.78,0.25,1.15C6.85,15,6.4,15.43,5.94,15.85C5.71,16.06,5.28,16,5.09,15.72C4.98,15.58,4.93,15.39,4.85,15.2z"/>
	<path class="st0" d="M8.91,15.28c0.01,0.19-0.08,0.35-0.21,0.48c-0.45,0.43-0.91,0.86-1.37,1.28c-0.34,0.31-0.87,0.1-0.99-0.38
		c-0.07-0.3,0-0.55,0.23-0.77c0.4-0.37,0.79-0.75,1.18-1.13c0.2-0.19,0.51-0.24,0.76-0.12C8.78,14.77,8.92,14.99,8.91,15.28z"/>
	<path class="st0" d="M10.22,16.55c0.01,0.19-0.05,0.34-0.19,0.47c-0.34,0.31-0.68,0.63-1.04,0.93c-0.41,0.34-0.94,0.16-1.1-0.36
		c-0.07-0.24-0.01-0.44,0.17-0.61c0.34-0.31,0.68-0.62,1.03-0.94c0.2-0.19,0.43-0.3,0.71-0.19C10.06,15.96,10.22,16.23,10.22,16.55z
		"/>
	<path class="st0" d="M3.76,13.83c0.05-0.15,0.09-0.3,0.16-0.43c0.23-0.4,0.55-0.71,0.92-0.99c0.19-0.15,0.4-0.16,0.62-0.05
		c0.23,0.12,0.36,0.3,0.37,0.57c0.01,0.23-0.05,0.44-0.2,0.61c-0.24,0.26-0.49,0.52-0.73,0.79c-0.19,0.2-0.41,0.29-0.69,0.18
		C3.94,14.4,3.79,14.15,3.76,13.83z"/>
</g>
</svg>
