<?xml version="1.0" encoding="utf-8"?>
<!-- Generator: Adobe Illustrator 24.2.3, SVG Export Plug-In . SVG Version: 6.00 Build 0)  -->
<svg version="1.1" id="Layer_1" xmlns="http://www.w3.org/2000/svg" xmlns:xlink="http://www.w3.org/1999/xlink" x="0px" y="0px"
	 viewBox="0 0 38 38" style="enable-background:new 0 0 38 38;" xml:space="preserve">
<style type="text/css">
	.st0{fill:#FAEBC8;}
	.st1{fill:#C32D25;}
	.st2{fill:#E76D1B;}
	.st3{fill:#582706;}
</style>
<path class="st0" d="M41.67-9.05L41.67-9.05c-1.37,0-2.48-1.11-2.48-2.48l0,0c0-1.37,1.11-2.48,2.48-2.48l0,0
	c1.37,0,2.48,1.11,2.48,2.48l0,0C44.15-10.16,43.04-9.05,41.67-9.05z"/>
<path class="st1" d="M49.23-9.05L49.23-9.05c-1.37,0-2.48-1.11-2.48-2.48l0,0c0-1.37,1.11-2.48,2.48-2.48l0,0
	c1.37,0,2.48,1.11,2.48,2.48l0,0C51.7-10.16,50.59-9.05,49.23-9.05z"/>
<path class="st2" d="M56.78-9.05L56.78-9.05c-1.37,0-2.48-1.11-2.48-2.48l0,0c0-1.37,1.11-2.48,2.48-2.48l0,0
	c1.37,0,2.48,1.11,2.48,2.48l0,0C59.26-10.16,58.15-9.05,56.78-9.05z"/>
<path d="M75.89-135.27c5.7,0.33,9.94,0.57,14.18,0.81c-0.05,0.63-0.09,1.27-0.14,1.9c-15.42,0-30.84,0-46.26,0
	c-0.05-0.52-0.1-1.05-0.15-1.57c5.29-1.97,11.11-0.22,17.67-1.32c-5.69-4.98-11.87-8.63-14.57-15.15c0.38-0.39,0.76-0.79,1.15-1.18
	c1.06,0.91,2.12,1.84,3.19,2.74c4.81,4.05,9.55,8.21,14.51,12.07c1.11,0.86,3.43,1.47,4.49,0.89c8.61-4.65,16.47-10.27,20.17-19.88
	c1.88-4.9,1.12-9.57-2.78-13.34c-3.49-3.37-7.79-3.98-12.03-2.02c-2.44,1.14-4.35,3.43-6.56,5.26c-3.02-2.34-6.08-4.72-8.18-6.35
	c0.33-5.32,0.86-9.94,0.86-14.56c0.01-14.84,2.1-14.22-14.1-17.84c-4.22-0.94-8.47-1.83-12.57-3.17c-3.12-1.02-5.26-0.46-7.48,1.96
	c-3.82,4.17-7.86,8.16-12.01,11.99c-2.3,2.12-2.76,4.58-0.85,6.55c3.52,3.62,7.1,7.81,11.53,9.77c5.85,2.59,10.53,6.12,14.75,10.67
	c1.7,1.83,3.57,3.49,5.32,5.27c2.49,2.54,5.32,3.98,8.17,0.94c2.63-2.8,1.16-5.51-1.2-7.84c-3.67-3.63-7.57-7.07-10.86-11.02
	c-1.33-1.6-2.35-4.77-1.63-6.4c0.79-1.79,3.75-2.63,6.13-4.11c0.34,1.67,0.56,2.15,0.44,2.27c-4.66,4.33-4.66,4.32,0.24,9.24
	c2.94,2.95,5.94,5.84,8.77,8.89c3.35,3.61,3.45,7.98,0.46,11.19c-3.25,3.49-7.54,3.61-11.53,0.21c-1.52-1.29-2.87-2.77-4.28-4.19
	c-5.02-5.04-9.96-9.88-16.96-12.65c-4.36-1.72-7.67-6.09-11.44-9.29c-1.57-1.33-3.12-2.69-5.69-4.92
	c7.07-7.15,14.75-14.92,22.62-22.88c-1.59-2.12-3-4-4.41-5.88c0.45-0.47,0.9-0.94,1.35-1.41c2.09,1.9,4.12,3.89,6.31,5.68
	c1.58,1.29,3.23,2.82,5.11,3.37c6.06,1.78,12.25,3.12,18.37,4.71c6.72,1.75,8.67,4.28,8.74,11.32c0.06,5.66-0.26,11.34,0.12,16.98
	c0.16,2.41,1.67,4.73,2.43,6.74c4.38-1.87,7.44-3.95,10.72-4.43c10.58-1.55,18.56,8.66,15.4,19.23c-2.1,7.02-6.81,12.08-12.35,16.53
	C79.66-138.35,78.29-137.22,75.89-135.27z"/>
<g>
	<path class="st1" d="M10.81,23c-1-4.87,1.41-8.85,5.99-9.74c1.4-0.27,2.84-0.39,4.21-0.78c1.29-0.37,2.52-1,3.77-1.52
		c2.15,2.77,1.39,9.29-1.52,12.99c-3,3.81-6.59,4.31-11.23,1.56c-1.1,1.76-0.85,3.67,0.86,4.96c1.63,1.23,3.38,2.31,5.13,3.35
		c0.44,0.26,1.21,0.39,1.6,0.15c6.43-3.76,12.45-8.05,15.62-15.5c2.04-4.81,1.06-9.7-2.31-12.59c-4.06-3.48-9.51-2.69-12.89,1.86
		c-0.31,0.41-0.65,0.8-1.07,1.32c-0.77-0.95-1.37-1.83-2.1-2.58C13.89,3.42,9.55,2.87,6.1,5.06c-3.58,2.27-5.47,6.81-3.99,11.27
		c0.99,2.97,2.9,5.59,4.45,8.34c0.38,0.67,2.35,2.2,3.56,2.72c0-0.71,0.14-1.46,0.4-2.25C10.75,24.47,10.94,23.66,10.81,23z"/>
	<path d="M10.12,27.38c0,0.04,0,0.08,0,0.11c0.07-0.01,0.14-0.02,0.2-0.03C10.26,27.44,10.19,27.41,10.12,27.38z"/>
	<path class="st3" d="M32.66,4.09C28.12,1.14,22.64,2.36,19.6,6.24c-0.15,0.19-0.41,0.29-0.69,0.48c-0.42-0.4-0.8-0.76-1.16-1.13
		C14.8,2.65,11.37,1.7,7.52,3.03c-3.83,1.33-6.16,4.19-6.89,8.43c-0.86,4.99,2.82,13.24,6.89,15.96c0.78,0.41,1.91,0.19,2.6,0.08
		c0-0.04,0-0.08,0-0.11c-1.2-0.52-3.18-2.04-3.56-2.72c-1.55-2.75-3.47-5.37-4.45-8.34c-1.48-4.46,0.41-9,3.99-11.27
		c3.45-2.19,7.78-1.64,10.76,1.42c0.73,0.75,1.33,1.63,2.1,2.58c0.43-0.52,0.77-0.9,1.07-1.32c3.38-4.55,8.83-5.34,12.89-1.86
		c3.38,2.89,4.35,7.78,2.31,12.59c-3.16,7.45-9.19,11.73-15.62,15.5c-0.4,0.23-1.17,0.11-1.6-0.15c-1.75-1.04-3.49-2.12-5.13-3.35
		c-1.7-1.28-1.95-3.19-0.86-4.96c4.64,2.75,8.23,2.26,11.23-1.56c2.91-3.69,3.68-10.22,1.52-12.99c-1.25,0.52-2.48,1.15-3.77,1.52
		c-1.37,0.39-2.81,0.51-4.21,0.78c-4.59,0.89-6.99,4.86-5.99,9.74c0.14,0.66-0.06,1.46-0.29,2.13c-0.26,0.78-0.4,1.53-0.4,2.25
		c0.07,0.03,0.14,0.06,0.2,0.08c-0.06,0.01-0.13,0.02-0.2,0.03c0.02,1.58,0.7,2.97,2.12,4.06c1.62,1.25,3.41,2.25,5.1,3.41
		c1.09,0.75,2.14,0.84,3.22,0.02c3.27-2.46,6.68-4.74,9.79-7.42c2.95-2.54,5.18-5.78,6.43-9.67C38.57,12.3,36.98,6.9,32.66,4.09z
		 M16.24,14.75c2.63-0.68,5.31-1.17,8.01-1.75c1.55,3.06-0.14,9.1-3.35,11.61c-2.69,2.1-5.72,1.95-8.43-0.95
		c2.7-1.61,5.17-3.09,7.6-4.54c-1.54-0.91-1.74-0.82-7.85,3.28C10.97,19.27,12.81,15.65,16.24,14.75z"/>
	<path class="st0" d="M20.07,19.12c-2.43,1.45-4.9,2.93-7.6,4.54c2.72,2.9,5.74,3.05,8.43,0.95c3.21-2.5,4.9-8.54,3.35-11.61
		c-2.7,0.58-5.38,1.07-8.01,1.75c-3.43,0.89-5.27,4.51-4.02,7.65C18.33,18.29,18.53,18.21,20.07,19.12z"/>
</g>
</svg>
