<?xml version="1.0" encoding="utf-8"?>
<!-- Generator: Adobe Illustrator 24.2.3, SVG Export Plug-In . SVG Version: 6.00 Build 0)  -->
<svg version="1.1" id="Layer_1" xmlns="http://www.w3.org/2000/svg" xmlns:xlink="http://www.w3.org/1999/xlink" x="0px" y="0px"
	 viewBox="0 0 44 44" style="enable-background:new 0 0 44 44;" xml:space="preserve">
<style type="text/css">
	.st0{fill:#FAEBC8;}
	.st1{fill:#C32D25;}
	.st2{fill:#E76D1B;}
</style>
<path class="st0" d="M50.41,10.35L50.41,10.35c-1.37,0-2.48-1.11-2.48-2.48v0c0-1.37,1.11-2.48,2.48-2.48h0
	c1.37,0,2.48,1.11,2.48,2.48v0C52.89,9.24,51.78,10.35,50.41,10.35z"/>
<path class="st1" d="M57.97,10.35L57.97,10.35c-1.37,0-2.48-1.11-2.48-2.48v0c0-1.37,1.11-2.48,2.48-2.48h0
	c1.37,0,2.48,1.11,2.48,2.48v0C60.44,9.24,59.33,10.35,57.97,10.35z"/>
<path class="st2" d="M65.52,10.35L65.52,10.35c-1.37,0-2.48-1.11-2.48-2.48v0c0-1.37,1.11-2.48,2.48-2.48l0,0
	C66.89,5.39,68,6.5,68,7.87v0C68,9.24,66.89,10.35,65.52,10.35z"/>
<g>
	<path class="st1" d="M28.46,31.28c-3.99,0-7.84,0-11.68,0c-0.37,0-0.74-0.04-1.24-0.07c-0.05-2.82-1.59-4.74-3.48-6.61
		C6.51,19.11,6.7,10.22,12.33,4.76C17.82-0.55,26.63-0.41,32,5.07c5.41,5.53,5.34,14.39-0.25,19.74
		C29.92,26.57,28.58,28.47,28.46,31.28z M21.95,29.2c1.24,0,2.48,0.06,3.7-0.03c0.4-0.03,1-0.39,1.11-0.74
		c0.66-2.01,1.9-3.56,3.4-5.01c3.22-3.12,4.37-6.96,3.37-11.33c-1.13-4.89-5.35-8.57-10.2-9.05c-5.16-0.51-10,2.21-12.11,6.79
		c-2.13,4.64-1.07,10.04,2.62,13.64c0.94,0.92,2.19,1.88,2.49,3.03c0.71,2.79,2.53,2.95,4.77,2.69
		C21.38,29.17,21.67,29.2,21.95,29.2z"/>
	<path class="st1" d="M16.09,39.01c0.23-0.03,0.46-0.08,0.68-0.08c3.69,0,7.38,0,11.08,0c-0.3,2.25-2.68,4.03-5.52,4.2
		C19.41,43.29,16.76,41.57,16.09,39.01z"/>
	<path class="st1" d="M22,35.59c2.14,0,4.28,0.01,6.41,0c0.85,0,1.77,0.03,1.75,1.14c-0.02,0.99-0.85,1.09-1.67,1.09
		c-4.32-0.01-8.65-0.01-12.97,0c-0.82,0-1.66-0.08-1.68-1.08c-0.02-1.12,0.89-1.15,1.74-1.15C17.73,35.6,19.86,35.59,22,35.59z"/>
	<path class="st1" d="M22.2,32.37c2.18,0,4.37-0.06,6.55,0.05c0.5,0.02,1.31,0.57,1.38,0.98c0.16,0.88-0.6,1.14-1.41,1.13
		c-4.46-0.01-8.92-0.01-13.38,0c-0.79,0-1.51-0.18-1.5-1.1c0.01-0.92,0.74-1.08,1.53-1.07C17.64,32.38,19.92,32.36,22.2,32.37z"/>
	<path class="st0" d="M21.95,29.2c-0.29,0-0.57-0.03-0.85,0.01c-2.24,0.26-4.06,0.1-4.77-2.69c-0.29-1.15-1.55-2.11-2.49-3.03
		c-3.69-3.61-4.75-9-2.62-13.64c2.11-4.59,6.95-7.3,12.11-6.79c4.85,0.48,9.08,4.16,10.2,9.05c1.01,4.37-0.15,8.21-3.37,11.33
		c-1.5,1.45-2.74,3-3.4,5.01c-0.11,0.34-0.71,0.7-1.11,0.74C24.43,29.26,23.19,29.2,21.95,29.2z"/>
</g>
</svg>
