<?xml version="1.0" encoding="utf-8"?>
<!-- Generator: Adobe Illustrator 24.2.3, SVG Export Plug-In . SVG Version: 6.00 Build 0)  -->
<svg version="1.1" id="Layer_1" xmlns="http://www.w3.org/2000/svg" xmlns:xlink="http://www.w3.org/1999/xlink" x="0px" y="0px"
	 viewBox="0 0 22 22" style="enable-background:new 0 0 22 22;" xml:space="preserve">
<style type="text/css">
	.st0{fill:#FAEBC8;}
	.st1{fill:#C32D25;}
	.st2{fill:#E76D1B;}
	.st3{fill:#FFFFFF;}
</style>
<path class="st0" d="M33.67-17.05L33.67-17.05c-1.37,0-2.48-1.11-2.48-2.48l0,0c0-1.37,1.11-2.48,2.48-2.48l0,0
	c1.37,0,2.48,1.11,2.48,2.48l0,0C36.15-18.16,35.04-17.05,33.67-17.05z"/>
<path class="st1" d="M41.23-17.05L41.23-17.05c-1.37,0-2.48-1.11-2.48-2.48l0,0c0-1.37,1.11-2.48,2.48-2.48l0,0
	c1.37,0,2.48,1.11,2.48,2.48l0,0C43.7-18.16,42.59-17.05,41.23-17.05z"/>
<path class="st2" d="M48.78-17.05L48.78-17.05c-1.37,0-2.48-1.11-2.48-2.48l0,0c0-1.37,1.11-2.48,2.48-2.48l0,0
	c1.37,0,2.48,1.11,2.48,2.48l0,0C51.26-18.16,50.15-17.05,48.78-17.05z"/>
<g>
	<path class="st1" d="M130.65-2.88c-2.92-0.7-5.53-1.33-8.15-1.96c0.04-0.2,0.09-0.41,0.13-0.61c2.02,0.43,4.04,0.87,6.19,1.33
		c-9.67-10.33-4.78-22.96,2.26-27.65c6.8-4.52,15.88-3.36,19.24,0.04c-11.61-4.67-20.67-2.45-25.43,9.85
		c-2.34,6.05,0.28,13.96,5.22,17.41c0-2.43,0-4.64,0-6.85c0.18,0.01,0.36,0.02,0.54,0.03C130.65-8.59,130.65-5.89,130.65-2.88z"/>
	<path class="st1" d="M151.91-29.57c0,2.55,0,4.73,0,6.91c-0.17-0.01-0.34-0.02-0.51-0.02c0-2.71,0-5.42,0-8.34
		c2.83,0.67,5.47,1.29,8.1,1.91c-0.04,0.21-0.08,0.42-0.12,0.63c-0.99-0.21-1.97-0.42-2.96-0.63c-1.01-0.22-2.02-0.44-3.48-0.77
		c4.41,4.52,6.32,9.61,5.5,15.47c-0.83,5.92-3.96,10.38-9.26,13.22c-5.59,2.99-15.63,2.38-17.42-1.04
		c10.62,4.52,19.36,2.81,24.73-8.06C159.68-16.75,157.55-24.99,151.91-29.57z"/>
	<path class="st1" d="M140.73-22.26c1.42-0.77,2.6-1.75,3.94-2.08c3.22-0.79,6.48,1.91,6.1,5.25c-0.23,2.05-0.96,4.34-2.23,5.89
		c-1.91,2.32-4.47,4.12-6.8,6.07c-0.28,0.24-1.01,0.28-1.33,0.08c-2.96-1.83-5.79-3.87-7.58-6.94c-0.78-1.34-1.33-2.9-1.61-4.43
		c-0.44-2.41,0.88-4.64,2.97-5.6c2.07-0.95,4.37-0.48,6.08,1.25C140.51-22.52,140.72-22.27,140.73-22.26z M141.01-19.99
		c-0.28-0.55-0.45-0.94-0.66-1.31c-1.07-1.93-3.14-2.8-5.2-2.19c-2.06,0.61-3.44,2.48-3.18,4.65c0.15,1.27,0.51,2.58,1.09,3.72
		c1.61,3.2,4.4,5.29,7.35,7.16c0.32,0.2,1.05,0.15,1.34-0.09c2.12-1.77,4.41-3.43,6.18-5.53c1.13-1.34,1.71-3.31,2.09-5.09
		c0.47-2.2-1.01-4.17-3.14-4.81c-2.05-0.62-4.12,0.25-5.2,2.19C141.46-20.93,141.29-20.54,141.01-19.99z"/>
	<path class="st0" d="M141.01-19.99c0.28-0.55,0.46-0.94,0.66-1.32c1.08-1.94,3.15-2.81,5.2-2.19c2.13,0.64,3.61,2.61,3.14,4.81
		c-0.38,1.78-0.96,3.75-2.09,5.09c-1.76,2.09-4.05,3.75-6.18,5.53c-0.29,0.24-1.03,0.29-1.34,0.09c-2.95-1.86-5.74-3.95-7.35-7.16
		c-0.57-1.14-0.93-2.45-1.09-3.72c-0.26-2.18,1.11-4.04,3.18-4.65c2.06-0.61,4.13,0.26,5.2,2.19
		C140.56-20.93,140.73-20.54,141.01-19.99z M136.01-13.52c-1.94-2.99-1.94-2.99-1.97-7.71C132.24-19.55,133.22-14.7,136.01-13.52z"
		/>
	<path class="st1" d="M136.01-13.52c-2.79-1.18-3.78-6.04-1.97-7.71C134.07-16.51,134.07-16.51,136.01-13.52z"/>
</g>
<g>
	<path d="M62.53-8.25c-0.38,0.02-0.72,0.08-1.05,0.04c-0.84-0.12-1.51-0.82-1.61-1.69c-0.04-0.33-0.09-0.42-0.47-0.4
		c-1.06,0.08-1.97-0.87-1.98-1.99c0-0.29-0.06-0.4-0.37-0.46c-1.31-0.25-1.92-1.68-1.3-2.96c0.04-0.08,0.07-0.17,0.13-0.23
		c0.3-0.31,0.23-0.59,0.07-0.98c-0.28-0.67-0.45-1.39-0.63-2.1c-0.07-0.3-0.19-0.53-0.42-0.73c-1.3-1.15-2.59-2.32-3.9-3.47
		c-0.32-0.28-0.4-0.56-0.29-0.97c0.41-1.5,1.11-2.87,1.91-4.19c0.94-1.55,2.07-2.94,3.42-4.15c0.51-0.46,0.68-0.47,1.24-0.05
		c1.22,0.92,2.45,1.84,3.66,2.77c0.29,0.22,0.58,0.32,0.96,0.3c2.05-0.1,4.09,0.05,6.11,0.47c0.13,0.03,0.28,0.02,0.4-0.03
		c0.94-0.45,1.94-0.57,2.96-0.51c1.45,0.08,2.85,0.39,4.25,0.76c0.25,0.07,0.46,0.05,0.68-0.09c1.43-0.88,2.87-1.75,4.3-2.63
		c0.52-0.32,0.68-0.31,1.1,0.15c2.25,2.46,3.94,5.25,4.91,8.46c0.15,0.5,0.08,0.84-0.33,1.16c-1.23,0.97-2.45,1.97-3.66,2.97
		c-0.18,0.15-0.33,0.38-0.4,0.6c-0.35,1.05-0.85,2.01-1.59,2.84c-0.17,0.18-0.18,0.32-0.07,0.55c0.58,1.18,0.22,2.31-0.9,2.84
		c-0.17,0.08-0.36,0.14-0.54,0.15c-0.24,0.01-0.33,0.1-0.38,0.34c-0.19,0.86-0.69,1.49-1.55,1.71c-0.39,0.1-0.82,0.02-1.26,0.02
		c-0.03,0.1-0.06,0.24-0.1,0.38c-0.35,1.29-1.7,1.95-2.76,1.55c-0.16-0.06-0.22-0.01-0.29,0.14c-0.61,1.25-1.66,1.7-2.99,1.3
		c-0.96-0.29-1.77-0.85-2.51-1.51c-0.24-0.21-0.38-0.21-0.6,0.01c-0.27,0.28-0.58,0.51-0.87,0.77c-1.12,0.98-2.67,0.57-3.17-0.85
		C62.59-8.07,62.56-8.18,62.53-8.25z M79.94-15.82c0.55-0.52,1.23-1.66,1.46-2.5c0.13-0.47,0.38-0.84,0.76-1.14
		c1.16-0.93,2.29-1.87,3.45-2.8c0.22-0.18,0.26-0.34,0.18-0.61c-0.91-2.97-2.48-5.56-4.58-7.83c-0.14-0.15-0.24-0.15-0.41-0.05
		c-1.39,0.86-2.78,1.7-4.16,2.57c-0.35,0.22-0.69,0.27-1.1,0.18c-1.22-0.26-2.45-0.53-3.68-0.72c-1.42-0.21-2.79-0.01-3.99,0.83
		c-1.23,0.87-2.45,1.76-3.67,2.65c-0.56,0.4-0.93,0.94-1.14,1.6c-0.39,1.2-0.82,2.38-1.48,3.47c-0.24,0.4,0.02,0.87,0.52,0.94
		c0.18,0.03,0.38,0.01,0.56-0.02c0.57-0.11,1.03-0.41,1.43-0.81c0.78-0.76,1.27-1.7,1.65-2.7c0.11-0.29,0.3-0.49,0.6-0.57
		c1.29-0.32,2.51-0.83,3.69-1.43c0.3-0.15,0.52-0.1,0.77,0.12c0.75,0.66,1.53,1.3,2.3,1.93c1.09,0.89,2.28,1.28,3.65,0.74
		c0.2-0.08,0.39-0.01,0.47,0.19c0.1,0.23,0,0.43-0.21,0.53c-0.23,0.11-0.48,0.21-0.73,0.24c-0.38,0.06-0.76,0.06-1.1,0.08
		C76.76-19.25,78.34-17.54,79.94-15.82z M58.12-12.35c0.15,0.33,0.23,0.64,0.41,0.88c0.34,0.47,1.07,0.58,1.46,0.22
		c0.79-0.73,1.57-1.46,2.31-2.24c0.61-0.64,0.37-1.68-0.43-1.98c-0.54-0.2-0.99,0.02-1.38,0.39c-0.65,0.63-1.3,1.25-1.92,1.91
		C58.37-12.95,58.28-12.65,58.12-12.35z M65.09-12.22c0-0.51-0.23-0.87-0.68-1.1c-0.42-0.21-0.96-0.13-1.3,0.2
		c-0.68,0.64-1.34,1.3-2.03,1.93c-0.4,0.37-0.52,0.81-0.4,1.32c0.2,0.83,1.11,1.19,1.7,0.66c0.79-0.72,1.57-1.46,2.35-2.19
		C64.96-11.62,65.1-11.89,65.09-12.22z M67.33-10.05c0-0.54-0.27-1.01-0.7-1.19c-0.48-0.2-0.87,0-1.22,0.32
		c-0.59,0.54-1.17,1.08-1.76,1.61c-0.32,0.29-0.42,0.63-0.3,1.05c0.26,0.88,1.18,1.19,1.88,0.61c0.61-0.51,1.19-1.05,1.78-1.59
		C67.24-9.46,67.35-9.73,67.33-10.05z M56.25-14.71c0.05,0.55,0.31,0.98,0.76,1.16c0.47,0.19,0.85,0.03,1.18-0.31
		c0.42-0.45,0.84-0.9,1.26-1.35c0.27-0.29,0.37-0.66,0.35-1.04c-0.02-0.45-0.24-0.77-0.64-0.97c-0.37-0.19-0.74-0.16-1.07,0.09
		c-0.62,0.47-1.18,1.01-1.57,1.69C56.41-15.22,56.35-14.95,56.25-14.71z"/>
	<path class="st0" d="M79.94-15.82c-1.59-1.72-3.18-3.43-4.73-5.11c0.34-0.02,0.72-0.02,1.1-0.08c0.25-0.04,0.5-0.13,0.73-0.24
		c0.2-0.1,0.31-0.3,0.21-0.53c-0.09-0.2-0.27-0.27-0.47-0.19c-1.38,0.55-2.57,0.15-3.65-0.74c-0.78-0.64-1.55-1.27-2.3-1.93
		c-0.25-0.22-0.47-0.27-0.77-0.12c-1.18,0.6-2.4,1.11-3.69,1.43c-0.3,0.08-0.49,0.28-0.6,0.57c-0.38,1-0.87,1.94-1.65,2.7
		c-0.41,0.39-0.87,0.7-1.43,0.81c-0.18,0.03-0.38,0.05-0.56,0.02c-0.5-0.07-0.77-0.54-0.52-0.94c0.66-1.09,1.1-2.27,1.48-3.47
		c0.21-0.66,0.58-1.19,1.14-1.6c1.22-0.88,2.44-1.78,3.67-2.65c1.2-0.85,2.58-1.04,3.99-0.83c1.24,0.18,2.46,0.45,3.68,0.72
		c0.41,0.09,0.75,0.04,1.1-0.18c1.38-0.86,2.78-1.71,4.16-2.57c0.16-0.1,0.27-0.09,0.41,0.05c2.11,2.27,3.67,4.86,4.58,7.83
		c0.08,0.27,0.04,0.43-0.18,0.61c-1.16,0.93-2.3,1.87-3.45,2.8c-0.38,0.3-0.63,0.67-0.76,1.14C81.17-17.48,80.48-16.33,79.94-15.82z
		"/>
	<path class="st0" d="M58.12-12.35c0.16-0.29,0.25-0.6,0.45-0.81c0.62-0.66,1.27-1.28,1.92-1.91c0.39-0.37,0.84-0.59,1.38-0.39
		c0.79,0.29,1.04,1.33,0.43,1.98c-0.74,0.78-1.52,1.51-2.31,2.24c-0.39,0.36-1.12,0.25-1.46-0.22
		C58.35-11.71,58.27-12.03,58.12-12.35z"/>
	<path class="st0" d="M65.09-12.22c0.01,0.33-0.13,0.6-0.36,0.82c-0.78,0.73-1.56,1.47-2.35,2.19c-0.58,0.53-1.49,0.17-1.7-0.66
		c-0.12-0.51,0-0.95,0.4-1.32c0.69-0.63,1.35-1.29,2.03-1.93c0.35-0.33,0.88-0.41,1.3-0.2C64.86-13.09,65.1-12.72,65.09-12.22z"/>
	<path class="st0" d="M67.33-10.05c0.02,0.32-0.09,0.59-0.32,0.8c-0.59,0.54-1.17,1.08-1.78,1.59c-0.7,0.58-1.62,0.27-1.88-0.61
		c-0.12-0.42-0.02-0.76,0.3-1.05c0.59-0.53,1.17-1.07,1.76-1.61c0.35-0.32,0.74-0.52,1.22-0.32C67.06-11.06,67.33-10.59,67.33-10.05
		z"/>
	<path class="st0" d="M56.25-14.71c0.09-0.25,0.15-0.51,0.28-0.74c0.39-0.68,0.95-1.22,1.57-1.69c0.32-0.25,0.69-0.28,1.07-0.09
		c0.39,0.2,0.62,0.52,0.64,0.97c0.01,0.39-0.08,0.75-0.35,1.04c-0.42,0.45-0.84,0.9-1.26,1.35c-0.33,0.35-0.71,0.5-1.18,0.31
		C56.57-13.73,56.3-14.16,56.25-14.71z"/>
</g>
<g>
	<path class="st2" d="M15.29-44.73c0.08-0.59-0.13-1.21-0.6-1.74c-0.03-0.03-0.05-0.07-0.08-0.1c-0.81-1.08-0.82-1.46,0.02-2.53
		c0.48-0.61,0.73-1.25,0.66-2.02c-0.02-0.17,0-0.34,0-0.51c0-0.73,0.35-1.19,1.04-1.4c0.13-0.04,0.26-0.1,0.4-0.13
		c0.8-0.17,1.37-0.63,1.82-1.32c0.68-1.05,1.11-1.2,2.26-0.76c0.81,0.31,1.57,0.34,2.37-0.01c0.22-0.09,0.45-0.15,0.69-0.19
		c0.46-0.08,0.86,0.05,1.17,0.42c0.1,0.12,0.22,0.22,0.29,0.36c0.47,0.88,1.22,1.33,2.17,1.58c0.97,0.26,1.25,0.66,1.2,1.66
		c-0.05,0.97,0.2,1.77,0.81,2.52c0.68,0.83,0.66,1.33-0.01,2.15c-0.6,0.73-0.85,1.5-0.8,2.44c0.06,1.09-0.23,1.47-1.3,1.75
		c-0.88,0.23-1.52,0.69-2.02,1.45c-0.63,0.97-1.05,1.11-2.14,0.7c-0.85-0.32-1.64-0.32-2.49,0c-1.08,0.41-1.52,0.25-2.17-0.73
		c-0.44-0.66-0.96-1.12-1.75-1.35C15.44-42.87,15.27-43.15,15.29-44.73z M28.1-47.82c0.01-3.34-2.72-6.09-6.07-6.11
		c-3.39-0.02-6.15,2.71-6.15,6.11c-0.01,3.34,2.73,6.08,6.09,6.1C25.33-41.71,28.09-44.45,28.1-47.82z"/>
	<path class="st2" d="M18.06-41.05c0.7,1.23,1.64,1.66,2.99,1.03c-0.64,1.75-1.24,3.38-1.83,5.02c-0.05,0-0.09,0-0.14,0
		c-0.27-0.68-0.54-1.36-0.84-2.1c-0.63,0.38-1.25,0.75-1.87,1.11c-0.04-0.02-0.09-0.04-0.13-0.06
		C16.85-37.69,17.44-39.32,18.06-41.05z"/>
	<path class="st2" d="M25.87-40.99c0.62,1.71,1.2,3.31,1.79,4.91c-0.03,0.03-0.07,0.07-0.1,0.1c-0.62-0.37-1.24-0.74-1.89-1.13
		c-0.29,0.72-0.56,1.41-0.83,2.09c-0.05,0.01-0.1,0.01-0.14,0.02c-0.6-1.64-1.2-3.28-1.84-5.03C24.16-39.45,25.15-39.71,25.87-40.99
		z"/>
	<path class="st0" d="M28.1-47.82c-0.01,3.37-2.78,6.11-6.13,6.09c-3.36-0.02-6.09-2.76-6.09-6.1c0.01-3.4,2.76-6.13,6.15-6.11
		C25.38-53.91,28.11-51.16,28.1-47.82z M21.98-53.02c-2.92,0.03-5.24,2.37-5.2,5.23c0.04,2.89,2.39,5.19,5.28,5.16
		c2.85-0.03,5.17-2.4,5.14-5.26C27.17-50.73,24.81-53.05,21.98-53.02z"/>
	<path class="st2" d="M21.98-53.02c2.83-0.03,5.19,2.29,5.22,5.13c0.03,2.86-2.29,5.23-5.14,5.26c-2.89,0.03-5.25-2.27-5.28-5.16
		C16.74-50.66,19.07-52.99,21.98-53.02z M23.71-45.47c-0.09-0.54-0.15-1.01-0.25-1.47c-0.06-0.3-0.02-0.52,0.23-0.74
		c0.36-0.32,0.67-0.69,1.03-1.07c-0.53-0.08-1.01-0.16-1.49-0.21c-0.27-0.03-0.43-0.14-0.53-0.39c-0.2-0.45-0.43-0.89-0.69-1.42
		c-0.27,0.55-0.49,0.98-0.69,1.42c-0.11,0.24-0.27,0.36-0.53,0.38c-0.49,0.05-0.98,0.14-1.51,0.22c0.36,0.37,0.65,0.71,0.99,1
		c0.28,0.24,0.36,0.48,0.27,0.84c-0.11,0.44-0.16,0.9-0.24,1.43c0.53-0.28,0.98-0.54,1.45-0.75c0.15-0.07,0.38-0.07,0.53,0
		C22.73-46,23.17-45.75,23.71-45.47z"/>
	<path class="st0" d="M23.71-45.47c-0.53-0.28-0.98-0.54-1.45-0.75c-0.15-0.07-0.38-0.07-0.53,0c-0.47,0.21-0.92,0.47-1.45,0.75
		c0.09-0.53,0.14-0.98,0.24-1.43c0.09-0.36,0-0.6-0.27-0.84c-0.33-0.29-0.63-0.63-0.99-1c0.53-0.08,1.01-0.17,1.51-0.22
		c0.27-0.03,0.43-0.14,0.53-0.38c0.2-0.44,0.42-0.88,0.69-1.42c0.26,0.53,0.49,0.97,0.69,1.42c0.11,0.24,0.26,0.36,0.53,0.39
		c0.48,0.05,0.97,0.13,1.49,0.21c-0.36,0.38-0.67,0.75-1.03,1.07c-0.24,0.22-0.29,0.44-0.23,0.74
		C23.55-46.48,23.62-46.01,23.71-45.47z"/>
</g>
<g>
	<path class="st1" d="M14.99,9.61c0.61-0.07,1.22-0.14,1.84-0.21c0.43-0.05,0.87-0.09,1.3-0.15c0.45-0.05,0.9-0.12,1.35-0.17
		c0.08-0.01,0.17,0,0.25,0c0,0.01,0.01,0.02,0.01,0.03c-0.03,0.02-0.06,0.04-0.09,0.05c-0.25,0.03-0.51,0.07-0.76,0.1
		c-0.04,0.01-0.09,0.01-0.13,0.03c0.12-0.01,0.24-0.02,0.36-0.02c-0.68,0.06-1.35,0.24-2.04,0.21c0.02,0.01,0.05,0.01,0.07,0.02
		c0,0.01,0,0.01,0,0.02c-0.13,0.02-0.25,0.04-0.38,0.05c-0.28,0.04-0.56,0.07-0.84,0.1c-0.31,0.04-0.63,0.07-0.94,0.12
		c-0.19,0.03-0.38,0.07-0.57,0.1c-0.2,0.03-0.4,0.04-0.59,0.08c-0.12,0.02-0.24,0.08-0.35,0.13c-0.05,0.03-0.09,0.09-0.13,0.14
		c-0.01,0.01-0.02,0.03-0.02,0.04c0.05,0.11-0.02,0.12-0.1,0.12c-0.06,0.01-0.1,0.03-0.09,0.1c0.01,0.03-0.01,0.06-0.01,0.08
		c0.08,0.09,0.15,0.18,0.24,0.29c0.16-0.01,0.36-0.03,0.55-0.05c0.61-0.07,1.21-0.14,1.82-0.21c1.14-0.14,2.27-0.28,3.41-0.43
		c0.12-0.02,0.25-0.01,0.21-0.23c0.1,0.09,0.17,0.16,0.25,0.24c-0.03,0-0.06,0.01-0.08,0.01c-0.44-0.03-0.87,0.09-1.31,0.14
		c-0.47,0.04-0.93,0.11-1.39,0.17c-0.46,0.06-0.92,0.12-1.37,0.17c-0.36,0.05-0.72,0.09-1.09,0.14c-0.1,0.01-0.21,0.04-0.31,0.07
		c-0.04,0.01-0.06,0.06-0.09,0.1c1.86-0.19,3.7-0.43,5.54-0.69c-0.11,0-0.22,0-0.33,0c0-0.01,0-0.02,0-0.03c0.17,0,0.34,0,0.5,0
		c-0.01,0.08-0.04,0.12-0.12,0.12c-0.23,0.02-0.46,0.06-0.69,0.09c-0.06,0.01-0.12,0.05-0.19,0.08c-0.02-0.03-0.07-0.05-0.12,0.03
		c0.07,0.02,0.12,0.03,0.17,0.04c0,0.01,0,0.02,0,0.03c-0.04,0-0.08,0.01-0.11,0.01c0,0.01-0.01,0.01-0.01,0.02
		c0.06,0.03,0.12,0.07,0.18,0.1c0.37,0.12,0.73,0.24,1.1,0.36c0.49,0.15,0.98,0.3,1.47,0.45c0.04,0.01,0.11,0.05,0.1,0.06
		c-0.02,0.05-0.04,0.1-0.08,0.14c-0.03,0.03-0.08,0.05-0.12,0.07c-0.13,0.06-0.23,0.15-0.28,0.27c0.09,0.01,0.19,0.03,0.28,0.05
		c0.04,0.01,0.08,0.03,0.12,0.05c0.11,0.07,0.11,0.15,0,0.21c-0.75,0.44-1.49,0.89-2.24,1.33c-2.81,1.65-5.63,3.3-8.44,4.96
		c-0.1,0.06-0.17,0.01-0.24-0.02c-0.61-0.27-1.21-0.54-1.82-0.82c-0.2-0.09-0.4-0.2-0.61-0.28c-0.63-0.26-1.23-0.56-1.85-0.84
		C5.61,16.5,5,16.21,4.38,15.93c-0.62-0.28-1.24-0.57-1.86-0.85c-0.51-0.23-1.01-0.46-1.52-0.7c-0.05-0.02-0.09-0.04-0.13-0.07
		c-0.05-0.05-0.1-0.07-0.18-0.06c-0.03,0.01-0.09-0.04-0.1-0.07c-0.04-0.22-0.07-0.45-0.1-0.67c-0.01-0.07,0.02-0.1,0.08-0.13
		c0.18-0.08,0.36-0.16,0.54-0.23c0.04-0.02,0.08-0.04,0.14-0.07C1.17,13,1.1,12.9,1,12.86c-0.08-0.04-0.11-0.08-0.11-0.15
		c-0.01-0.2-0.02-0.4-0.03-0.61c0-0.11,0.02-0.22,0.02-0.34c0-0.09,0.06-0.13,0.14-0.16c0.28-0.08,0.56-0.16,0.84-0.25
		c0.07-0.02,0.14-0.05,0.23-0.07c-0.02-0.03-0.03-0.06-0.04-0.08c-0.07-0.1-0.14-0.21-0.21-0.31c0-0.01-0.01-0.01-0.01-0.02
		c-0.09-0.08-0.14-0.18-0.09-0.31c0.01-0.02,0-0.04-0.01-0.06C1.56,10.18,1.56,9.82,1.6,9.45C1.6,9.36,1.65,9.32,1.73,9.3
		c0.25-0.06,0.51-0.12,0.76-0.17c0.26-0.05,0.52-0.1,0.78-0.14C3.3,8.98,3.33,8.97,3.36,8.94C3.34,8.93,3.31,8.92,3.29,8.91
		c-0.18-0.07-0.38-0.1-0.5-0.28C2.77,8.62,2.75,8.61,2.74,8.61C2.6,8.62,2.55,8.51,2.51,8.42C2.31,8.02,2.3,7.58,2.26,7.15
		C2.23,6.93,2.29,6.71,2.31,6.5c0.01-0.08,0.06-0.12,0.13-0.15C2.76,6.24,3.08,6.13,3.4,6.03c2.93-0.91,5.86-1.81,8.8-2.72
		c0.09-0.03,0.17-0.06,0.26-0.07c0.07-0.01,0.14,0,0.21,0.01c0.03,0,0.06,0.02,0.07,0.02c0.12-0.05,0.23,0.01,0.34,0.04
		c1.9,0.52,3.8,1,5.72,1.44c0.21,0.05,0.43,0.1,0.64,0.16c0.04,0.01,0.07,0.05,0.1,0.08c-0.03,0.03-0.06,0.08-0.1,0.1
		c-0.97,0.38-1.95,0.75-2.92,1.12c-0.91,0.35-1.81,0.69-2.72,1.03c-1.3,0.5-2.6,1-3.9,1.49c-0.09,0.03-0.18,0.07-0.27,0.1
		C9.61,8.83,9.57,8.84,9.55,8.86C9.5,8.94,9.43,8.92,9.36,8.9c-0.5-0.17-1-0.34-1.5-0.52C7.25,8.17,6.64,7.95,6.03,7.74
		C5.64,7.6,5.24,7.48,4.85,7.35c-0.29-0.1-0.59-0.21-0.88-0.31C3.7,6.94,3.43,6.85,3.16,6.75C3.13,6.74,3.1,6.73,3.07,6.71
		C2.94,6.64,2.82,6.65,2.69,6.68C2.57,6.71,2.57,6.82,2.57,6.91c0,0.49,0.05,0.98,0.2,1.46C2.8,8.49,2.85,8.48,2.96,8.48
		c0.12,0,0.25,0.05,0.36,0.1c0.88,0.35,1.75,0.7,2.63,1.05C6.01,9.66,6.09,9.67,6.17,9.7c0.32,0.13,0.64,0.26,0.96,0.38
		c0.52,0.2,1.04,0.39,1.55,0.59c0.29,0.11,0.57,0.22,0.86,0.33c0.08,0.03,0.15,0.04,0.24,0c1.33-0.55,2.66-1.09,3.99-1.65
		c1.58-0.65,3.15-1.31,4.72-1.97c0.23-0.1,0.46-0.2,0.69-0.31c0.04-0.02,0.06-0.05,0.1-0.08c0.06,0.01,0.13,0.02,0.19,0.04
		c0.05,0.01,0.1,0.02,0.11,0.09c0.01,0.07-0.04,0.09-0.09,0.11c-0.38,0.17-0.77,0.33-1.15,0.5c-0.03,0.01-0.06,0.03-0.11,0.05
		c0.11,0.1,0.21,0.2,0.31,0.29c-0.18,0.17-0.4,0.2-0.62,0.25c-0.05,0.01-0.09,0.02-0.12,0.08c-0.03,0.06-0.07,0.11-0.16,0.06
		c-0.04-0.02-0.15,0.02-0.18,0.07c-0.07,0.09-0.17,0.11-0.25,0.12c-0.16,0.02-0.32,0.04-0.44,0.18c0.01,0.02,0.04,0.06,0.06,0.1
		c-0.01,0.01-0.02,0.02-0.02,0.02c-0.05-0.1-0.13-0.07-0.21-0.06c-0.11,0.02-0.22,0.02-0.33,0.05c-0.08,0.02-0.14,0.08-0.21,0.12
		c-0.03,0.02-0.08,0.02-0.12,0.03c-0.01,0-0.03-0.01-0.04-0.01c-0.14,0.09-0.36,0.04-0.44,0.24c0,0.01-0.07,0.02-0.08,0.01
		c-0.09-0.06-0.21-0.03-0.26,0.06C15.08,9.48,15.04,9.54,14.99,9.61c-0.1-0.01-0.21-0.03-0.32-0.03c-0.1,0.01-0.2,0.04-0.31,0.06
		c-0.05,0.01-0.11,0.02-0.16,0.03c0,0.01,0,0.03,0.01,0.04C14.47,9.68,14.73,9.64,14.99,9.61z M10.85,18c0.03,0,0.06,0,0.08-0.01
		c0.03-0.01,0.06-0.02,0.09-0.04c0.11-0.06,0.22-0.13,0.33-0.19c0.06-0.03,0.11-0.08,0.16-0.11c0.04-0.02,0.08-0.03,0.12-0.05
		c0.14-0.08,0.29-0.16,0.43-0.25c0.05-0.03,0.1-0.07,0.15-0.11c-0.01-0.01-0.01-0.02-0.02-0.02c-0.03,0.01-0.05,0.02-0.08,0.03
		c-0.39,0.23-0.77,0.45-1.16,0.68C10.92,17.94,10.89,17.97,10.85,18c-0.09,0.01-0.17,0.05-0.2,0.14
		C10.73,18.11,10.81,18.08,10.85,18z M5.47,14.68c-0.01,0.01-0.02,0.02-0.03,0.03c-0.49-0.31-0.97-0.62-1.46-0.94
		c-0.6-0.39-1.2-0.78-1.81-1.17c-0.27-0.17-0.53-0.35-0.8-0.51c-0.1-0.06-0.22-0.04-0.22,0.1c0,0.14,0,0.28,0.02,0.42
		c0,0.03,0.03,0.07,0.06,0.09c0.08,0.06,0.16,0.1,0.24,0.16c1.15,0.77,2.29,1.54,3.44,2.31c1.01,0.68,2.02,1.35,3.03,2.03
		c0.03,0.02,0.09,0.02,0.13,0.01C8.25,17.15,8.42,17.07,8.6,17c0.21-0.09,0.43-0.17,0.64-0.26c0.13-0.06,0.24-0.13,0.36-0.2
		c0.06-0.04,0.12-0.08,0.18-0.13c0.05-0.03,0.09-0.08,0.14-0.1c0.24-0.09,0.48-0.18,0.71-0.27c0.06-0.02,0.12-0.05,0.19-0.03
		c0.05,0.02,0.11,0,0.16,0c0.2-0.01,0.33-0.2,0.54-0.2c0,0,0.01,0,0.01,0c0.15-0.03,0.28-0.13,0.45-0.11c0.04,0,0.09-0.02,0.11-0.05
		c0.06-0.08,0.14-0.1,0.24-0.09c0.03,0,0.05,0,0.08,0c0.17-0.06,0.34-0.12,0.52-0.18c0.06-0.02,0.13-0.03,0.2-0.05
		c0.09-0.03,0.17-0.08,0.25-0.11c0.23-0.08,0.47-0.15,0.71-0.24c0.36-0.13,0.71-0.27,1.07-0.4c0.26-0.1,0.52-0.18,0.78-0.28
		c0.26-0.1,0.52-0.21,0.79-0.3c0.56-0.21,1.12-0.42,1.69-0.63c0.29-0.11,0.58-0.22,0.87-0.33c0.3-0.12,0.6-0.21,0.89-0.37
		c0.12-0.07,0.17-0.14,0.19-0.26c0.02-0.15,0.05-0.3,0.07-0.47c-0.14,0.05-0.26,0.08-0.37,0.12c-1.28,0.47-2.56,0.93-3.84,1.4
		c-0.6,0.22-1.19,0.45-1.79,0.68c-1.09,0.41-2.19,0.81-3.29,1.22c-0.42,0.16-0.84,0.32-1.27,0.48C9.35,16,8.84,16.19,8.33,16.39
		c-0.11,0.04-0.19,0.04-0.29-0.02c-0.3-0.2-0.61-0.39-0.92-0.58c-0.47-0.3-0.94-0.6-1.41-0.9c-0.03-0.02-0.05-0.04-0.08-0.06
		c0.1-0.09,0.18-0.15,0.31-0.17c0.31-0.06,0.61-0.14,0.91-0.21c0.36-0.09,0.72-0.18,1.08-0.27c0.34-0.08,0.68-0.16,1.01-0.25
		c0.11-0.03,0.21-0.07,0.31-0.1c0-0.01-0.01-0.02-0.01-0.03C8.12,14.05,7,14.31,5.88,14.56c1.96-0.49,3.93-0.98,5.9-1.45
		c1.98-0.46,3.96-0.91,5.92-1.43c-3.87,0.78-7.71,1.75-11.58,2.57c1.48-0.33,2.95-0.68,4.41-1.09c-0.01-0.01-0.02-0.01-0.03,0
		c-0.57,0.12-1.15,0.25-1.72,0.38c-0.98,0.21-1.96,0.43-2.94,0.64c-0.03,0.01-0.07,0-0.11,0c0-0.01,0-0.01,0-0.02
		c3.56-0.8,7.13-1.6,10.69-2.4c0-0.01,0-0.02-0.01-0.04c-0.03,0-0.07-0.01-0.1,0c-0.31,0.06-0.63,0.11-0.94,0.17
		c-0.59,0.13-1.18,0.27-1.77,0.4c-0.57,0.13-1.13,0.25-1.7,0.38c-0.49,0.11-0.98,0.23-1.47,0.35c-0.36,0.08-0.71,0.15-1.07,0.22
		c-1,0.22-2,0.44-3.01,0.66C6.15,13.96,5.93,14,5.71,14.04c0-0.01,0-0.02-0.01-0.03c1.72-0.39,3.44-0.79,5.16-1.18
		c1.72-0.39,3.45-0.73,5.16-1.18c-3.44,0.72-6.87,1.54-10.31,2.25c0-0.01-0.01-0.03-0.01-0.04c1.6-0.36,3.2-0.73,4.8-1.09
		c0-0.02-0.01-0.03-0.01-0.05c-1.58,0.35-3.16,0.69-4.75,1.04c0-0.01-0.01-0.03-0.01-0.04c0.17-0.04,0.34-0.09,0.51-0.13
		c0-0.01,0-0.02-0.01-0.02c-0.13,0.02-0.27,0.05-0.4,0.07c0-0.01,0-0.02,0-0.02c1.26-0.29,2.52-0.58,3.77-0.88
		c0-0.01,0-0.02-0.01-0.03c-0.11,0.02-0.23,0.03-0.34,0.06C8.76,12.88,8.25,13,7.73,13.11c-0.59,0.13-1.17,0.26-1.76,0.38
		c-0.09,0.02-0.18,0.03-0.27,0.04c0-0.01,0-0.03-0.01-0.04c0.18-0.05,0.37-0.1,0.55-0.15c0-0.01,0-0.01,0-0.02
		c-0.17,0.03-0.33,0.07-0.5,0.1c0-0.01,0-0.02-0.01-0.03c0.24-0.06,0.49-0.12,0.73-0.18c0-0.01,0-0.02-0.01-0.03
		c-0.24,0.03-0.46,0.12-0.7,0.12c0-0.01,0-0.02,0-0.03c0.22-0.06,0.45-0.11,0.67-0.17c0-0.01,0-0.02-0.01-0.03
		c-0.03,0-0.06,0-0.09,0.01c-0.22,0.02-0.43,0.14-0.67,0.07c-0.07-0.02-0.09-0.04-0.11-0.1c0.55-0.13,1.11-0.24,1.65-0.39
		c0.54-0.14,1.11-0.21,1.65-0.37c0-0.01,0-0.02,0-0.03c-0.03,0-0.06,0-0.09-0.01c0.11-0.15,0.11-0.16-0.06-0.23
		c-0.07-0.03-0.14-0.03-0.2-0.06c-0.2-0.12-0.41-0.1-0.63-0.08c-0.89,0.1-1.79,0.21-2.68,0.31c-0.04,0-0.08,0-0.12,0
		c0.01-0.19,0.13-0.26,0.41-0.24C5.34,12,5.22,12.03,5.11,12.06c0,0.01,0,0.01,0.01,0.02c0.88-0.11,1.76-0.21,2.64-0.32
		c0-0.01,0-0.03,0-0.04c-0.14-0.02-0.29-0.06-0.43-0.06c-0.2,0-0.4,0.03-0.6,0.05c-0.48,0.05-0.97,0.09-1.45,0.14
		c-0.01,0-0.02,0-0.03-0.01c0.93-0.12,1.86-0.21,2.8-0.35C8,11.44,7.98,11.41,7.95,11.36c-0.03,0-0.09-0.01-0.17-0.02
		c0.06-0.02,0.08-0.04,0.11-0.05c-0.1-0.04-0.17-0.1-0.19-0.21c0-0.02-0.04-0.05-0.07-0.06C7.62,11,7.57,10.99,7.57,10.97
		c-0.04-0.1-0.11-0.09-0.19-0.08c-0.22,0.02-0.44,0.05-0.65,0.07c-0.09,0.01-0.18,0.03-0.26,0.01c-0.1-0.03-0.18-0.03-0.27,0.02
		C6.16,11,6.12,11,6.09,11c-0.07,0-0.14-0.01-0.21-0.01C5.71,11,5.53,11.02,5.35,11.03c-0.04,0-0.1-0.03-0.12-0.06
		c-0.03-0.08-0.07-0.11-0.16-0.1c-0.02,0-0.04-0.02-0.06-0.03c0.01-0.02,0.02-0.04,0.04-0.05c0.02-0.01,0.04-0.01,0.07-0.02
		c0.13-0.02,0.26-0.03,0.38-0.05c0.45-0.06,0.9-0.11,1.34-0.17c0.12-0.01,0.24-0.03,0.35-0.05c0-0.01,0-0.02,0-0.02
		c-0.97-0.38-1.95-0.76-2.94-1.14C4.27,9.38,4.27,9.4,4.28,9.42C4.33,9.51,4.35,9.6,4.26,9.69C4.19,9.76,4.2,9.85,4.25,9.93
		c0.04,0.08,0.06,0.16,0.09,0.22c-0.07,0.06-0.13,0.1-0.16,0.13c-0.06-0.05-0.13-0.12-0.21-0.17c-0.14-0.08-0.29-0.13-0.43-0.2
		C3.48,9.89,3.43,9.84,3.39,9.79C3.32,9.71,3.28,9.61,3.13,9.64C2.9,9.69,2.67,9.72,2.44,9.76C2.36,9.78,2.28,9.79,2.26,9.9
		C2.15,9.81,2.05,9.73,1.94,9.64C1.93,9.67,1.92,9.69,1.92,9.71c0.01,0.23,0.01,0.47,0.02,0.7c0.01,0.18,0.01,0.36,0.21,0.48
		c0.13,0.08,0.23,0.23,0.34,0.35c0.02,0.02,0.03,0.04,0.06,0.07c-0.04,0.01-0.07,0.01-0.09,0.02c-0.05,0.02-0.1,0.04-0.14,0.05
		c0.03,0.04,0.05,0.09,0.08,0.13c0.36,0.37,0.71,0.73,1.07,1.1c0.17,0.18,0.35,0.35,0.52,0.53c0.29,0.32,0.58,0.64,0.88,0.95
		C5.05,14.3,5.26,14.49,5.47,14.68z M11.02,12.64c1.44-0.3,2.89-0.59,4.31-0.96C15.18,11.66,11.17,12.55,11.02,12.64z M11.36,12.32
		c0,0.01,0,0.02,0.01,0.03c1.18-0.26,2.36-0.51,3.53-0.77c0-0.02-0.01-0.03-0.01-0.05C13.71,11.79,12.53,12.04,11.36,12.32z
		 M11.46,12.94c0,0.01,0,0.03,0.01,0.04c1.51-0.34,3.03-0.68,4.54-1.03c0-0.01-0.01-0.03-0.01-0.04
		C14.49,12.26,12.97,12.6,11.46,12.94z M14.37,12.66c0-0.01-0.01-0.03-0.01-0.04c-0.14,0.03-0.28,0.07-0.43,0.1
		c0,0.01,0.01,0.02,0.01,0.04C14.08,12.72,14.22,12.69,14.37,12.66z M1.65,14.14c-0.01,0.01-0.01,0.02-0.02,0.04
		c0.07,0.04,0.15,0.08,0.22,0.11c0.01-0.01,0.01-0.03,0.02-0.04C1.8,14.21,1.72,14.17,1.65,14.14z M5.84,13.1
		c0,0.01,0,0.02,0.01,0.03c0.12-0.03,0.24-0.06,0.36-0.08c0-0.01,0-0.02-0.01-0.03C6.08,13.05,5.96,13.07,5.84,13.1z M3.3,14.94
		c0.01-0.01,0.01-0.02,0.02-0.04c-0.08-0.04-0.16-0.08-0.23-0.12c-0.01,0.01-0.01,0.02-0.02,0.03C3.15,14.86,3.23,14.9,3.3,14.94z
		 M10.83,13.09c0,0.01,0,0.02,0.01,0.03c0.12-0.03,0.24-0.05,0.36-0.08c0-0.01,0-0.01,0-0.02C11.07,13.04,10.95,13.06,10.83,13.09z
		 M13.71,11.69c0-0.01-0.01-0.02-0.01-0.03c-0.1,0.02-0.19,0.05-0.29,0.07c0,0.01,0,0.01,0,0.02
		C13.52,11.73,13.62,11.71,13.71,11.69z M13.82,11.65c0,0.01,0,0.02,0.01,0.03c0.12-0.03,0.23-0.05,0.35-0.08c0-0.01,0-0.01,0-0.02
		C14.05,11.6,13.93,11.62,13.82,11.65z"/>
	<path class="st0" d="M5.47,14.68c-0.2-0.2-0.41-0.38-0.61-0.59c-0.3-0.31-0.58-0.64-0.88-0.95c-0.17-0.18-0.35-0.36-0.52-0.53
		c-0.36-0.37-0.72-0.73-1.07-1.1c-0.03-0.04-0.05-0.09-0.08-0.13c0.05-0.02,0.09-0.04,0.14-0.05c0.02-0.01,0.05-0.01,0.09-0.02
		c-0.02-0.03-0.04-0.05-0.06-0.07c-0.11-0.12-0.21-0.26-0.34-0.35c-0.2-0.12-0.2-0.3-0.21-0.48c-0.01-0.23-0.01-0.47-0.02-0.7
		c0-0.02,0.01-0.03,0.02-0.06C2.05,9.73,2.15,9.81,2.26,9.9c0.02-0.11,0.1-0.12,0.18-0.13c0.23-0.04,0.47-0.07,0.7-0.12
		c0.14-0.03,0.19,0.07,0.26,0.15c0.04,0.05,0.09,0.1,0.15,0.12c0.14,0.07,0.29,0.13,0.43,0.2c0.08,0.04,0.15,0.12,0.21,0.17
		c0.03-0.03,0.09-0.08,0.16-0.13c-0.02-0.06-0.05-0.14-0.09-0.22C4.2,9.85,4.19,9.76,4.26,9.69C4.35,9.6,4.33,9.51,4.28,9.42
		C4.27,9.4,4.27,9.38,4.26,9.35c0.99,0.38,1.96,0.76,2.94,1.14c0,0.01,0,0.02,0,0.02c-0.12,0.02-0.24,0.03-0.35,0.05
		c-0.45,0.06-0.9,0.11-1.34,0.17c-0.13,0.02-0.26,0.03-0.38,0.05c-0.02,0-0.05,0.01-0.07,0.02c-0.02,0.01-0.03,0.03-0.04,0.05
		c0.02,0.01,0.04,0.04,0.06,0.03c0.08-0.01,0.13,0.02,0.16,0.1c0.01,0.03,0.08,0.06,0.12,0.06c0.18-0.01,0.36-0.03,0.54-0.04
		c0.07,0,0.14,0.01,0.21,0.01c0.03,0,0.07,0,0.09-0.02c0.09-0.05,0.17-0.05,0.27-0.02c0.08,0.02,0.18,0,0.26-0.01
		c0.22-0.02,0.44-0.05,0.65-0.07c0.08-0.01,0.15-0.01,0.19,0.08c0.01,0.02,0.05,0.03,0.08,0.05c0.02,0.02,0.06,0.04,0.07,0.06
		c0.01,0.11,0.08,0.17,0.19,0.21c-0.03,0.01-0.06,0.02-0.11,0.05c0.08,0.01,0.13,0.01,0.17,0.02C7.98,11.41,8,11.44,8.04,11.5
		c-0.93,0.14-1.87,0.22-2.8,0.35c0.01,0,0.02,0.01,0.03,0.01c0.48-0.05,0.97-0.09,1.45-0.14c0.2-0.02,0.4-0.05,0.6-0.05
		c0.14,0,0.29,0.04,0.43,0.06c0,0.01,0,0.03,0,0.04C6.88,11.87,6,11.97,5.12,12.08c0-0.01,0-0.01-0.01-0.02
		c0.12-0.03,0.23-0.05,0.36-0.08c-0.28-0.02-0.41,0.05-0.41,0.24c0.04,0,0.08,0,0.12,0c0.89-0.1,1.79-0.21,2.68-0.31
		c0.22-0.03,0.43-0.04,0.63,0.08c0.06,0.03,0.14,0.04,0.2,0.06c0.17,0.07,0.17,0.08,0.06,0.23c0.03,0,0.06,0,0.09,0.01
		c0,0.01,0,0.02,0,0.03c-0.54,0.17-1.1,0.23-1.65,0.37c-0.55,0.14-1.1,0.26-1.65,0.39c0.02,0.06,0.04,0.09,0.11,0.1
		c0.24,0.06,0.44-0.05,0.67-0.07c0.03,0,0.06,0,0.09-0.01c0,0.01,0,0.02,0.01,0.03c-0.22,0.06-0.45,0.11-0.67,0.17
		c0,0.01,0,0.02,0,0.03c0.24,0,0.47-0.09,0.7-0.12c0,0.01,0,0.02,0.01,0.03c-0.24,0.06-0.49,0.12-0.73,0.18c0,0.01,0,0.02,0.01,0.03
		c0.17-0.03,0.33-0.07,0.5-0.1c0,0.01,0,0.01,0,0.02c-0.18,0.05-0.37,0.1-0.55,0.15c0,0.01,0,0.03,0.01,0.04
		c0.09-0.01,0.18-0.02,0.27-0.04c0.59-0.13,1.17-0.26,1.76-0.38c0.51-0.11,1.02-0.23,1.53-0.34c0.11-0.02,0.22-0.04,0.34-0.06
		c0,0.01,0,0.02,0.01,0.03c-1.26,0.29-2.52,0.58-3.77,0.88c0,0.01,0,0.02,0,0.02c0.13-0.02,0.27-0.05,0.4-0.07
		c0,0.01,0,0.02,0.01,0.02c-0.17,0.04-0.34,0.09-0.51,0.13c0,0.01,0.01,0.03,0.01,0.04c1.58-0.35,3.16-0.69,4.75-1.04
		c0,0.02,0.01,0.03,0.01,0.05c-1.6,0.36-3.2,0.73-4.8,1.09c0,0.01,0.01,0.03,0.01,0.04c3.45-0.71,6.87-1.53,10.31-2.25
		c-1.71,0.45-3.44,0.79-5.16,1.18c-1.72,0.39-3.44,0.78-5.16,1.18c0,0.01,0,0.02,0.01,0.03c0.22-0.05,0.44-0.09,0.66-0.14
		c1-0.22,2-0.44,3.01-0.66c0.36-0.08,0.72-0.14,1.07-0.22c0.49-0.11,0.98-0.23,1.47-0.35c0.57-0.13,1.13-0.26,1.7-0.38
		c0.59-0.13,1.18-0.27,1.77-0.4c0.31-0.07,0.63-0.12,0.94-0.17c0.03-0.01,0.07,0,0.1,0c0,0.01,0,0.02,0.01,0.04
		c-3.56,0.8-7.13,1.6-10.69,2.4c0,0.01,0,0.01,0,0.02c0.04,0,0.07,0.01,0.11,0c0.98-0.21,1.96-0.42,2.94-0.64
		c0.57-0.12,1.15-0.25,1.72-0.38c0.01,0,0.02,0,0.03,0c-1.46,0.4-2.94,0.75-4.41,1.09c3.87-0.82,7.7-1.78,11.58-2.57
		c-1.96,0.52-3.94,0.97-5.92,1.43c-1.97,0.46-3.94,0.95-5.9,1.45c1.12-0.26,2.24-0.51,3.37-0.77c0,0.01,0.01,0.02,0.01,0.03
		c-0.1,0.03-0.21,0.07-0.31,0.1c-0.34,0.09-0.68,0.17-1.01,0.25c-0.36,0.09-0.72,0.18-1.08,0.27c-0.3,0.07-0.61,0.15-0.91,0.21
		c-0.12,0.02-0.21,0.09-0.31,0.17c0.03,0.02,0.05,0.04,0.08,0.06c0.47,0.3,0.94,0.6,1.41,0.9c0.31,0.19,0.61,0.38,0.92,0.58
		c0.1,0.06,0.18,0.06,0.29,0.02c0.51-0.2,1.02-0.39,1.53-0.59c0.42-0.16,0.84-0.32,1.27-0.48c1.09-0.41,2.19-0.81,3.29-1.22
		c0.6-0.22,1.19-0.46,1.79-0.68c1.28-0.47,2.56-0.93,3.84-1.4c0.11-0.04,0.22-0.08,0.37-0.12c-0.03,0.17-0.05,0.32-0.07,0.47
		c-0.02,0.12-0.07,0.19-0.19,0.26c-0.28,0.16-0.59,0.26-0.89,0.37c-0.29,0.11-0.58,0.22-0.87,0.33c-0.56,0.21-1.12,0.42-1.69,0.63
		c-0.26,0.1-0.52,0.21-0.79,0.3c-0.26,0.1-0.52,0.18-0.78,0.28c-0.36,0.13-0.71,0.27-1.07,0.4c-0.23,0.08-0.47,0.15-0.71,0.24
		c-0.09,0.03-0.17,0.08-0.25,0.11c-0.06,0.02-0.13,0.03-0.2,0.05c-0.17,0.06-0.34,0.12-0.52,0.18c-0.02,0.01-0.05,0-0.08,0
		c-0.09,0-0.17,0.02-0.24,0.09c-0.02,0.03-0.07,0.06-0.11,0.05c-0.16-0.01-0.3,0.08-0.45,0.11c0,0-0.01,0-0.01,0
		c-0.2,0-0.34,0.19-0.54,0.2c-0.05,0-0.11,0.02-0.16,0c-0.07-0.03-0.13,0-0.19,0.03c-0.24,0.09-0.48,0.18-0.71,0.27
		c-0.05,0.02-0.09,0.07-0.14,0.1c-0.06,0.04-0.12,0.09-0.18,0.13c-0.12,0.07-0.24,0.15-0.36,0.2C9.03,16.83,8.81,16.91,8.6,17
		c-0.18,0.07-0.35,0.15-0.53,0.22c-0.04,0.01-0.1,0.01-0.13-0.01c-1.01-0.67-2.02-1.35-3.03-2.03c-1.15-0.77-2.29-1.54-3.44-2.31
		c-0.08-0.05-0.16-0.1-0.24-0.16c-0.03-0.02-0.06-0.06-0.06-0.09c-0.01-0.14-0.02-0.28-0.02-0.42c0-0.14,0.12-0.16,0.22-0.1
		c0.27,0.16,0.54,0.34,0.8,0.51c0.6,0.39,1.2,0.78,1.81,1.17c0.49,0.31,0.97,0.62,1.46,0.94C5.45,14.7,5.46,14.69,5.47,14.68z"/>
	<path class="st3" d="M11.02,12.64c0.15-0.09,4.16-0.98,4.31-0.96C13.91,12.05,12.46,12.34,11.02,12.64z"/>
	<path class="st3" d="M11.36,12.32c1.17-0.29,2.35-0.54,3.53-0.78c0,0.02,0.01,0.03,0.01,0.05c-1.18,0.26-2.36,0.51-3.53,0.77
		C11.36,12.34,11.36,12.33,11.36,12.32z"/>
	<path class="st3" d="M11.46,12.94c1.51-0.34,3.03-0.68,4.54-1.02c0,0.01,0.01,0.03,0.01,0.04c-1.51,0.34-3.03,0.68-4.54,1.03
		C11.46,12.97,11.46,12.95,11.46,12.94z"/>
	<path class="st3" d="M10.86,18c0.04-0.03,0.07-0.06,0.11-0.08c0.39-0.23,0.77-0.45,1.16-0.68c0.02-0.01,0.05-0.02,0.08-0.03
		c0.01,0.01,0.01,0.02,0.02,0.02c-0.05,0.04-0.09,0.08-0.15,0.11c-0.14,0.09-0.28,0.17-0.43,0.25c-0.04,0.02-0.08,0.03-0.12,0.05
		c-0.06,0.03-0.11,0.08-0.16,0.11c-0.11,0.07-0.22,0.13-0.33,0.19c-0.03,0.02-0.06,0.03-0.09,0.04C10.91,18,10.88,17.99,10.86,18
		L10.86,18z"/>
	<path class="st3" d="M14.99,9.61c-0.26,0.03-0.52,0.06-0.78,0.1c0-0.01,0-0.03-0.01-0.04c0.05-0.01,0.11-0.02,0.16-0.03
		c0.1-0.02,0.2-0.06,0.31-0.06C14.78,9.58,14.89,9.6,14.99,9.61C14.99,9.61,14.99,9.61,14.99,9.61z"/>
	<path class="st3" d="M14.37,12.66c-0.14,0.03-0.28,0.07-0.43,0.1c0-0.01-0.01-0.02-0.01-0.04c0.14-0.03,0.28-0.07,0.43-0.1
		C14.36,12.63,14.36,12.64,14.37,12.66z"/>
	<path class="st3" d="M10.85,18c-0.04,0.09-0.12,0.12-0.2,0.14C10.69,18.04,10.76,18.01,10.85,18C10.86,18,10.85,18,10.85,18z"/>
	<path class="st3" d="M1.65,14.14c0.07,0.04,0.15,0.07,0.22,0.11c-0.01,0.01-0.01,0.03-0.02,0.04c-0.07-0.04-0.15-0.08-0.22-0.11
		C1.64,14.16,1.64,14.15,1.65,14.14z"/>
	<path class="st3" d="M5.84,13.1c0.12-0.03,0.24-0.05,0.36-0.08c0,0.01,0,0.02,0.01,0.03c-0.12,0.03-0.24,0.06-0.36,0.08
		C5.84,13.12,5.84,13.11,5.84,13.1z"/>
	<path class="st3" d="M3.3,14.94c-0.08-0.04-0.15-0.08-0.23-0.12c0.01-0.01,0.01-0.02,0.02-0.03c0.08,0.04,0.16,0.08,0.23,0.12
		C3.32,14.92,3.31,14.93,3.3,14.94z"/>
	<path class="st3" d="M10.83,13.09c0.12-0.02,0.24-0.05,0.36-0.07c0,0.01,0,0.01,0,0.02c-0.12,0.03-0.24,0.05-0.36,0.08
		C10.83,13.11,10.83,13.1,10.83,13.09z"/>
	<path class="st3" d="M13.71,11.69c-0.1,0.02-0.19,0.04-0.29,0.06c0-0.01,0-0.01,0-0.02c0.1-0.02,0.19-0.05,0.29-0.07
		C13.71,11.67,13.71,11.68,13.71,11.69z"/>
	<path class="st3" d="M13.82,11.65c0.12-0.02,0.23-0.05,0.35-0.07c0,0.01,0,0.01,0,0.02c-0.12,0.03-0.23,0.05-0.35,0.08
		C13.82,11.66,13.82,11.65,13.82,11.65z"/>
</g>
</svg>
