<?xml version="1.0" encoding="utf-8"?>
<!-- Generator: Adobe Illustrator 24.2.3, SVG Export Plug-In . SVG Version: 6.00 Build 0)  -->
<svg version="1.1" id="Layer_1" xmlns="http://www.w3.org/2000/svg" xmlns:xlink="http://www.w3.org/1999/xlink" x="0px" y="0px"
	 viewBox="0 0 18 18" style="enable-background:new 0 0 18 18;" xml:space="preserve">
<style type="text/css">
	.st0{fill:#FAEBC8;}
	.st1{fill:#C32D25;}
	.st2{fill:#E76D1B;}
</style>
<path class="st0" d="M31.67-19.05L31.67-19.05c-1.37,0-2.48-1.11-2.48-2.48l0,0c0-1.37,1.11-2.48,2.48-2.48l0,0
	c1.37,0,2.48,1.11,2.48,2.48l0,0C34.15-20.16,33.04-19.05,31.67-19.05z"/>
<path class="st1" d="M39.23-19.05L39.23-19.05c-1.37,0-2.48-1.11-2.48-2.48l0,0c0-1.37,1.11-2.48,2.48-2.48l0,0
	c1.37,0,2.48,1.11,2.48,2.48l0,0C41.7-20.16,40.59-19.05,39.23-19.05z"/>
<path class="st2" d="M46.78-19.05L46.78-19.05c-1.37,0-2.48-1.11-2.48-2.48l0,0c0-1.37,1.11-2.48,2.48-2.48l0,0
	c1.37,0,2.48,1.11,2.48,2.48l0,0C49.26-20.16,48.15-19.05,46.78-19.05z"/>
<g>
	<path class="st0" d="M15.49,3c0-0.8-0.47-1.45-1.19-1.72c-0.35-0.13-0.71-0.13-1.08-0.11c-0.9,0-1.79,0-2.69,0
		c-0.9,0-1.79,0-2.69,0c-0.51,0-1.03-0.01-1.54,0c-0.14,0-0.29,0.02-0.42,0.09c-0.03,0-0.06,0.01-0.09,0.02
		C5.05,1.54,4.58,2.22,4.58,3.08c0,3.25,0,6.5,0,9.76c0,0.15,0.01,0.3,0.04,0.45c0.14,0.77,0.88,1.44,1.59,1.44
		c0.8,0.04,1.61,0.02,2.41,0.01c0.96,0.03,1.91,0.02,2.87,0c0.76,0.02,1.52,0.02,2.28,0c0.92,0.01,1.71-0.81,1.72-1.82
		C15.5,9.61,15.5,6.31,15.49,3z M14.26,13.07c-0.09,0.28-0.28,0.44-0.58,0.46c-0.11,0.01-0.23,0.01-0.34,0.01c-2.15,0-4.29,0-6.44,0
		c-0.13,0-0.26,0-0.39,0.01c-0.08,0.01-0.17,0.01-0.21,0.11c0,0-0.01,0-0.01-0.01c0,0,0,0,0-0.01c-0.01-0.02-0.01-0.05-0.03-0.06
		c-0.42-0.23-0.47-0.62-0.47-1.05c0.01-2.99,0.01-5.97,0-8.96c0-0.4-0.03-0.81,0.27-1.14C6.06,2.41,6.06,2.4,6.06,2.39
		C6.17,2.43,6.24,2.37,6.3,2.26c0,0,0,0,0,0.01c0.05,0.09,0.13,0.09,0.22,0.1c0.14,0.01,0.27,0.01,0.41,0.01c2.2,0,4.4,0,6.6,0
		c0.51,0,0.75,0.24,0.77,0.75c0,0.05,0,0.09,0,0.14c0,3.13,0,6.25,0,9.38C14.3,12.78,14.3,12.93,14.26,13.07z"/>
	<path class="st0" d="M11.58,15.74c-0.7-0.01-1.39,0-2.09,0c-0.56,0-1.12,0-1.68,0c-0.5,0-1,0-1.5,0c-0.44,0-0.88,0-1.32,0
		c-0.17,0-0.33-0.02-0.5,0c-0.32,0.02-0.57-0.08-0.78-0.32c-0.1-0.19-0.12-0.39-0.12-0.59c0-3.16,0-6.33,0-9.49
		c0-0.11,0-0.21-0.01-0.32C3.56,4.74,3.34,4.54,3.07,4.54C2.79,4.53,2.57,4.7,2.52,4.97C2.5,5.07,2.5,5.17,2.5,5.27
		c0,3.19,0,6.38,0,9.56c0,0.15,0,0.31,0.03,0.45c0.12,0.68,0.48,1.16,1.14,1.41l0,0c0.42,0.21,0.88,0.12,1.32,0.13
		c0.44,0,0.88,0,1.32,0c0.5,0,1,0,1.5,0c0.56,0,1.12,0,1.68,0c0.7,0,1.39,0.01,2.09,0c0.31,0,0.53-0.24,0.53-0.54
		C12.11,15.99,11.89,15.75,11.58,15.74z"/>
</g>
</svg>
