<?xml version="1.0" encoding="utf-8"?>
<!-- Generator: Adobe Illustrator 24.2.3, SVG Export Plug-In . SVG Version: 6.00 Build 0)  -->
<svg version="1.1" id="Layer_1" xmlns="http://www.w3.org/2000/svg" xmlns:xlink="http://www.w3.org/1999/xlink" x="0px" y="0px"
	 viewBox="0 0 50 50" style="enable-background:new 0 0 50 50;" xml:space="preserve">
<style type="text/css">
	.st0{fill:#FAEBC8;}
	.st1{fill:#C32D25;}
	.st2{fill:#E76D1B;}
</style>
<path class="st0" d="M47.7-3L47.7-3c-1.4,0-2.5-1.1-2.5-2.5l0,0c0-1.4,1.1-2.5,2.5-2.5l0,0c1.4,0,2.5,1.1,2.5,2.5l0,0
	C50.2-4.2,49-3,47.7-3z"/>
<path class="st1" d="M55.2-3L55.2-3c-1.4,0-2.5-1.1-2.5-2.5l0,0c0-1.4,1.1-2.5,2.5-2.5l0,0c1.4,0,2.5,1.1,2.5,2.5l0,0
	C57.7-4.2,56.6-3,55.2-3z"/>
<path class="st2" d="M62.8-3L62.8-3c-1.4,0-2.5-1.1-2.5-2.5l0,0c0-1.4,1.1-2.5,2.5-2.5l0,0c1.4,0,2.5,1.1,2.5,2.5l0,0
	C65.3-4.2,64.2-3,62.8-3z"/>
<g>
	<path class="st0" d="M11.3,10.1c-0.8,1.4-1.3,2.9-1.6,4.5c-1.2,5-0.8,9.9,1.2,14.7c1,2.4,2.4,4.6,4.5,6.3c1.6,1.3,3.4,2.2,5.4,2.5
		c1.3,0.2,2.6,0.1,3.9-0.1c4.5-0.6,8.5-4.2,9.4-8.9c0.8-3.9-0.2-7.3-2.9-10.2c-0.1-0.1-0.1-0.2-0.2-0.3c0.2-0.1,0.4,0,0.5,0
		c1.4,0.1,2.6,0.4,4,0.7c2.2,0.6,4.3,1.6,6.2,2.9c0.2,0.1,0.3,0.3,0.6,0.3c0.1,0,0.1,0.2,0.2,0.2c0.3,0,0.3,0.2,0.3,0.4
		c0.2,2.3-0.1,4.6-0.7,6.9c-0.8,2.5-2,4.7-3.6,6.7c-1.6,1.9-3.5,3.4-5.7,4.6c-2.1,1.1-4.2,1.9-6.6,2.2c-2.9,0.4-5.8,0.2-8.5-0.7
		c-0.1,0-0.3-0.1-0.4-0.2c-0.2-0.3-0.5-0.5-0.9-0.6c-1-0.4-1.8-0.9-2.7-1.4c-0.9-0.5-1.7-1.2-2.4-1.9c-1-0.8-1.9-1.8-2.7-2.9
		c-1.2-1.5-2.1-3.1-2.7-4.9c-0.5-1.3-0.8-2.7-1-4.1c-0.1-0.5-0.1-1-0.1-1.5c0-1.1,0-2.2,0-3.3c0.2-0.8,0.3-1.6,0.4-2.4
		c0.1-0.4,0.2-0.7,0.3-1c0-0.1,0-0.2,0-0.3c0,0,0-0.1,0-0.1c0-0.1,0.1-0.2,0.1-0.3c0,0,0-0.1,0-0.1c0-0.1,0.1-0.2,0.1-0.3
		c0-0.1,0.1-0.2,0.2-0.3C6.2,16,6.7,15,7.4,14c0.4-0.7,0.9-1.3,1.4-1.9c0,0,0-0.1,0.1-0.1c0.7-0.7,1.4-1.3,2.1-1.9
		C11.1,9.9,11.1,9.9,11.3,10.1z"/>
	<path class="st0" d="M17.1,42.4c1,0.4,2.1,0.6,3.2,0.8c3.4,0.5,6.8,0.2,10-1.1c4.4-1.8,7.7-4.7,10-8.8c1.1-2,1.8-4.2,2.1-6.5
		c0.2-1.2,0.2-2.3,0.1-3.5c0-0.2,0.1-0.5-0.1-0.7c0-0.1,0-0.3,0.2-0.1c0.2,0.2,0.4,0.4,0.7,0.6c0.3-0.4,0.5-0.8,0.8-1.2
		c2,8.9-2,20.5-13.7,24.9c-11.3,4.2-24-1.5-28.1-13.1c-4-11.3,2-22.5,10.8-26.6c-0.6,0.8-1.2,1.6-1.7,2.5c0,0-0.1,0.1-0.1,0.1
		c-1,0.6-1.7,1.4-2.4,2.2c-0.9,1-1.7,2.2-2.4,3.5c-0.9,1.8-1.6,3.6-1.9,5.6c-0.3,1.5-0.3,3.1-0.2,4.6c0.1,2.1,0.6,4.1,1.4,6
		c0.8,1.8,1.8,3.5,3.2,5.1c1,1.2,2.2,2.1,3.3,3c0,0,0.1,0,0.1,0.1c1.2,1,2.6,1.6,4.1,2.2C16.7,42.2,16.9,42.2,17.1,42.4z"/>
	<path class="st0" d="M38.5,13.7c0.1-0.3,0-0.6,0-0.8c0-1.2-0.1-2.3-0.1-3.5c0-0.4,0-0.4,0.4-0.4c2.8,0.1,5.4,0.8,7.8,2.2
		c0.8,0.4,1.5,0.9,2.2,1.5c0.3,0.2,0.3,0.2,0.1,0.5c-1.9,2.8-3.7,5.6-5.6,8.5c0,0-0.1,0.1-0.1,0.2c-3.8-3.5-8.2-4.9-13.3-4.5
		c-5.1,0.5-9.1,2.9-12.2,6.9c0-1.3,2.6-5.2,4.7-7c2.2-2,4.8-3.2,7.6-3.8C32.8,12.8,35.6,12.9,38.5,13.7z"/>
	<path class="st0" d="M13.1,29.8c-0.1-0.1-0.2-0.3-0.3-0.4c-1.5-2.5-2.5-5.2-2.7-8.1c-0.6-6.6,1.6-12.1,6.5-16.5
		c1.3-1.2,2.8-2.1,4.4-2.9c0.3-0.2,0.4-0.2,0.5,0.2c1.2,2.3,2.4,4.5,3.7,6.8c0.2,0.4,0.2,0.4-0.2,0.5c-3.8,1.6-6.9,4.2-9.1,7.8
		c-1.5,2.4-2.4,5-2.7,7.9c-0.2,1.5-0.2,3,0,4.6C13.1,29.6,13.2,29.7,13.1,29.8z"/>
	<path class="st0" d="M15.6,22.9c0.2-1.3,0.5-2.5,1-3.7c2-4.5,5.2-7.8,9.8-9.6c0.1,0,0.2,0,0.2-0.1c0.1,0,0.2-0.1,0.1-0.2
		c0-0.1-0.1-0.2-0.2-0.3c-0.6-1.1-1.2-2.2-1.8-3.3c-0.2-0.3-0.2-0.3,0.1-0.5c2.2-1.5,4.6-2.4,7.3-2.8c1.4-0.2,2.9-0.2,4.3,0
		c0.4,0,0.4,0,0.4,0.4C37,5.1,37,7.3,37.1,9.6c0,0.8,0,1.6,0.1,2.4c0,0.3,0.1,0.4-0.4,0.4c-5.6-0.7-10.8,0.5-15.4,3.9
		c-2.3,1.7-4.2,3.8-5.5,6.4c0,0.1-0.1,0.1-0.1,0.2C15.7,22.8,15.7,22.9,15.6,22.9z"/>
	<path class="st0" d="M11.3,9.7c0,0,0.1,0,0.1,0c0,0.1,0.1,0.3,0,0.4c-0.2-0.1-0.3,0.1-0.4,0.2c-0.6,0.5-1.1,0.9-1.6,1.5
		c-0.1,0.1-0.2,0.3-0.4,0.3c-0.1-0.1,0-0.2,0-0.2C9.7,11.1,10.4,10.3,11.3,9.7z"/>
	<path class="st0" d="M11.3,9.7c-0.5,0.5-1.1,1-1.6,1.5c-0.3,0.3-0.6,0.6-0.8,1l0,0c-1.1,1.3-2,2.7-2.7,4.2c-0.2,0.3-0.4,0.6-0.4,1
		c-0.1,0.1-0.1,0.1-0.2,0.2c-0.1,0.1,0,0.2-0.1,0.3v0c-0.1,0.2-0.1,0.3-0.2,0.5v0c-0.1,0.1-0.1,0.2,0,0.3c-0.3,0.7-0.4,1.4-0.5,2.2
		c-0.1,0.5-0.2,0.9-0.3,1.4c-0.1,1.3-0.1,2.7,0,4c0.2,2.5,0.9,4.8,2,7c0.8,1.5,1.7,2.8,2.8,4c0.8,0.9,1.7,1.7,2.7,2.4
		c0.1,0.1,0.2,0.2,0.2,0.3c-0.4-0.1-0.6-0.4-1-0.6c-3.8-3.1-6.2-7-7-11.9C3.8,23.7,4.3,20,5.9,16.5C7,14,8.6,11.9,10.6,10
		c0.2-0.2,0.4-0.3,0.5-0.4C11.2,9.6,11.3,9.5,11.3,9.7z"/>
	<path class="st0" d="M12.3,39.9c-0.3-0.4-0.8-0.6-1.1-1c-2.4-2-4.2-4.5-5.4-7.4c-0.6-1.6-1.1-3.2-1.3-4.9c-0.2-1.2-0.1-2.4-0.1-3.7
		c0-0.3,0-0.6,0.2-0.9c0,0.9,0,1.8,0,2.6c0,3.4,1,6.5,2.7,9.3c1.5,2.4,3.4,4.4,5.8,6.1c0.2,0.1,0.3,0.2,0.5,0.3c0,0.2-0.2,0.1-0.3,0
		C12.9,40.3,12.6,40.1,12.3,39.9L12.3,39.9z"/>
	<path class="st0" d="M12.3,39.9c0.3,0.1,0.5,0.3,0.8,0.4c0.1,0.1,0.2,0.2,0.4,0.1c0.4,0.2,0.7,0.4,1.1,0.6c0.6,0.3,1.2,0.6,1.9,0.9
		c0.2,0.1,0.4,0.2,0.6,0.4c-1-0.3-2-0.8-3-1.3c-0.5-0.3-1-0.6-1.5-0.9C12.5,40.2,12.4,40.1,12.3,39.9z"/>
	<path class="st0" d="M5.9,17.3c-0.1,0-0.1-0.1-0.1-0.2c0.7-1.8,1.7-3.4,2.9-4.9c0-0.1,0.1-0.1,0.2-0.1c0,0.2-0.2,0.3-0.3,0.4
		C7.5,14,6.6,15.5,5.9,17.3z"/>
	<path class="st0" d="M5.4,18.3c0-0.2,0.1-0.4,0.2-0.5C5.6,18,5.5,18.1,5.4,18.3z"/>
	<path class="st0" d="M5.6,17.8c0-0.1,0-0.2,0.1-0.3C5.7,17.6,5.7,17.7,5.6,17.8z"/>
	<path class="st0" d="M5.4,18.5c-0.1-0.1-0.1-0.2,0-0.3C5.4,18.3,5.4,18.4,5.4,18.5z"/>
</g>
</svg>
