<?xml version="1.0" encoding="utf-8"?>
<!-- Generator: Adobe Illustrator 24.2.3, SVG Export Plug-In . SVG Version: 6.00 Build 0)  -->
<svg version="1.1" id="Layer_1" xmlns="http://www.w3.org/2000/svg" xmlns:xlink="http://www.w3.org/1999/xlink" x="0px" y="0px"
	 viewBox="0 0 40 40" style="enable-background:new 0 0 40 40;" xml:space="preserve">
<style type="text/css">
	.st0{fill:#FAEBC8;}
	.st1{fill:#C32D25;}
	.st2{fill:#E76D1B;}
</style>
<path class="st0" d="M48.41,8.35L48.41,8.35c-1.37,0-2.48-1.11-2.48-2.48v0c0-1.37,1.11-2.48,2.48-2.48h0
	c1.37,0,2.48,1.11,2.48,2.48v0C50.89,7.24,49.78,8.35,48.41,8.35z"/>
<path class="st1" d="M55.97,8.35L55.97,8.35c-1.37,0-2.48-1.11-2.48-2.48v0c0-1.37,1.11-2.48,2.48-2.48h0
	c1.37,0,2.48,1.11,2.48,2.48v0C58.44,7.24,57.33,8.35,55.97,8.35z"/>
<path class="st2" d="M63.52,8.35L63.52,8.35c-1.37,0-2.48-1.11-2.48-2.48v0c0-1.37,1.11-2.48,2.48-2.48h0C64.89,3.39,66,4.5,66,5.87
	v0C66,7.24,64.89,8.35,63.52,8.35z"/>
<g>
	<path class="st2" d="M15.03,23.31c1.37,0,2.42,0.52,3.4,1.17c0.44,0.29,0.9,0.49,1.4,0.62c1.44,0.38,2.89,0.76,4.33,1.16
		c1,0.28,1.56,1.21,1.33,2.17c-0.24,1.04-1.23,1.63-2.32,1.35c-1.35-0.35-2.69-0.72-4.03-1.08c-0.82-0.22-1.64-0.44-2.46-0.66
		c-0.44-0.12-0.72,0.01-0.81,0.34c-0.09,0.33,0.09,0.58,0.53,0.7c2.17,0.58,4.35,1.18,6.53,1.74c1.87,0.48,3.57-0.77,3.68-2.69
		c0.02-0.27,0.11-0.38,0.36-0.45c2.3-0.66,4.59-1.35,6.89-2.01c0.81-0.23,1.64-0.35,2.48-0.27c1.33,0.13,1.95,1.09,1.5,2.35
		c-0.28,0.79-0.8,1.37-1.6,1.68c-3.9,1.5-7.81,3.01-11.71,4.5c-0.49,0.19-1,0.33-1.51,0.47c-0.94,0.25-1.87,0.25-2.81-0.04
		c-1.67-0.52-3.36-0.97-5.04-1.47c-1.03-0.31-2.01-0.23-2.96,0.26c-0.44,0.22-0.88,0.42-1.32,0.64c-0.2,0.1-0.29,0.06-0.37-0.15
		c-0.96-2.33-1.94-4.66-2.91-6.99c-0.07-0.17-0.07-0.29,0.12-0.37c1.99-0.89,3.87-1.98,5.92-2.72
		C14.15,23.38,14.66,23.29,15.03,23.31z"/>
	<path class="st1" d="M10.41,36.3c-0.02,0.25-0.14,0.44-0.38,0.54c-0.89,0.37-1.78,0.75-2.67,1.1c-0.39,0.16-0.66,0-0.86-0.48
		c-0.74-1.77-1.47-3.54-2.21-5.3c-0.73-1.74-1.45-3.49-2.18-5.23c-0.24-0.58-0.14-0.82,0.42-1.06c0.77-0.32,1.54-0.64,2.32-0.96
		c0.56-0.23,0.81-0.13,1.04,0.41c1.47,3.52,2.94,7.05,4.4,10.57C10.36,36.02,10.42,36.15,10.41,36.3z"/>
	<path class="st1" d="M25.36,18.14c-1.21-0.03-2.46-0.11-3.65-0.54c-1.72-0.63-1.81-1.07-1.43-2.63c0.6-2.53,3.06-4.26,5.6-3.99
		c2.66,0.28,4.69,2.41,4.8,5.01c0.02,0.53-0.19,0.89-0.61,1.15c-0.78,0.49-1.66,0.69-2.55,0.83C26.82,18.08,26.11,18.12,25.36,18.14
		z"/>
	<path class="st2" d="M33.08,16.08c-0.35,0-0.69,0-1.04,0c-0.18,0-0.27-0.05-0.29-0.26c-0.16-2.08-1.12-3.71-2.84-4.88
		c-0.21-0.14-0.17-0.23-0.02-0.37c1.52-1.48,3.32-2,5.35-1.38c2.05,0.62,3.28,2.06,3.68,4.16c0.24,1.26-0.01,1.63-1.21,2.12
		c-0.37,0.15-0.75,0.26-1.14,0.35C34.75,16,33.91,16.08,33.08,16.08z"/>
	<path class="st2" d="M17.71,16.09c-1.17-0.03-2.34-0.14-3.44-0.57c-1.68-0.65-1.62-1.13-1.31-2.46c0.47-2.01,1.73-3.35,3.71-3.91
		c1.96-0.56,3.71-0.06,5.19,1.34c0.2,0.19,0.27,0.29-0.03,0.5c-1.65,1.16-2.6,2.74-2.76,4.77c-0.02,0.26-0.12,0.33-0.35,0.33
		C18.38,16.08,18.05,16.09,17.71,16.09z"/>
	<path class="st2" d="M27.56,6.17c0,1.18-0.98,2.16-2.17,2.16c-1.18,0-2.16-0.99-2.15-2.17c0.01-1.17,0.98-2.13,2.15-2.14
		C26.57,4.01,27.56,4.99,27.56,6.17z"/>
	<path class="st1" d="M20.24,4.16c0,1.18-0.95,2.14-2.13,2.15c-1.18,0.01-2.16-0.97-2.16-2.16c0-1.2,0.97-2.16,2.17-2.15
		C19.3,2.01,20.24,2.97,20.24,4.16z"/>
	<path class="st1" d="M34.85,4.13c0.01,1.2-0.96,2.18-2.14,2.17c-1.17,0-2.13-0.96-2.14-2.14C30.56,2.97,31.51,2,32.71,2
		C33.89,2,34.84,2.95,34.85,4.13z"/>
</g>
</svg>
