<?xml version="1.0" encoding="utf-8"?>
<!-- Generator: Adobe Illustrator 24.2.3, SVG Export Plug-In . SVG Version: 6.00 Build 0)  -->
<svg version="1.1" id="Layer_1" xmlns="http://www.w3.org/2000/svg" xmlns:xlink="http://www.w3.org/1999/xlink" x="0px" y="0px"
	 viewBox="0 0 40 40" style="enable-background:new 0 0 40 40;" xml:space="preserve">
<style type="text/css">
	.st0{fill:#FAEBC8;}
	.st1{fill:#C32D25;}
	.st2{fill:#E76D1B;}
</style>
<path class="st0" d="M48.41,8.35L48.41,8.35c-1.37,0-2.48-1.11-2.48-2.48v0c0-1.37,1.11-2.48,2.48-2.48h0
	c1.37,0,2.48,1.11,2.48,2.48v0C50.89,7.24,49.78,8.35,48.41,8.35z"/>
<path class="st1" d="M55.97,8.35L55.97,8.35c-1.37,0-2.48-1.11-2.48-2.48v0c0-1.37,1.11-2.48,2.48-2.48h0
	c1.37,0,2.48,1.11,2.48,2.48v0C58.44,7.24,57.33,8.35,55.97,8.35z"/>
<path class="st2" d="M63.52,8.35L63.52,8.35c-1.37,0-2.48-1.11-2.48-2.48v0c0-1.37,1.11-2.48,2.48-2.48h0C64.89,3.39,66,4.5,66,5.87
	v0C66,7.24,64.89,8.35,63.52,8.35z"/>
<g>
	<path class="st2" d="M8.71,33.91c-1.76-1.97-2.54-4.32-2.69-6.92c-0.18-3.06,0.96-5.55,3.27-7.53c1.36-1.16,2.89-2.05,4.41-2.96
		c1.49-0.89,3.01-1.73,4.32-2.88c0.27-0.24,0.5-0.52,0.77-0.75c0.58-0.5,0.63-1.14,0.58-1.84c-0.01-0.21-0.16-0.21-0.29-0.26
		c-1.82-0.65-3-1.91-3.42-3.8c-0.58-2.57,1.04-5.22,3.58-5.93c0.33-0.09,0.64-0.08,0.86,0.21c0.24,0.31,0.1,0.59-0.1,0.87
		c-1.4,1.9-0.37,4.39,1.66,4.96c0.95,0.27,1.83,0.11,2.65-0.43c0.1-0.06,0.19-0.14,0.29-0.21c0.25-0.17,0.5-0.17,0.74,0.01
		c0.23,0.18,0.3,0.41,0.23,0.7C25,9.33,23.19,10.84,20.95,11c-0.27,0.02-0.29,0.11-0.32,0.35c-0.08,0.63,0.18,1.08,0.58,1.52
		c1.08,1.17,2.41,2.02,3.76,2.83c1.72,1.04,3.5,1.99,5.09,3.22c1.68,1.3,3.09,2.84,3.59,4.95c0.85,3.61,0.15,6.93-2.21,9.84
		c-0.05,0.06-0.1,0.12-0.15,0.19c-0.08,0.16-0.22,0.17-0.37,0.18c-0.16,0.01-0.32,0.01-0.48,0.01c-6.96,0-13.93,0-20.89-0.01
		C9.27,34.09,8.94,34.21,8.71,33.91z"/>
	<path class="st1" d="M8.71,33.91c0.12,0,0.24,0.01,0.36,0.01c7.29,0,14.58,0,21.87,0c0.12,0,0.24-0.01,0.36-0.01
		c0.28,0,0.56,0.01,0.83,0.01c1.01,0.03,1.84,0.84,1.86,1.86c0.02,0.81,0.01,1.62,0,2.42c0,0.59-0.22,0.81-0.82,0.81
		c-2.42,0-4.85,0-7.27,0c-6.3,0-12.61,0-18.91,0c-0.82,0-0.98-0.16-0.98-0.97c0-0.73-0.01-1.46,0-2.19
		c0.01-1.11,0.84-1.92,1.94-1.94C8.21,33.92,8.46,33.91,8.71,33.91z"/>
</g>
</svg>
