<?xml version="1.0" encoding="utf-8"?>
<!-- Generator: Adobe Illustrator 24.2.3, SVG Export Plug-In . SVG Version: 6.00 Build 0)  -->
<svg version="1.1" id="Layer_1" xmlns="http://www.w3.org/2000/svg" xmlns:xlink="http://www.w3.org/1999/xlink" x="0px" y="0px"
	 viewBox="0 0 24 24" style="enable-background:new 0 0 24 24;" xml:space="preserve">
<style type="text/css">
	.st0{fill:#FAEBC8;}
	.st1{fill:#C32D25;}
	.st2{fill:#E76D1B;}
</style>
<path class="st0" d="M40.41,0.35L40.41,0.35c-1.37,0-2.48-1.11-2.48-2.48v0c0-1.37,1.11-2.48,2.48-2.48h0
	c1.37,0,2.48,1.11,2.48,2.48v0C42.89-0.76,41.78,0.35,40.41,0.35z"/>
<path class="st1" d="M47.97,0.35L47.97,0.35c-1.37,0-2.48-1.11-2.48-2.48v0c0-1.37,1.11-2.48,2.48-2.48h0
	c1.37,0,2.48,1.11,2.48,2.48v0C50.44-0.76,49.33,0.35,47.97,0.35z"/>
<path class="st2" d="M55.52,0.35L55.52,0.35c-1.37,0-2.48-1.11-2.48-2.48v0c0-1.37,1.11-2.48,2.48-2.48h0C56.89-4.61,58-3.5,58-2.13
	v0C58-0.76,56.89,0.35,55.52,0.35z"/>
<g>
	<path class="st0" d="M10.7,10.16L10.7,10.16c-2.14,0-3.88-1.74-3.88-3.88v0c0-2.14,1.74-3.88,3.88-3.88h0
		c2.14,0,3.88,1.74,3.88,3.88v0C14.58,8.42,12.85,10.16,10.7,10.16z"/>
	<path class="st1" d="M17.47,20.76H2.04c-0.62,0-1.11-0.53-1.03-1.14c0.56-4.85,4.68-8.62,9.69-8.62c2.49,0,4.77,0.93,6.49,2.46
		c0.17,0.15,0.33,0.3,0.49,0.47c-1.46,0.47-2.53,1.84-2.53,3.46C15.15,18.92,16.12,20.24,17.47,20.76z"/>
	<path class="st1" d="M20.02,17.85h-0.78v2.06H18.3v-2.06h-2.06V16.9h2.06v-2.06h0.17c0.29,0.37,0.55,0.77,0.78,1.19v0.87h0.43
		C19.8,17.21,19.92,17.53,20.02,17.85z"/>
	<g>
		<path class="st0" d="M18.77,13.15c-0.56,0-1.1,0.11-1.59,0.3c-1.55,0.63-2.64,2.15-2.64,3.92c0,1.39,0.67,2.61,1.7,3.38
			c0.7,0.53,1.58,0.85,2.53,0.85c2.33,0,4.23-1.89,4.23-4.23S21.11,13.15,18.77,13.15z M18.77,21.01c-0.46,0-0.9-0.08-1.3-0.25
			c-1.35-0.52-2.33-1.84-2.33-3.38c0-1.61,1.07-2.98,2.53-3.46c0.35-0.11,0.72-0.17,1.1-0.17c2,0,3.63,1.63,3.63,3.63
			S20.77,21.01,18.77,21.01z"/>
	</g>
	<polygon class="st0" points="21.31,16.9 21.31,17.85 19.25,17.85 19.25,19.91 18.3,19.91 18.3,17.85 16.24,17.85 16.24,16.9 
		18.3,16.9 18.3,14.84 19.25,14.84 19.25,16.9 	"/>
</g>
</svg>
