<?xml version="1.0" encoding="utf-8"?>
<!-- Generator: Adobe Illustrator 24.2.3, SVG Export Plug-In . SVG Version: 6.00 Build 0)  -->
<svg version="1.1" id="Layer_1" xmlns="http://www.w3.org/2000/svg" xmlns:xlink="http://www.w3.org/1999/xlink" x="0px" y="0px"
	 viewBox="0 0 123 48" style="enable-background:new 0 0 123 48;" xml:space="preserve">
<style type="text/css">
	.st0{fill:#FFFFFF;}
	.st1{fill:#C32E29;}
	.st2{fill:#FAEBC8;}
	.st3{fill:url(#SVGID_1_);}
	.st4{fill:#C32D25;}
	.st5{fill:#242424;}
</style>
<g>
	<g>
		<g>
			<g>
				<g>
					<path class="st0" d="M33.16,28.5c0.19-1,0.28-2.03,0.28-3.06c0-9.08-7.39-16.47-16.47-16.47c-9.08,0-16.47,7.39-16.47,16.47
						c0,1.31,0.15,2.61,0.46,3.87c-0.31,0.43-0.46,0.91-0.46,1.44c0,0.78,0.38,1.85,2.18,2.56c0.65,0.26,1.49,0.46,2.47,0.61
						c1.23,0.19,3.01,0.28,5.28,0.28c0.65,0,1.35-0.04,2.08-0.12c-0.37,1.2-0.7,2.14-0.97,2.8c-0.11,0.29-0.17,0.55-0.17,0.78
						c0,0.59,0.4,0.89,0.8,0.89c0.62,0,0.94-0.66,1.1-0.97c0.38-0.77,0.82-1.8,1.34-3.13c0.1-0.25,0.19-0.5,0.28-0.73
						c0.45-0.08,0.9-0.18,1.36-0.28c0.97-0.22,1.79-0.46,2.5-0.72c0.08,0.04,0.15,0.07,0.23,0.11c0.74,0.31,1.61,0.46,2.56,0.46
						c0.03,0,0.05,0,0.07,0c0.02,0,0.05,0,0.07,0c1.45,0,2.87-0.27,4.23-0.81c0.19-0.08,0.37-0.15,0.55-0.23
						c0.28,0.53,0.87,1.04,2.09,1.04c0.02,0,0.04,0,0.06,0c0.02,0,0.04,0,0.06,0c0.67,0,1.34-0.09,2-0.27
						c0.32-0.09,0.62-0.19,0.88-0.31c0.46-0.2,0.85-0.46,1.14-0.75c0.48-0.48,0.73-1.18,0.73-2.07c0-0.47-0.08-0.9-0.23-1.27
						C33.2,28.58,33.18,28.54,33.16,28.5z"/>
					<path class="st1" d="M12.18,38.81c-0.51,0-1.05-0.4-1.05-1.15c0-0.27,0.06-0.55,0.19-0.87c0.24-0.59,0.53-1.4,0.85-2.42
						c-0.6,0.05-1.18,0.08-1.72,0.08c-2.28,0-4.07-0.1-5.32-0.28c-1-0.15-1.86-0.36-2.53-0.62c-1.94-0.76-2.35-1.94-2.35-2.79
						c0-0.53,0.15-1.03,0.44-1.49c-0.29-1.25-0.44-2.54-0.44-3.82c0-9.22,7.5-16.73,16.73-16.73s16.73,7.5,16.73,16.73
						c0,1.02-0.09,2.04-0.27,3.03l0.02,0.06c0.17,0.4,0.25,0.86,0.25,1.36c0,0.97-0.27,1.72-0.81,2.25
						c-0.32,0.32-0.73,0.59-1.22,0.81c-0.28,0.12-0.59,0.23-0.92,0.32c-0.68,0.18-1.38,0.28-2.07,0.28l-0.07,0l-0.04,0
						c-1.22,0-1.86-0.49-2.19-0.97c-0.11,0.05-0.23,0.1-0.35,0.14c-1.39,0.55-2.84,0.83-4.32,0.83c-0.03,0-0.06,0-0.09,0
						c0,0-0.03,0-0.06,0c-0.99,0-1.89-0.16-2.66-0.48c-0.05-0.02-0.1-0.04-0.15-0.07c-0.7,0.25-1.49,0.48-2.42,0.69
						c-0.42,0.1-0.83,0.18-1.23,0.26c-0.07,0.19-0.15,0.39-0.23,0.6c-0.52,1.34-0.96,2.37-1.35,3.15
						C13.35,38.03,12.96,38.81,12.18,38.81z M12.89,33.78l-0.12,0.37c-0.38,1.2-0.7,2.15-0.98,2.82c-0.1,0.26-0.15,0.48-0.15,0.68
						c0,0.44,0.28,0.64,0.54,0.64c0.46,0,0.73-0.54,0.87-0.83c0.38-0.77,0.82-1.78,1.33-3.11c0.1-0.25,0.19-0.49,0.28-0.73
						l0.05-0.13l0.14-0.03c0.44-0.08,0.9-0.18,1.35-0.28c0.96-0.22,1.76-0.46,2.46-0.71l0.1-0.04l0.1,0.05
						c0.07,0.03,0.14,0.07,0.22,0.1c0.71,0.29,1.54,0.44,2.46,0.44l0.06,0l0.09,0c1.41,0,2.8-0.27,4.13-0.79
						c0.19-0.07,0.37-0.15,0.53-0.23l0.22-0.1l0.11,0.21c0.32,0.6,0.95,0.9,1.86,0.9l0.07,0c0,0,0.01,0,0.01,0
						c0.68,0,1.33-0.09,1.97-0.26c0.31-0.08,0.6-0.18,0.85-0.29c0.43-0.19,0.79-0.43,1.07-0.7c0.43-0.43,0.65-1.06,0.65-1.89
						c0-0.43-0.07-0.83-0.21-1.17l-0.08-0.19l0.01-0.08c0.19-0.99,0.28-2,0.28-3.01c0-8.94-7.27-16.22-16.22-16.22
						S0.76,16.5,0.76,25.44c0,1.29,0.15,2.57,0.45,3.81l0.03,0.11l-0.07,0.09c-0.27,0.39-0.41,0.82-0.41,1.29c0,1,0.7,1.8,2.02,2.32
						c0.64,0.25,1.45,0.45,2.42,0.59c1.22,0.19,2.98,0.28,5.24,0.28c0.64,0,1.33-0.04,2.06-0.11L12.89,33.78z"/>
				</g>
				<path class="st2" d="M32.44,28.59c0.21-1.02,0.32-2.07,0.32-3.15c0-8.72-7.06-15.78-15.78-15.78C8.26,9.66,1.2,16.72,1.2,25.44
					c0,1.4,0.18,2.75,0.52,4.04c-0.35,0.38-0.52,0.8-0.52,1.27c0,0.82,0.58,1.46,1.75,1.91c0.61,0.24,1.39,0.43,2.32,0.57
					c1.2,0.18,2.92,0.27,5.18,0.27c0.93,0,1.96-0.08,3.05-0.24c-0.07,0.25-0.15,0.51-0.24,0.79c-0.41,1.34-0.77,2.37-1.06,3.09
					c-0.08,0.2-0.12,0.38-0.12,0.53c0,0.13,0.03,0.2,0.11,0.2c0.13,0,0.29-0.2,0.48-0.59c0.38-0.76,0.81-1.78,1.32-3.07
					c0.15-0.38,0.29-0.75,0.41-1.09c0.55-0.1,1.12-0.21,1.72-0.35c1.06-0.25,1.96-0.51,2.7-0.81c0.13,0.08,0.28,0.16,0.45,0.23
					c0.66,0.27,1.43,0.41,2.3,0.41c0.03,0,0.05,0,0.07,0c0.03,0,0.05,0,0.08,0c1.36,0,2.69-0.25,3.97-0.76
					c0.5-0.2,0.9-0.39,1.23-0.58c0.01,0.07,0.02,0.13,0.03,0.19c0.12,0.77,0.67,1.15,1.63,1.15c0.02,0,0.04,0,0.06,0
					c0.02,0,0.04,0,0.06,0c0.6,0,1.21-0.08,1.83-0.25c0.29-0.08,0.55-0.17,0.78-0.27c0.38-0.17,0.7-0.38,0.94-0.61
					c0.35-0.35,0.53-0.87,0.53-1.58c0-0.38-0.06-0.71-0.18-1.01C32.53,28.77,32.49,28.68,32.44,28.59z"/>
				<linearGradient id="SVGID_1_" gradientUnits="userSpaceOnUse" x1="9.4013" y1="7.4319" x2="21.6426" y2="36.5221">
					<stop  offset="0" style="stop-color:#DE0024"/>
					<stop  offset="0.1081" style="stop-color:#DF0825"/>
					<stop  offset="0.2742" style="stop-color:#E11D27"/>
					<stop  offset="0.4776" style="stop-color:#E5402B"/>
					<stop  offset="0.7104" style="stop-color:#EB7130"/>
					<stop  offset="0.965" style="stop-color:#F2AF36"/>
					<stop  offset="1" style="stop-color:#F3B837"/>
				</linearGradient>
				<path class="st3" d="M32.76,25.44c0,1.08-0.11,2.13-0.32,3.15c-0.13,0.63-0.29,1.25-0.49,1.84c-0.19,0.56-0.41,1.11-0.66,1.65
					c-0.23,0.1-0.49,0.19-0.78,0.27c-0.61,0.17-1.22,0.25-1.83,0.25c-0.02,0-0.04,0-0.06,0c-0.02,0-0.04,0-0.06,0
					c-0.96,0-1.51-0.38-1.63-1.15c-0.01-0.06-0.02-0.12-0.03-0.19c-0.32,0.19-0.73,0.38-1.23,0.58c-1.29,0.51-2.61,0.76-3.97,0.76
					c-0.03,0-0.05,0-0.08,0c-0.02,0-0.05,0-0.07,0c-0.87,0-1.64-0.14-2.3-0.41c-0.17-0.07-0.32-0.15-0.45-0.23
					c-0.74,0.29-1.64,0.56-2.7,0.81c-0.59,0.14-1.17,0.25-1.72,0.35c-0.13,0.34-0.26,0.7-0.41,1.09c-0.5,1.29-0.94,2.32-1.32,3.07
					c-0.19,0.39-0.35,0.59-0.48,0.59c-0.07,0-0.11-0.07-0.11-0.2c0-0.15,0.04-0.32,0.12-0.53c0.29-0.71,0.65-1.74,1.06-3.09
					c0.09-0.27,0.16-0.53,0.24-0.79c-1.1,0.16-2.12,0.24-3.05,0.24c-2.25,0-3.98-0.09-5.18-0.27c-0.93-0.14-1.71-0.33-2.32-0.57
					c-0.52-1-0.93-2.07-1.23-3.18c-0.34-1.29-0.52-2.64-0.52-4.04c0-8.72,7.06-15.78,15.78-15.78
					C25.69,9.66,32.76,16.72,32.76,25.44z"/>
			</g>
			<g>
				<path class="st0" d="M18.54,26.22c0.75,0,1.41-0.12,1.95-0.35c0.39-0.16,0.61-0.48,0.61-0.89c0-0.63-0.37-1.01-0.97-1.01
					c-0.14,0-0.28,0.03-0.41,0.09c-0.6,0.25-1.07,0.4-1.39,0.45c-0.29,0.05-1.19,0.18-1.19,0.86
					C17.14,25.76,17.38,26.22,18.54,26.22z"/>
				<path class="st0" d="M30.5,26.73c0.34,0,0.63-0.17,0.82-0.47l0.3-0.49c0.1-0.17,0.15-0.35,0.15-0.52c0-0.28-0.11-0.52-0.32-0.71
					c-0.2-0.18-0.44-0.27-0.7-0.27c-0.34,0-0.63,0.17-0.82,0.47l-0.3,0.49c-0.1,0.17-0.15,0.35-0.15,0.52
					c0,0.28,0.11,0.52,0.31,0.71C30,26.64,30.24,26.73,30.5,26.73z"/>
				<path class="st0" d="M33,28.71c-0.04-0.1-0.09-0.22-0.15-0.33c-0.43-0.81-1.02-0.98-1.44-0.98c-0.53,0-0.98,0.22-1.35,0.64
					c-0.33,0.38-0.5,0.81-0.5,1.26c0,0.78,0.52,1.25,1.39,1.25c0.02,0,0.03,0,0.05,0c-0.14,0.09-0.35,0.2-0.68,0.3
					c-0.53,0.16-1.08,0.24-1.63,0.24c-0.02,0-0.04,0-0.06,0c-0.02,0-0.04,0-0.06,0c-0.06,0-0.11,0-0.15-0.01
					c-0.29-2.7-0.51-4.91-0.64-6.6c-0.05-0.55-0.43-0.9-0.98-0.9c-0.62,0-1,0.36-1,0.95v0.1l0,0.02c0.2,2.32,0.35,4.04,0.47,5.23
					c-0.18,0.12-0.52,0.29-1.16,0.55c-1.1,0.43-2.25,0.65-3.42,0.65c-0.03,0-0.05,0-0.07,0c-0.02,0-0.05,0-0.07,0
					c-0.13,0-0.25,0-0.37-0.01c0.1-0.1,0.18-0.2,0.26-0.31c0.37-0.5,0.56-1.1,0.56-1.78c0-0.85-0.4-1.25-0.74-1.43
					c-0.21-0.12-0.45-0.18-0.7-0.18c-0.66,0-1.32,0.34-1.97,1c-0.63,0.65-0.98,1.34-1.05,2.07c-0.01,0.14-0.01,0.27,0,0.4
					c-0.62,0.2-1.32,0.39-2.09,0.55c0.07-0.23,0.12-0.44,0.17-0.63c0.11-0.44,0.16-0.83,0.16-1.18c0-1.04-0.49-1.81-1.43-2.24
					c-0.74-0.34-1.88-0.51-3.48-0.51c-2.33,0-4.42,0.23-6.21,0.7c-1.59,0.41-2.66,0.94-3.29,1.63c-0.43,0.46-0.64,1-0.64,1.58
					c0,1.03,0.69,1.82,2.04,2.34c0.64,0.25,1.45,0.45,2.42,0.6c1.22,0.19,2.99,0.28,5.25,0.28c0.74,0,1.55-0.05,2.41-0.15
					c-0.01,0.03-0.02,0.07-0.03,0.1c-0.41,1.32-0.76,2.34-1.05,3.06c-0.1,0.26-0.15,0.49-0.15,0.7c0,0.52,0.36,0.66,0.57,0.66
					c0.42,0,0.68-0.41,0.89-0.84c0.38-0.77,0.82-1.78,1.33-3.11c0.12-0.3,0.22-0.58,0.33-0.85c0.48-0.09,0.98-0.19,1.48-0.31
					c1-0.23,1.84-0.48,2.56-0.75c0.1,0.05,0.2,0.1,0.31,0.14c0.72,0.3,1.55,0.45,2.47,0.45c0.03,0,0.05,0,0.07,0
					c0.02,0,0.05,0,0.08,0c1.42,0,2.81-0.27,4.14-0.79c0.27-0.11,0.52-0.21,0.74-0.32c0.21,0.53,0.72,1.12,1.97,1.12
					c0.02,0,0.04,0,0.06,0c0.02,0,0.04,0,0.06,0c0.65,0,1.3-0.09,1.94-0.26c0.31-0.08,0.6-0.18,0.85-0.29
					c0.43-0.19,0.8-0.43,1.08-0.71c0.44-0.43,0.66-1.08,0.66-1.91C33.22,29.45,33.15,29.05,33,28.71z M13.73,30.45
					c-0.07,0.37-0.17,0.81-0.3,1.3c-1.08,0.15-2.09,0.23-2.99,0.23c-1.6,0-3.06-0.07-4.35-0.22c-3.35-0.36-3.39-1.02-3.39-1.03
					c0-0.16,0.18-0.74,2.46-1.3c1.65-0.39,3.54-0.59,5.63-0.59c1.43,0,2.06,0.11,2.32,0.19c0.46,0.16,0.66,0.43,0.66,0.92
					C13.78,30.1,13.77,30.26,13.73,30.45z"/>
			</g>
			<g>
				<path class="st4" d="M18.54,25.76c0.69,0,1.28-0.11,1.77-0.32c0.22-0.09,0.32-0.24,0.32-0.47c0-0.37-0.17-0.55-0.51-0.55
					c-0.08,0-0.15,0.02-0.23,0.05c-0.64,0.27-1.14,0.43-1.5,0.48c-0.53,0.08-0.8,0.22-0.8,0.4C17.6,25.63,17.91,25.76,18.54,25.76z"
					/>
				<path class="st4" d="M30.5,26.27c0.18,0,0.32-0.08,0.43-0.25l0.3-0.48c0.06-0.1,0.09-0.2,0.09-0.29c0-0.15-0.06-0.27-0.17-0.37
					c-0.11-0.1-0.24-0.15-0.39-0.15c-0.18,0-0.32,0.08-0.43,0.25l-0.3,0.48c-0.06,0.1-0.09,0.2-0.09,0.29
					c0,0.15,0.06,0.27,0.17,0.37C30.23,26.22,30.36,26.27,30.5,26.27z"/>
				<path class="st4" d="M32.57,28.88c-0.04-0.1-0.08-0.2-0.13-0.29c-0.26-0.49-0.6-0.74-1.03-0.74c-0.39,0-0.72,0.16-1,0.48
					c-0.26,0.3-0.39,0.62-0.39,0.96c0,0.53,0.31,0.79,0.93,0.79c0.16,0,0.34-0.02,0.52-0.05c0.03-0.01,0.06-0.01,0.09-0.01
					c0.1,0,0.16,0.05,0.17,0.15v0.05c0,0.04-0.01,0.09-0.02,0.13c-0.01,0.05-0.03,0.1-0.05,0.15c-0.15,0.32-0.55,0.58-1.2,0.78
					c-0.58,0.18-1.17,0.26-1.76,0.26c-0.02,0-0.04,0-0.06,0c-0.02,0-0.04,0-0.06,0c-0.37,0-0.56-0.09-0.59-0.26
					c-0.3-2.78-0.52-5.04-0.66-6.77c-0.03-0.32-0.2-0.48-0.52-0.48c-0.36,0-0.54,0.16-0.54,0.49v0.08c0.2,2.44,0.37,4.26,0.5,5.48
					c-0.21,0.21-0.7,0.47-1.47,0.77c-1.16,0.46-2.35,0.68-3.59,0.68c-0.03,0-0.05,0-0.08,0c-0.02,0-0.05,0-0.07,0
					c-0.58,0-1.06-0.07-1.44-0.22c0.42-0.26,0.74-0.54,0.96-0.83c0.31-0.42,0.47-0.92,0.47-1.51c0-0.5-0.17-0.85-0.5-1.03
					c-0.15-0.08-0.31-0.12-0.48-0.12c-0.53,0-1.08,0.29-1.64,0.86c-0.56,0.57-0.86,1.17-0.92,1.79c-0.02,0.24,0.01,0.46,0.08,0.66
					c-0.85,0.3-1.86,0.57-3.04,0.8c-0.09,0.02-0.18,0.03-0.26,0.05c0.17-0.51,0.3-0.96,0.4-1.34c0.1-0.4,0.15-0.76,0.15-1.07
					c0-0.86-0.39-1.47-1.16-1.82c-0.67-0.31-1.77-0.47-3.29-0.47c-2.3,0-4.33,0.23-6.1,0.68c-1.48,0.38-2.5,0.88-3.06,1.49
					c-0.35,0.38-0.52,0.8-0.52,1.27c0,0.82,0.58,1.46,1.75,1.91c0.61,0.24,1.39,0.43,2.32,0.57c1.2,0.18,2.92,0.27,5.18,0.27
					c0.93,0,1.96-0.08,3.05-0.24c-0.07,0.25-0.15,0.51-0.24,0.79c-0.41,1.34-0.77,2.37-1.06,3.09c-0.08,0.2-0.12,0.38-0.12,0.53
					c0,0.13,0.03,0.2,0.11,0.2c0.13,0,0.29-0.2,0.48-0.59c0.38-0.76,0.81-1.78,1.32-3.07c0.15-0.38,0.29-0.75,0.41-1.09
					c0.55-0.1,1.12-0.21,1.72-0.35c1.06-0.25,1.96-0.51,2.7-0.81c0.13,0.08,0.28,0.16,0.45,0.23c0.66,0.27,1.43,0.41,2.3,0.41
					c0.03,0,0.05,0,0.07,0c0.03,0,0.05,0,0.08,0c1.36,0,2.69-0.25,3.97-0.76c0.5-0.2,0.9-0.39,1.23-0.58
					c0.01,0.07,0.02,0.13,0.03,0.19c0.12,0.77,0.67,1.15,1.63,1.15c0.02,0,0.04,0,0.06,0c0.02,0,0.04,0,0.06,0
					c0.6,0,1.21-0.08,1.83-0.25c0.29-0.08,0.55-0.17,0.78-0.27c0.38-0.17,0.7-0.38,0.94-0.61c0.35-0.35,0.53-0.87,0.53-1.58
					C32.76,29.51,32.7,29.18,32.57,28.88z M14.18,30.54c-0.08,0.45-0.21,0.99-0.38,1.63c-1.22,0.19-2.34,0.28-3.36,0.28
					c-1.61,0-3.08-0.07-4.4-0.22c-2.53-0.27-3.8-0.77-3.8-1.48c0-0.71,0.94-1.29,2.82-1.75c1.69-0.4,3.6-0.61,5.74-0.61
					c1.21,0,2.03,0.07,2.48,0.22c0.64,0.22,0.96,0.67,0.96,1.35C14.24,30.14,14.22,30.33,14.18,30.54z M19.58,30.49
					c-0.1,0.06-0.21,0.11-0.32,0.17c-0.09-0.15-0.13-0.3-0.12-0.45c0.02-0.22,0.12-0.45,0.31-0.71c0.2-0.29,0.41-0.44,0.63-0.44
					c0.03,0,0.07,0,0.1,0.01c0.13,0.04,0.2,0.18,0.2,0.43c0,0.16-0.05,0.3-0.14,0.42C20.09,30.13,19.87,30.32,19.58,30.49z"/>
			</g>
		</g>
		<g>
			<path class="st4" d="M17.11,38.32h-0.34l0-0.05c-0.08-0.22-0.25-0.4-0.49-0.55c-0.22-0.14-0.47-0.21-0.74-0.21l-0.1-0.24
				c0.22-0.16,0.36-0.26,0.4-0.28l0.35-0.25l-0.38-0.64H15.4l0.04-0.34h0.42c0.08,0,0.13,0.06,0.15,0.17
				c0.05-0.11,0.11-0.17,0.19-0.17h2.36l-0.04,0.34h-2.29l0.42,0.71l-0.6,0.44h0.01c0.33,0.1,0.59,0.26,0.79,0.49l0.15-1.45
				c0.08-0.01,0.2-0.02,0.33-0.02c0.2,0,0.38,0.06,0.56,0.18c0.13,0.08,0.24,0.21,0.31,0.39c0.04,0.12,0.05,0.26,0.04,0.41
				c-0.01,0.13-0.06,0.25-0.13,0.36c-0.08,0.13-0.2,0.2-0.35,0.23l-0.05,0c-0.1,0-0.18-0.04-0.24-0.11s-0.09-0.15-0.08-0.24
				c0.01-0.1,0.06-0.18,0.13-0.25c0.08-0.07,0.16-0.1,0.26-0.1c0.04,0,0.09,0.01,0.13,0.03c-0.01-0.2-0.09-0.35-0.23-0.43
				c-0.11-0.08-0.23-0.12-0.37-0.13L17.11,38.32z"/>
			<path class="st4" d="M19.59,38.32h-0.34l0.23-2.22h-0.17l0.04-0.34h0.17c0.08,0,0.13,0.06,0.15,0.17
				c0.05-0.12,0.12-0.17,0.19-0.17h0.17L20,36.1h-0.17L19.59,38.32z"/>
			<path class="st4" d="M23.04,38.33H22.7L22.84,37c-0.03-0.02-0.06-0.03-0.11-0.03c-0.04,0-0.08,0.01-0.13,0.03
				c-0.05,0.02-0.07,0.04-0.07,0.04c0,0.02,0,0.03,0.01,0.04c0.01,0.01,0.01,0.02,0.02,0.04c0.04,0.11,0.06,0.23,0.04,0.36h-0.33
				c0.01-0.07-0.01-0.16-0.04-0.25c-0.04-0.1-0.1-0.18-0.18-0.25c-0.08-0.07-0.19-0.11-0.31-0.11c-0.14,0.01-0.27,0.06-0.37,0.14
				c-0.1,0.08-0.17,0.2-0.2,0.35c-0.01,0.1,0.01,0.2,0.06,0.28s0.11,0.14,0.19,0.16c-0.03-0.06-0.04-0.12-0.03-0.18
				c0.01-0.1,0.06-0.19,0.13-0.26c0.08-0.07,0.17-0.1,0.26-0.1c0.08,0,0.16,0.03,0.22,0.08c0.08,0.08,0.11,0.17,0.1,0.28
				c0,0.01,0,0.02,0,0.03c0,0.01-0.01,0.02-0.01,0.02c0,0.01,0,0.01-0.01,0.02c0,0.01-0.01,0.02-0.01,0.03
				c-0.06,0.13-0.15,0.24-0.27,0.31c-0.12,0.07-0.25,0.11-0.37,0.11c-0.13,0-0.24-0.04-0.33-0.12c-0.09-0.08-0.16-0.18-0.21-0.3
				c-0.05-0.12-0.06-0.25-0.05-0.38c0.04-0.26,0.16-0.45,0.35-0.59c0.19-0.14,0.38-0.21,0.58-0.21c0.22,0,0.41,0.08,0.58,0.24
				c0.14-0.1,0.28-0.15,0.42-0.15c0.01,0,0.02,0,0.04,0c0.01,0,0.04,0,0.08,0.01l0.06-0.55h-2.15l0.04-0.34h2.15
				c0.08,0,0.13,0.06,0.15,0.17c0.06-0.11,0.12-0.17,0.19-0.17h0.17l-0.04,0.34h-0.17L23.04,38.33z"/>
			<path class="st4" d="M24.52,38.32h-0.34l0.23-2.22h-0.17l0.04-0.34h0.17c0.08,0,0.13,0.06,0.15,0.17
				c0.05-0.12,0.12-0.17,0.19-0.17h0.17l-0.04,0.34h-0.17L24.52,38.32z"/>
			<path class="st4" d="M27.61,38.32h-0.34l0.01-0.11c-0.05-0.16-0.13-0.3-0.23-0.42c-0.21-0.24-0.48-0.38-0.79-0.42
				c-0.13-0.02-0.27-0.03-0.41-0.03l-0.07-0.24c0.5-0.47,1.05-0.8,1.68-1h-1.75l0.04-0.34h1.79c0.08,0,0.13,0.06,0.15,0.17
				c0.06-0.11,0.12-0.17,0.19-0.17h1.15L29,36.1h-1.07c0.26,0.04,0.47,0.15,0.62,0.31s0.21,0.38,0.18,0.65
				c-0.01,0.13-0.06,0.25-0.13,0.36c-0.08,0.11-0.18,0.18-0.3,0.22c-0.03,0.01-0.06,0.02-0.1,0.02c-0.09,0-0.17-0.03-0.23-0.1
				c-0.07-0.07-0.09-0.15-0.08-0.25c0.01-0.1,0.05-0.18,0.13-0.25c0.08-0.07,0.16-0.1,0.26-0.1c0.05,0,0.09,0.01,0.13,0.03
				c0-0.16-0.05-0.28-0.16-0.38c-0.11-0.09-0.25-0.15-0.42-0.18L27.61,38.32z M27.34,37.6l0.12-1.16c-0.4,0.14-0.78,0.34-1.12,0.6
				C26.75,37.1,27.08,37.28,27.34,37.6z"/>
			<path class="st4" d="M27.66,38.71l-0.05,0.47l-0.44-0.49l0.26-0.24L27.66,38.71z"/>
		</g>
	</g>
	<g>
		<line class="st5" x1="42.29" y1="0.51" x2="42.29" y2="47.49"/>
		<rect x="41.63" y="0.51" class="st5" width="1.33" height="46.99"/>
	</g>
	<g>
		<path class="st5" d="M51.22,5.54h4.82v1.2h-3.57V9h2.67v1.17h-2.67v3.29h-1.25V5.54z"/>
		<path class="st5" d="M62.48,13.46h-1.21v-0.89c-0.21,0.24-0.44,0.45-0.7,0.63c-0.26,0.17-0.59,0.26-0.99,0.26
			c-0.58,0-1.07-0.18-1.47-0.53c-0.39-0.35-0.59-0.8-0.59-1.33c0-0.57,0.21-1.02,0.64-1.34c0.43-0.33,0.97-0.49,1.64-0.49
			c0.55,0,1.04,0.1,1.46,0.3V9.85c0-0.32-0.13-0.59-0.39-0.81c-0.26-0.21-0.56-0.32-0.91-0.32c-0.55,0-0.99,0.23-1.32,0.68
			l-0.97-0.64c0.52-0.72,1.28-1.07,2.27-1.07c0.8,0,1.43,0.2,1.86,0.6c0.44,0.4,0.66,0.97,0.66,1.7V13.46z M59.8,12.44
			c0.4,0,0.75-0.14,1.04-0.43c0.29-0.28,0.44-0.61,0.44-0.99c-0.36-0.21-0.77-0.32-1.23-0.32c-0.38,0-0.69,0.09-0.92,0.27
			c-0.23,0.18-0.34,0.39-0.34,0.64c0,0.24,0.11,0.44,0.32,0.61C59.29,12.37,59.52,12.44,59.8,12.44z"/>
		<path class="st5" d="M63.98,13.46V5.54h1.23v7.92H63.98z"/>
		<path class="st5" d="M71.65,13.46h-1.21v-0.89c-0.21,0.24-0.44,0.45-0.7,0.63c-0.26,0.17-0.59,0.26-0.99,0.26
			c-0.58,0-1.07-0.18-1.47-0.53c-0.39-0.35-0.59-0.8-0.59-1.33c0-0.57,0.21-1.02,0.64-1.34c0.43-0.33,0.97-0.49,1.64-0.49
			c0.55,0,1.04,0.1,1.46,0.3V9.85c0-0.32-0.13-0.59-0.39-0.81c-0.26-0.21-0.56-0.32-0.91-0.32c-0.55,0-0.99,0.23-1.32,0.68
			l-0.97-0.64c0.52-0.72,1.28-1.07,2.27-1.07c0.8,0,1.43,0.2,1.86,0.6c0.44,0.4,0.66,0.97,0.66,1.7V13.46z M68.96,12.44
			c0.4,0,0.75-0.14,1.04-0.43c0.29-0.28,0.44-0.61,0.44-0.99c-0.36-0.21-0.77-0.32-1.23-0.32c-0.38,0-0.69,0.09-0.92,0.27
			c-0.23,0.18-0.34,0.39-0.34,0.64c0,0.24,0.11,0.44,0.32,0.61C68.46,12.37,68.68,12.44,68.96,12.44z"/>
		<path class="st5" d="M78.72,15.85h-1.23v-3.09c-0.15,0.24-0.37,0.44-0.68,0.61c-0.3,0.17-0.66,0.26-1.08,0.26
			c-0.71,0-1.32-0.28-1.83-0.84c-0.51-0.56-0.76-1.24-0.76-2.05c0-0.81,0.25-1.5,0.76-2.05c0.51-0.56,1.12-0.84,1.83-0.84
			c0.42,0,0.78,0.09,1.08,0.26c0.3,0.17,0.53,0.38,0.68,0.61V7.86h1.23V15.85z M75.96,12.5c0.44,0,0.82-0.16,1.13-0.48
			c0.31-0.32,0.46-0.74,0.46-1.27c0-0.52-0.15-0.95-0.46-1.27C76.78,9.16,76.41,9,75.96,9c-0.44,0-0.81,0.15-1.11,0.46
			c-0.32,0.34-0.49,0.77-0.49,1.28c0,0.52,0.16,0.94,0.49,1.27C75.15,12.34,75.52,12.5,75.96,12.5z"/>
		<path class="st5" d="M53.55,29.13h-1.31l1.23-2.7l-2.26-5.11h1.37l1.52,3.6l1.48-3.6h1.36L53.55,29.13z"/>
		<path class="st5" d="M61.28,20.96c0.41,0,0.79,0.07,1.14,0.22c0.35,0.14,0.65,0.34,0.9,0.6c0.25,0.26,0.45,0.56,0.59,0.92
			c0.14,0.35,0.21,0.74,0.21,1.15c0,0.41-0.07,0.8-0.21,1.15c-0.14,0.35-0.34,0.66-0.59,0.92c-0.25,0.26-0.55,0.46-0.9,0.6
			c-0.35,0.14-0.73,0.22-1.14,0.22c-0.41,0-0.79-0.07-1.14-0.22c-0.35-0.14-0.65-0.34-0.9-0.6c-0.25-0.26-0.45-0.56-0.59-0.92
			c-0.14-0.35-0.21-0.74-0.21-1.15c0-0.41,0.07-0.8,0.21-1.15c0.14-0.35,0.34-0.66,0.59-0.92c0.25-0.26,0.55-0.46,0.9-0.6
			C60.48,21.03,60.86,20.96,61.28,20.96z M61.28,25.6c0.21,0,0.41-0.04,0.6-0.12c0.19-0.08,0.36-0.2,0.51-0.34
			c0.15-0.15,0.27-0.33,0.36-0.55c0.09-0.22,0.13-0.46,0.13-0.74c0-0.27-0.04-0.52-0.13-0.74c-0.09-0.22-0.21-0.4-0.36-0.55
			c-0.15-0.15-0.32-0.26-0.51-0.34c-0.19-0.08-0.39-0.12-0.6-0.12c-0.21,0-0.41,0.04-0.6,0.12c-0.19,0.08-0.36,0.2-0.51,0.34
			c-0.15,0.15-0.27,0.33-0.36,0.55c-0.09,0.22-0.13,0.46-0.13,0.74c0,0.27,0.04,0.52,0.13,0.74c0.09,0.22,0.21,0.4,0.36,0.55
			s0.32,0.26,0.51,0.34C60.87,25.56,61.07,25.6,61.28,25.6z"/>
		<path class="st5" d="M70.58,26.74h-1.23v-0.95c-0.16,0.29-0.39,0.52-0.69,0.69c-0.3,0.17-0.64,0.26-1.01,0.26
			c-0.69,0-1.2-0.2-1.54-0.61c-0.34-0.41-0.51-0.95-0.51-1.63v-3.35h1.23v3.19c0,0.85,0.39,1.27,1.18,1.27c0.4,0,0.73-0.17,0.98-0.5
			c0.24-0.3,0.35-0.68,0.35-1.13v-2.83h1.23V26.74z"/>
		<path class="st5" d="M73.03,22.18h-0.95V21.1h0.95v-2.28h1.23v2.28h0.95v1.08h-0.95v2.55c0,0.13,0.01,0.25,0.04,0.37
			c0.03,0.11,0.07,0.2,0.13,0.28c0.13,0.14,0.28,0.21,0.48,0.21c0.12,0,0.21-0.01,0.28-0.03c0.07-0.02,0.14-0.05,0.21-0.08
			l0.38,1.08c-0.15,0.06-0.32,0.11-0.49,0.14s-0.36,0.05-0.58,0.05c-0.26,0-0.49-0.04-0.69-0.12c-0.2-0.08-0.37-0.19-0.52-0.33
			c-0.32-0.32-0.48-0.75-0.48-1.29V22.18z"/>
		<path class="st5" d="M82.25,26.74h-1.23v-3.19c0-0.45-0.11-0.77-0.33-0.97c-0.22-0.2-0.49-0.3-0.82-0.3c-0.4,0-0.73,0.17-1,0.51
			c-0.25,0.32-0.38,0.7-0.38,1.15v2.8h-1.23v-7.92h1.23v3.23c0.15-0.26,0.38-0.47,0.69-0.65c0.3-0.17,0.64-0.26,1.01-0.26
			c0.69,0,1.21,0.21,1.56,0.62c0.33,0.39,0.5,0.93,0.5,1.63V26.74z"/>
		<path class="st5" d="M55.32,40.2c-0.59,0-1.13-0.11-1.63-0.32c-0.5-0.21-0.93-0.51-1.3-0.88c-0.37-0.37-0.66-0.81-0.86-1.32
			c-0.21-0.51-0.31-1.05-0.31-1.62c0-0.58,0.1-1.11,0.31-1.62c0.21-0.5,0.49-0.94,0.86-1.32c0.37-0.38,0.8-0.67,1.3-0.89
			c0.5-0.21,1.04-0.32,1.63-0.32c0.58,0,1.13,0.11,1.63,0.32c0.5,0.21,0.94,0.51,1.31,0.89c0.37,0.38,0.66,0.82,0.86,1.32
			c0.21,0.5,0.31,1.04,0.31,1.62c0,0.58-0.1,1.12-0.31,1.62c-0.21,0.51-0.49,0.94-0.86,1.32c-0.37,0.37-0.8,0.67-1.31,0.88
			C56.45,40.09,55.91,40.2,55.32,40.2z M55.32,39c0.39,0,0.76-0.07,1.11-0.21c0.35-0.14,0.65-0.34,0.9-0.6
			c0.25-0.26,0.46-0.57,0.6-0.93c0.15-0.36,0.22-0.76,0.22-1.21c0-0.44-0.07-0.84-0.22-1.21c-0.15-0.36-0.35-0.67-0.6-0.93
			c-0.25-0.26-0.56-0.46-0.9-0.6c-0.35-0.14-0.72-0.21-1.11-0.21c-0.39,0-0.76,0.07-1.11,0.21c-0.35,0.14-0.65,0.34-0.9,0.6
			c-0.25,0.26-0.46,0.57-0.6,0.93c-0.15,0.36-0.22,0.76-0.22,1.21c0,0.44,0.07,0.84,0.22,1.21c0.15,0.36,0.35,0.67,0.6,0.93
			c0.25,0.26,0.56,0.46,0.9,0.6C54.56,38.93,54.93,39,55.32,39z"/>
		<path class="st5" d="M62.15,40.02h-1.23v-5.58h1.23v0.97c0.14-0.29,0.36-0.52,0.66-0.7c0.3-0.18,0.6-0.27,0.91-0.27
			c0.31,0,0.58,0.06,0.8,0.17l-0.35,1.14c-0.16-0.07-0.37-0.11-0.63-0.11c-0.38,0-0.71,0.15-0.98,0.45c-0.27,0.3-0.4,0.67-0.4,1.11
			V40.02z"/>
		<path class="st5" d="M68.78,42.46c-0.69,0-1.27-0.18-1.76-0.53c-0.39-0.28-0.67-0.64-0.83-1.07l1.17-0.48
			c0.1,0.29,0.28,0.52,0.53,0.7c0.25,0.18,0.55,0.27,0.89,0.27c0.51,0,0.91-0.16,1.19-0.46c0.28-0.31,0.43-0.74,0.43-1.28v-0.52
			c-0.45,0.62-1.06,0.93-1.81,0.93c-0.69,0-1.29-0.27-1.8-0.81c-0.51-0.54-0.77-1.22-0.77-2.06c0-0.83,0.26-1.51,0.77-2.05
			c0.51-0.54,1.11-0.81,1.8-0.81c0.75,0,1.35,0.3,1.81,0.9v-0.72h1.18v5.11c0,0.9-0.27,1.61-0.8,2.14
			C70.28,42.22,69.61,42.46,68.78,42.46z M68.83,38.88c0.44,0,0.81-0.15,1.1-0.44c0.32-0.33,0.48-0.76,0.48-1.28
			c0-0.53-0.16-0.96-0.48-1.28c-0.3-0.29-0.67-0.44-1.1-0.44c-0.43,0-0.79,0.15-1.1,0.45c-0.32,0.32-0.49,0.75-0.49,1.27
			c0,0.52,0.16,0.95,0.49,1.27C68.03,38.73,68.4,38.88,68.83,38.88z"/>
		<path class="st5" d="M78.02,40.02h-1.21v-0.89c-0.21,0.24-0.44,0.45-0.7,0.63c-0.26,0.17-0.59,0.26-0.99,0.26
			c-0.58,0-1.07-0.18-1.47-0.53c-0.39-0.35-0.59-0.8-0.59-1.33c0-0.57,0.21-1.02,0.64-1.34c0.43-0.33,0.97-0.49,1.64-0.49
			c0.55,0,1.04,0.1,1.46,0.3v-0.21c0-0.32-0.13-0.59-0.39-0.81c-0.26-0.21-0.56-0.32-0.91-0.32c-0.55,0-0.99,0.23-1.32,0.68
			l-0.97-0.64c0.52-0.72,1.28-1.07,2.27-1.07c0.8,0,1.43,0.2,1.86,0.6c0.44,0.4,0.66,0.97,0.66,1.7V40.02z M75.33,39
			c0.4,0,0.75-0.14,1.04-0.43c0.29-0.28,0.44-0.61,0.44-0.99c-0.36-0.21-0.77-0.32-1.23-0.32c-0.38,0-0.69,0.09-0.92,0.27
			c-0.23,0.18-0.34,0.39-0.34,0.64c0,0.24,0.11,0.44,0.32,0.61C74.83,38.93,75.06,39,75.33,39z"/>
		<path class="st5" d="M84.5,40.02h-1.23v-3.19c0-0.85-0.39-1.27-1.18-1.27c-0.4,0-0.73,0.16-0.98,0.49
			c-0.24,0.3-0.35,0.68-0.35,1.14v2.83h-1.23v-5.6h1.23v0.91c0.16-0.26,0.39-0.47,0.69-0.65c0.3-0.17,0.64-0.26,1.01-0.26
			c0.69,0,1.2,0.2,1.54,0.61c0.34,0.41,0.51,0.95,0.51,1.63V40.02z"/>
		<path class="st5" d="M86.82,33.76c-0.24,0-0.43-0.08-0.59-0.24c-0.16-0.16-0.24-0.36-0.24-0.59c0-0.23,0.08-0.42,0.24-0.59
			c0.16-0.16,0.36-0.24,0.59-0.24c0.23,0,0.42,0.08,0.58,0.24s0.24,0.36,0.24,0.59c0,0.23-0.08,0.42-0.24,0.59
			S87.05,33.76,86.82,33.76z M86.2,40.02V34.6h1.23v5.42H86.2z"/>
		<path class="st5" d="M89.15,38.99l2.92-3.32h-2.94V34.6h4.46v1.03l-2.92,3.32h2.92v1.07h-4.44V38.99z"/>
		<path class="st5" d="M100.03,40.02h-1.21v-0.89c-0.21,0.24-0.44,0.45-0.7,0.63c-0.26,0.17-0.59,0.26-0.98,0.26
			c-0.58,0-1.07-0.18-1.47-0.53c-0.39-0.35-0.59-0.8-0.59-1.33c0-0.57,0.21-1.02,0.64-1.34c0.43-0.33,0.97-0.49,1.64-0.49
			c0.55,0,1.04,0.1,1.46,0.3v-0.21c0-0.32-0.13-0.59-0.39-0.81c-0.26-0.21-0.56-0.32-0.91-0.32c-0.55,0-0.99,0.23-1.32,0.68
			l-0.97-0.64c0.52-0.72,1.28-1.07,2.27-1.07c0.8,0,1.43,0.2,1.86,0.6c0.44,0.4,0.66,0.97,0.66,1.7V40.02z M97.34,39
			c0.4,0,0.75-0.14,1.04-0.43c0.3-0.28,0.44-0.61,0.44-0.99c-0.36-0.21-0.77-0.32-1.23-0.32c-0.38,0-0.69,0.09-0.92,0.27
			c-0.23,0.18-0.34,0.39-0.34,0.64c0,0.24,0.11,0.44,0.32,0.61C96.84,38.93,97.07,39,97.34,39z"/>
		<path class="st5" d="M102.48,35.46h-0.95v-1.08h0.95v-2.28h1.23v2.28h0.95v1.08h-0.95V38c0,0.13,0.01,0.25,0.04,0.37
			c0.03,0.11,0.07,0.2,0.13,0.28c0.13,0.14,0.28,0.21,0.48,0.21c0.12,0,0.21-0.01,0.28-0.03c0.07-0.02,0.14-0.05,0.21-0.08
			l0.38,1.08c-0.15,0.06-0.32,0.11-0.49,0.14c-0.17,0.03-0.36,0.05-0.58,0.05c-0.26,0-0.49-0.04-0.69-0.12
			c-0.2-0.08-0.37-0.19-0.52-0.33c-0.32-0.32-0.48-0.75-0.48-1.29V35.46z"/>
		<path class="st5" d="M107.55,33.76c-0.24,0-0.43-0.08-0.59-0.24c-0.16-0.16-0.24-0.36-0.24-0.59c0-0.23,0.08-0.42,0.24-0.59
			c0.16-0.16,0.36-0.24,0.59-0.24c0.23,0,0.42,0.08,0.58,0.24c0.16,0.16,0.24,0.36,0.24,0.59c0,0.23-0.08,0.42-0.24,0.59
			C107.97,33.67,107.78,33.76,107.55,33.76z M106.93,40.02V34.6h1.23v5.42H106.93z"/>
		<path class="st5" d="M112.69,34.24c0.41,0,0.79,0.07,1.14,0.22c0.35,0.14,0.65,0.34,0.9,0.6c0.25,0.26,0.45,0.56,0.59,0.92
			c0.14,0.35,0.21,0.74,0.21,1.15c0,0.41-0.07,0.8-0.21,1.15c-0.14,0.35-0.34,0.66-0.59,0.92c-0.25,0.26-0.55,0.46-0.9,0.6
			c-0.35,0.14-0.73,0.22-1.14,0.22s-0.79-0.07-1.14-0.22c-0.35-0.14-0.65-0.34-0.9-0.6c-0.25-0.26-0.45-0.56-0.59-0.92
			c-0.14-0.35-0.21-0.74-0.21-1.15c0-0.41,0.07-0.8,0.21-1.15c0.14-0.35,0.34-0.66,0.59-0.92c0.25-0.26,0.55-0.46,0.9-0.6
			C111.9,34.31,112.28,34.24,112.69,34.24z M112.69,38.88c0.21,0,0.41-0.04,0.6-0.12c0.19-0.08,0.36-0.2,0.51-0.34
			c0.15-0.15,0.27-0.33,0.36-0.55c0.09-0.22,0.13-0.46,0.13-0.74c0-0.27-0.04-0.52-0.13-0.74c-0.09-0.22-0.21-0.4-0.36-0.55
			c-0.15-0.15-0.32-0.26-0.51-0.34c-0.19-0.08-0.39-0.12-0.6-0.12s-0.41,0.04-0.6,0.12c-0.19,0.08-0.36,0.2-0.51,0.34
			c-0.15,0.15-0.27,0.33-0.36,0.55c-0.09,0.22-0.13,0.46-0.13,0.74c0,0.27,0.04,0.52,0.13,0.74c0.09,0.22,0.21,0.4,0.36,0.55
			c0.15,0.15,0.32,0.26,0.51,0.34C112.29,38.84,112.49,38.88,112.69,38.88z"/>
		<path class="st5" d="M122,40.02h-1.23v-3.19c0-0.85-0.39-1.27-1.18-1.27c-0.4,0-0.73,0.16-0.98,0.49
			c-0.24,0.3-0.35,0.68-0.35,1.14v2.83h-1.23v-5.6h1.23v0.91c0.16-0.26,0.39-0.47,0.69-0.65c0.3-0.17,0.64-0.26,1.01-0.26
			c0.69,0,1.2,0.2,1.54,0.61s0.51,0.95,0.51,1.63V40.02z"/>
	</g>
</g>
</svg>
