<?xml version="1.0" encoding="utf-8"?>
<!-- Generator: Adobe Illustrator 24.2.3, SVG Export Plug-In . SVG Version: 6.00 Build 0)  -->
<svg version="1.1" id="Layer_1" xmlns="http://www.w3.org/2000/svg" xmlns:xlink="http://www.w3.org/1999/xlink" x="0px" y="0px"
	 viewBox="0 0 217 40" style="enable-background:new 0 0 217 40;" xml:space="preserve">
<style type="text/css">
	.st0{fill:#F5E6BA;}
	.st1{fill:#DE0024;}
</style>
<g>
	<g>
		<g>
			<line class="st0" x1="35.55" y1="1.37" x2="35.55" y2="38.63"/>
			<rect x="35.02" y="1.37" class="st0" width="1.05" height="37.26"/>
		</g>
		<g>
			<path class="st0" d="M42.7,17.03h5.92v1.47h-4.39v2.78h3.27v1.44h-3.27v4.03H42.7V17.03z"/>
			<path class="st0" d="M56.53,26.76h-1.48v-1.09c-0.25,0.3-0.54,0.55-0.86,0.77c-0.32,0.21-0.72,0.32-1.21,0.32
				c-0.72,0-1.32-0.22-1.8-0.65c-0.48-0.43-0.73-0.98-0.73-1.63c0-0.7,0.26-1.25,0.79-1.65c0.53-0.4,1.2-0.6,2.01-0.6
				c0.68,0,1.28,0.12,1.79,0.37v-0.26c0-0.4-0.16-0.73-0.48-0.99c-0.32-0.26-0.69-0.39-1.11-0.39c-0.68,0-1.22,0.28-1.62,0.83
				l-1.2-0.79c0.64-0.88,1.57-1.32,2.78-1.32c0.99,0,1.75,0.24,2.29,0.73c0.54,0.49,0.81,1.19,0.81,2.09V26.76z M53.23,25.51
				c0.49,0,0.91-0.17,1.28-0.52c0.36-0.35,0.54-0.75,0.54-1.22c-0.44-0.26-0.95-0.39-1.51-0.39c-0.47,0-0.85,0.11-1.13,0.33
				c-0.28,0.22-0.42,0.48-0.42,0.79c0,0.29,0.13,0.54,0.39,0.75C52.61,25.42,52.89,25.51,53.23,25.51z"/>
			<path class="st0" d="M58.36,26.76v-9.72h1.51v9.72H58.36z"/>
			<path class="st0" d="M67.77,26.76h-1.48v-1.09c-0.25,0.3-0.54,0.55-0.86,0.77c-0.32,0.21-0.72,0.32-1.21,0.32
				c-0.72,0-1.32-0.22-1.8-0.65c-0.48-0.43-0.73-0.98-0.73-1.63c0-0.7,0.26-1.25,0.79-1.65c0.53-0.4,1.2-0.6,2.01-0.6
				c0.68,0,1.28,0.12,1.79,0.37v-0.26c0-0.4-0.16-0.73-0.48-0.99c-0.32-0.26-0.69-0.39-1.11-0.39c-0.68,0-1.22,0.28-1.62,0.83
				l-1.2-0.79c0.64-0.88,1.57-1.32,2.78-1.32c0.99,0,1.75,0.24,2.29,0.73c0.54,0.49,0.81,1.19,0.81,2.09V26.76z M64.47,25.51
				c0.49,0,0.91-0.17,1.28-0.52c0.36-0.35,0.54-0.75,0.54-1.22c-0.44-0.26-0.95-0.39-1.51-0.39c-0.47,0-0.85,0.11-1.13,0.33
				c-0.28,0.22-0.42,0.48-0.42,0.79c0,0.29,0.13,0.54,0.39,0.75C63.86,25.42,64.14,25.51,64.47,25.51z"/>
			<path class="st0" d="M76.45,29.69h-1.51V25.9c-0.18,0.29-0.46,0.54-0.83,0.75c-0.37,0.21-0.81,0.32-1.33,0.32
				c-0.87,0-1.62-0.34-2.24-1.03c-0.62-0.68-0.94-1.52-0.94-2.52c0-1,0.31-1.84,0.94-2.52c0.62-0.68,1.37-1.03,2.24-1.03
				c0.52,0,0.96,0.11,1.33,0.32c0.37,0.21,0.65,0.46,0.83,0.75v-1.07h1.51V29.69z M73.07,25.57c0.54,0,1-0.2,1.39-0.59
				c0.38-0.39,0.57-0.91,0.57-1.56c0-0.64-0.19-1.16-0.57-1.56c-0.38-0.39-0.84-0.59-1.39-0.59c-0.54,0-1,0.19-1.36,0.57
				c-0.4,0.42-0.6,0.94-0.6,1.58c0,0.63,0.2,1.15,0.6,1.56C72.07,25.38,72.53,25.57,73.07,25.57z"/>
		</g>
		<g>
			<path class="st0" d="M85.94,29.69h-1.6l1.51-3.31l-2.77-6.27h1.68l1.86,4.41l1.82-4.41h1.67L85.94,29.69z"/>
			<path class="st0" d="M95.42,19.67c0.51,0,0.97,0.09,1.4,0.26c0.43,0.18,0.79,0.42,1.1,0.74c0.31,0.32,0.55,0.69,0.72,1.13
				c0.17,0.43,0.26,0.91,0.26,1.41c0,0.51-0.09,0.98-0.26,1.41c-0.17,0.43-0.41,0.81-0.72,1.13c-0.31,0.32-0.67,0.56-1.1,0.74
				c-0.43,0.18-0.89,0.26-1.4,0.26c-0.51,0-0.97-0.09-1.4-0.26c-0.43-0.18-0.79-0.42-1.1-0.74c-0.31-0.32-0.55-0.69-0.72-1.13
				c-0.17-0.43-0.26-0.91-0.26-1.41c0-0.51,0.09-0.98,0.26-1.41c0.17-0.43,0.41-0.81,0.72-1.13c0.31-0.32,0.67-0.56,1.1-0.74
				C94.45,19.76,94.92,19.67,95.42,19.67z M95.42,25.36c0.25,0,0.5-0.05,0.73-0.15c0.24-0.1,0.45-0.24,0.63-0.42
				c0.19-0.18,0.33-0.41,0.44-0.67c0.11-0.27,0.16-0.57,0.16-0.9c0-0.33-0.05-0.64-0.16-0.9c-0.11-0.27-0.26-0.49-0.44-0.67
				c-0.19-0.18-0.4-0.32-0.63-0.42c-0.24-0.1-0.48-0.15-0.73-0.15c-0.25,0-0.5,0.05-0.73,0.15c-0.24,0.1-0.45,0.24-0.63,0.42
				s-0.33,0.41-0.44,0.67c-0.11,0.27-0.16,0.57-0.16,0.9c0,0.33,0.05,0.64,0.16,0.9c0.11,0.27,0.26,0.49,0.44,0.67
				c0.19,0.18,0.4,0.32,0.63,0.42C94.92,25.31,95.17,25.36,95.42,25.36z"/>
			<path class="st0" d="M106.84,26.76h-1.51v-1.17c-0.2,0.35-0.48,0.64-0.85,0.85c-0.37,0.21-0.78,0.32-1.24,0.32
				c-0.84,0-1.47-0.25-1.89-0.75c-0.42-0.5-0.62-1.17-0.62-2v-4.11h1.51v3.91c0,1.04,0.48,1.56,1.45,1.56c0.49,0,0.89-0.2,1.21-0.61
				c0.29-0.37,0.43-0.83,0.43-1.39v-3.48h1.51V26.76z"/>
			<path class="st0" d="M109.84,21.16h-1.17v-1.33h1.17v-2.8h1.51v2.8h1.17v1.33h-1.17v3.12c0,0.16,0.02,0.31,0.05,0.45
				c0.04,0.14,0.09,0.25,0.16,0.34c0.15,0.17,0.35,0.26,0.58,0.26c0.14,0,0.26-0.01,0.34-0.03c0.08-0.02,0.17-0.06,0.26-0.1
				l0.46,1.33c-0.19,0.07-0.39,0.13-0.6,0.17c-0.21,0.04-0.44,0.06-0.71,0.06c-0.32,0-0.6-0.05-0.84-0.15
				c-0.24-0.1-0.46-0.24-0.64-0.41c-0.39-0.39-0.58-0.92-0.58-1.59V21.16z"/>
			<path class="st0" d="M121.16,26.76h-1.51v-3.91c0-0.55-0.13-0.95-0.4-1.2c-0.27-0.24-0.6-0.37-1.01-0.37
				c-0.49,0-0.9,0.21-1.22,0.62c-0.31,0.39-0.46,0.86-0.46,1.41v3.44h-1.51v-9.72h1.51V21c0.19-0.32,0.47-0.58,0.84-0.79
				c0.37-0.21,0.78-0.32,1.24-0.32c0.84,0,1.48,0.25,1.92,0.76c0.41,0.48,0.61,1.15,0.61,2V26.76z"/>
		</g>
		<g>
			<path class="st0" d="M132.98,25.61c-0.72,0-1.39-0.13-2-0.39s-1.14-0.62-1.6-1.08c-0.45-0.46-0.81-1-1.06-1.62
				c-0.25-0.62-0.38-1.28-0.38-1.99s0.13-1.37,0.38-1.98c0.25-0.62,0.61-1.15,1.06-1.62c0.45-0.46,0.98-0.82,1.6-1.09
				c0.61-0.26,1.28-0.39,2-0.39c0.72,0,1.38,0.13,2,0.39c0.62,0.26,1.15,0.62,1.6,1.09c0.45,0.46,0.81,1,1.06,1.62
				c0.25,0.62,0.38,1.28,0.38,1.98s-0.13,1.37-0.38,1.99c-0.25,0.62-0.61,1.16-1.06,1.62c-0.45,0.46-0.99,0.82-1.6,1.08
				C134.36,25.48,133.7,25.61,132.98,25.61z M132.98,24.14c0.48,0,0.93-0.09,1.36-0.26c0.43-0.17,0.79-0.42,1.11-0.73
				c0.31-0.32,0.56-0.7,0.74-1.14c0.18-0.44,0.27-0.94,0.27-1.48c0-0.54-0.09-1.04-0.27-1.48c-0.18-0.44-0.43-0.82-0.74-1.14
				c-0.31-0.32-0.68-0.56-1.11-0.73c-0.43-0.17-0.88-0.26-1.36-0.26c-0.48,0-0.93,0.09-1.36,0.26c-0.43,0.17-0.79,0.42-1.11,0.73
				c-0.31,0.32-0.56,0.7-0.74,1.14c-0.18,0.44-0.27,0.94-0.27,1.48c0,0.54,0.09,1.04,0.27,1.48c0.18,0.44,0.43,0.82,0.74,1.14
				c0.31,0.32,0.68,0.56,1.11,0.73C132.05,24.06,132.5,24.14,132.98,24.14z"/>
			<path class="st0" d="M141.36,25.39h-1.51v-6.84h1.51v1.2c0.17-0.35,0.44-0.64,0.81-0.86c0.37-0.22,0.74-0.33,1.11-0.33
				c0.38,0,0.71,0.07,0.98,0.2l-0.43,1.4c-0.2-0.09-0.46-0.14-0.77-0.14c-0.47,0-0.87,0.18-1.2,0.55c-0.33,0.37-0.5,0.82-0.5,1.36
				V25.39z"/>
			<path class="st0" d="M149.5,28.4c-0.84,0-1.56-0.22-2.16-0.65c-0.48-0.34-0.82-0.78-1.02-1.32l1.44-0.58
				c0.13,0.35,0.34,0.64,0.65,0.86c0.31,0.22,0.67,0.33,1.09,0.33c0.62,0,1.11-0.19,1.46-0.57c0.35-0.38,0.52-0.91,0.52-1.58v-0.64
				c-0.55,0.76-1.29,1.14-2.23,1.14c-0.84,0-1.58-0.33-2.21-0.99c-0.63-0.66-0.94-1.5-0.94-2.53c0-1.01,0.31-1.85,0.94-2.51
				c0.63-0.66,1.36-0.99,2.21-0.99c0.91,0,1.66,0.37,2.23,1.1v-0.88h1.45v6.27c0,1.1-0.33,1.98-0.98,2.62
				C151.33,28.09,150.51,28.4,149.5,28.4z M149.55,24c0.54,0,0.99-0.18,1.34-0.54c0.39-0.41,0.58-0.93,0.58-1.58
				c0-0.65-0.19-1.18-0.58-1.58c-0.37-0.36-0.82-0.54-1.34-0.54c-0.53,0-0.97,0.19-1.34,0.56c-0.4,0.4-0.6,0.92-0.6,1.56
				c0,0.64,0.2,1.16,0.6,1.56C148.58,23.81,149.03,24,149.55,24z"/>
			<path class="st0" d="M160.84,25.39h-1.48v-1.09c-0.25,0.3-0.54,0.55-0.86,0.77c-0.32,0.21-0.72,0.32-1.21,0.32
				c-0.72,0-1.32-0.22-1.8-0.65c-0.48-0.43-0.73-0.98-0.73-1.63c0-0.7,0.26-1.25,0.79-1.65c0.53-0.4,1.2-0.6,2.01-0.6
				c0.68,0,1.28,0.12,1.79,0.37v-0.26c0-0.4-0.16-0.73-0.48-0.99s-0.69-0.39-1.11-0.39c-0.68,0-1.22,0.28-1.62,0.83l-1.2-0.79
				c0.64-0.88,1.57-1.32,2.78-1.32c0.99,0,1.75,0.24,2.29,0.73c0.54,0.49,0.81,1.19,0.81,2.09V25.39z M157.54,24.14
				c0.49,0,0.91-0.17,1.28-0.52c0.36-0.35,0.54-0.75,0.54-1.22c-0.44-0.26-0.95-0.39-1.51-0.39c-0.47,0-0.85,0.11-1.13,0.33
				c-0.28,0.22-0.42,0.48-0.42,0.79c0,0.29,0.13,0.54,0.39,0.75C156.92,24.05,157.2,24.14,157.54,24.14z"/>
			<path class="st0" d="M168.78,25.39h-1.51v-3.91c0-1.04-0.48-1.56-1.45-1.56c-0.49,0-0.89,0.2-1.21,0.6
				c-0.29,0.37-0.43,0.84-0.43,1.4v3.48h-1.51v-6.87h1.51v1.11c0.2-0.32,0.48-0.58,0.85-0.79c0.37-0.21,0.78-0.32,1.24-0.32
				c0.84,0,1.47,0.25,1.89,0.75c0.42,0.5,0.62,1.17,0.62,2V25.39z"/>
			<path class="st0" d="M171.63,17.71c-0.29,0-0.53-0.1-0.73-0.3c-0.19-0.2-0.29-0.44-0.29-0.72c0-0.28,0.1-0.52,0.29-0.72
				c0.19-0.2,0.44-0.3,0.73-0.3c0.28,0,0.52,0.1,0.71,0.3s0.29,0.44,0.29,0.72c0,0.28-0.1,0.52-0.29,0.72S171.91,17.71,171.63,17.71
				z M170.87,25.39v-6.65h1.51v6.65H170.87z"/>
			<path class="st0" d="M174.5,24.13l3.59-4.07h-3.61v-1.32h5.47V20l-3.59,4.07h3.59v1.32h-5.45V24.13z"/>
			<path class="st0" d="M187.85,25.39h-1.48v-1.09c-0.25,0.3-0.54,0.55-0.86,0.77c-0.32,0.21-0.72,0.32-1.21,0.32
				c-0.72,0-1.32-0.22-1.8-0.65c-0.48-0.43-0.73-0.98-0.73-1.63c0-0.7,0.26-1.25,0.79-1.65c0.52-0.4,1.19-0.6,2.01-0.6
				c0.68,0,1.28,0.12,1.79,0.37v-0.26c0-0.4-0.16-0.73-0.48-0.99c-0.32-0.26-0.69-0.39-1.11-0.39c-0.68,0-1.22,0.28-1.62,0.83
				l-1.2-0.79c0.64-0.88,1.57-1.32,2.78-1.32c0.99,0,1.75,0.24,2.29,0.73c0.54,0.49,0.81,1.19,0.81,2.09V25.39z M184.55,24.14
				c0.49,0,0.91-0.17,1.28-0.52c0.36-0.35,0.54-0.75,0.54-1.22c-0.44-0.26-0.95-0.39-1.51-0.39c-0.47,0-0.85,0.11-1.13,0.33
				c-0.28,0.22-0.42,0.48-0.42,0.79c0,0.29,0.13,0.54,0.39,0.75C183.93,24.05,184.21,24.14,184.55,24.14z"/>
			<path class="st0" d="M190.85,19.8h-1.17v-1.33h1.17v-2.8h1.51v2.8h1.17v1.33h-1.17v3.12c0,0.16,0.02,0.31,0.05,0.45
				c0.04,0.14,0.09,0.25,0.16,0.34c0.15,0.17,0.35,0.26,0.58,0.26c0.14,0,0.26-0.01,0.34-0.03c0.08-0.02,0.17-0.06,0.26-0.1
				l0.46,1.33c-0.19,0.07-0.39,0.13-0.6,0.17c-0.21,0.04-0.44,0.06-0.71,0.06c-0.32,0-0.6-0.05-0.84-0.15
				c-0.24-0.1-0.46-0.24-0.64-0.41c-0.39-0.39-0.58-0.92-0.58-1.59V19.8z"/>
			<path class="st0" d="M197.07,17.71c-0.29,0-0.53-0.1-0.73-0.3c-0.19-0.2-0.29-0.44-0.29-0.72c0-0.28,0.1-0.52,0.29-0.72
				c0.19-0.2,0.44-0.3,0.73-0.3c0.28,0,0.52,0.1,0.71,0.3c0.19,0.2,0.29,0.44,0.29,0.72c0,0.28-0.1,0.52-0.29,0.72
				C197.59,17.61,197.35,17.71,197.07,17.71z M196.31,25.39v-6.65h1.51v6.65H196.31z"/>
			<path class="st0" d="M203.39,18.3c0.51,0,0.97,0.09,1.4,0.26c0.43,0.18,0.79,0.42,1.1,0.74c0.31,0.32,0.55,0.69,0.72,1.13
				c0.17,0.43,0.26,0.91,0.26,1.41c0,0.51-0.09,0.98-0.26,1.41c-0.17,0.43-0.41,0.81-0.72,1.13c-0.31,0.32-0.67,0.56-1.1,0.74
				c-0.43,0.18-0.89,0.26-1.4,0.26s-0.97-0.09-1.4-0.26c-0.43-0.18-0.79-0.42-1.1-0.74c-0.31-0.32-0.55-0.69-0.72-1.13
				c-0.17-0.43-0.26-0.91-0.26-1.41c0-0.51,0.09-0.98,0.26-1.41c0.17-0.43,0.41-0.81,0.72-1.13c0.31-0.32,0.67-0.56,1.1-0.74
				C202.41,18.39,202.88,18.3,203.39,18.3z M203.39,24c0.25,0,0.5-0.05,0.73-0.15c0.24-0.1,0.45-0.24,0.63-0.42
				c0.19-0.18,0.33-0.41,0.44-0.67c0.11-0.27,0.16-0.57,0.16-0.9c0-0.34-0.05-0.64-0.16-0.9c-0.11-0.27-0.26-0.49-0.44-0.67
				c-0.19-0.18-0.4-0.32-0.63-0.42c-0.24-0.1-0.48-0.15-0.73-0.15s-0.5,0.05-0.73,0.15s-0.45,0.24-0.63,0.42
				c-0.19,0.18-0.33,0.41-0.44,0.67c-0.11,0.27-0.16,0.57-0.16,0.9c0,0.33,0.05,0.64,0.16,0.9c0.11,0.27,0.26,0.49,0.44,0.67
				c0.19,0.18,0.4,0.32,0.63,0.42C202.89,23.95,203.13,24,203.39,24z"/>
			<path class="st0" d="M214.81,25.39h-1.51v-3.91c0-1.04-0.48-1.56-1.45-1.56c-0.49,0-0.89,0.2-1.21,0.6
				c-0.29,0.37-0.43,0.84-0.43,1.4v3.48h-1.51v-6.87h1.51v1.11c0.2-0.32,0.48-0.58,0.85-0.79c0.37-0.21,0.78-0.32,1.24-0.32
				c0.84,0,1.47,0.25,1.89,0.75s0.63,1.17,0.63,2V25.39z"/>
		</g>
	</g>
	<g>
		<path class="st1" d="M30.81,20.92c0,0.98-0.1,1.94-0.29,2.86c-0.11,0.57-0.27,1.13-0.45,1.67c-0.17,0.51-0.37,1.01-0.6,1.49
			c-0.21,0.09-0.45,0.18-0.71,0.24c-0.56,0.15-1.11,0.22-1.66,0.22c-0.02,0-0.03,0-0.05,0c-0.02,0-0.03,0-0.05,0
			c-0.87,0-1.37-0.35-1.48-1.04c-0.01-0.05-0.02-0.11-0.03-0.17c-0.29,0.17-0.66,0.35-1.11,0.52c-1.17,0.46-2.37,0.69-3.6,0.69
			c-0.03,0-0.05,0-0.07,0c-0.02,0-0.04,0-0.07,0c-0.79,0-1.48-0.13-2.08-0.37c-0.15-0.06-0.29-0.13-0.41-0.2
			c-0.67,0.27-1.49,0.51-2.45,0.73c-0.54,0.12-1.06,0.23-1.56,0.32c-0.11,0.31-0.24,0.64-0.38,0.99c-0.46,1.17-0.85,2.1-1.19,2.79
			c-0.18,0.35-0.32,0.53-0.44,0.53c-0.06,0-0.1-0.06-0.1-0.18c0-0.13,0.04-0.29,0.11-0.48c0.27-0.65,0.59-1.58,0.96-2.8
			c0.08-0.25,0.15-0.48,0.22-0.71c-1,0.15-1.92,0.22-2.77,0.22c-2.04,0-3.61-0.08-4.69-0.25c-0.85-0.13-1.55-0.3-2.11-0.52
			c-0.47-0.91-0.85-1.88-1.11-2.89c-0.31-1.17-0.47-2.4-0.47-3.66c0-7.9,6.41-14.31,14.31-14.31C24.4,6.62,30.81,13.02,30.81,20.92z
			"/>
		<g>
			<path class="st0" d="M17.91,21.22c0.63,0,1.16-0.1,1.61-0.29c0.2-0.08,0.29-0.22,0.29-0.42c0-0.33-0.15-0.5-0.46-0.5
				c-0.07,0-0.14,0.02-0.21,0.05c-0.58,0.24-1.03,0.39-1.36,0.44c-0.48,0.07-0.72,0.2-0.72,0.37C17.06,21.1,17.34,21.22,17.91,21.22
				z"/>
			<path class="st0" d="M28.76,21.68c0.16,0,0.29-0.08,0.39-0.23l0.27-0.44c0.05-0.09,0.08-0.18,0.08-0.26
				c0-0.13-0.05-0.25-0.15-0.34c-0.1-0.09-0.22-0.14-0.35-0.14c-0.16,0-0.29,0.08-0.39,0.23l-0.27,0.44
				c-0.05,0.09-0.08,0.18-0.08,0.26c0,0.13,0.05,0.25,0.15,0.34C28.51,21.63,28.63,21.68,28.76,21.68z"/>
			<path class="st0" d="M30.64,24.04c-0.04-0.09-0.08-0.18-0.12-0.26c-0.23-0.44-0.55-0.67-0.94-0.67c-0.35,0-0.65,0.14-0.91,0.44
				c-0.23,0.27-0.35,0.56-0.35,0.87c0,0.48,0.28,0.71,0.84,0.71c0.15,0,0.3-0.01,0.47-0.05c0.03-0.01,0.06-0.01,0.08-0.01
				c0.09,0,0.14,0.04,0.15,0.14v0.05c0,0.04-0.01,0.08-0.02,0.12c-0.01,0.04-0.03,0.09-0.05,0.13c-0.14,0.29-0.5,0.52-1.09,0.71
				c-0.52,0.16-1.06,0.24-1.6,0.24c-0.02,0-0.03,0-0.05,0c-0.02,0-0.03,0-0.05,0c-0.33,0-0.51-0.08-0.53-0.23
				c-0.28-2.52-0.47-4.57-0.6-6.13c-0.03-0.29-0.18-0.44-0.47-0.44c-0.32,0-0.49,0.15-0.49,0.44v0.07c0.19,2.21,0.34,3.86,0.45,4.96
				c-0.19,0.19-0.64,0.42-1.34,0.7c-1.05,0.41-2.13,0.62-3.25,0.62c-0.03,0-0.05,0-0.07,0c-0.02,0-0.04,0-0.07,0
				c-0.53,0-0.96-0.07-1.3-0.2c0.38-0.24,0.67-0.49,0.87-0.75c0.28-0.38,0.42-0.83,0.42-1.37c0-0.46-0.15-0.77-0.46-0.93
				c-0.13-0.07-0.28-0.11-0.44-0.11c-0.48,0-0.98,0.26-1.48,0.78c-0.51,0.52-0.78,1.06-0.83,1.62c-0.02,0.22,0.01,0.42,0.08,0.6
				c-0.77,0.28-1.69,0.52-2.76,0.73c-0.08,0.02-0.16,0.03-0.24,0.04c0.15-0.46,0.27-0.87,0.36-1.21c0.09-0.36,0.14-0.68,0.14-0.97
				c0-0.78-0.35-1.33-1.05-1.65c-0.61-0.28-1.61-0.42-2.98-0.42c-2.09,0-3.93,0.21-5.53,0.62c-1.34,0.34-2.27,0.8-2.78,1.35
				c-0.32,0.34-0.47,0.73-0.47,1.15c0,0.75,0.53,1.32,1.58,1.73c0.56,0.22,1.26,0.39,2.11,0.52c1.09,0.16,2.65,0.25,4.69,0.25
				c0.85,0,1.77-0.08,2.77-0.22c-0.07,0.23-0.14,0.47-0.22,0.71c-0.38,1.22-0.7,2.15-0.96,2.8c-0.07,0.19-0.11,0.34-0.11,0.48
				c0,0.12,0.03,0.18,0.1,0.18c0.12,0,0.26-0.18,0.44-0.53c0.34-0.68,0.74-1.61,1.19-2.79c0.14-0.35,0.26-0.68,0.38-0.99
				c0.5-0.09,1.02-0.19,1.56-0.32c0.96-0.22,1.78-0.47,2.45-0.73c0.12,0.07,0.25,0.14,0.41,0.2c0.6,0.25,1.29,0.37,2.08,0.37
				c0.03,0,0.05,0,0.07,0c0.02,0,0.04,0,0.07,0c1.24,0,2.44-0.23,3.6-0.69c0.45-0.18,0.82-0.35,1.11-0.52
				c0.01,0.06,0.02,0.12,0.03,0.17c0.11,0.7,0.61,1.04,1.48,1.04c0.02,0,0.03,0,0.05,0c0.02,0,0.03,0,0.05,0
				c0.55,0,1.1-0.07,1.66-0.22c0.26-0.07,0.5-0.15,0.71-0.24c0.35-0.15,0.63-0.34,0.85-0.56c0.32-0.31,0.48-0.79,0.48-1.43
				C30.81,24.62,30.75,24.31,30.64,24.04z M13.97,25.55c-0.08,0.41-0.19,0.9-0.34,1.48c-1.11,0.17-2.13,0.25-3.05,0.25
				c-1.46,0-2.79-0.06-3.99-0.2c-2.3-0.25-3.44-0.7-3.44-1.34c0-0.64,0.85-1.17,2.55-1.58c1.53-0.37,3.26-0.55,5.2-0.55
				c1.09,0,1.84,0.07,2.24,0.2c0.58,0.2,0.87,0.61,0.87,1.23C14.02,25.18,14,25.36,13.97,25.55z M18.86,25.5
				c-0.09,0.05-0.19,0.1-0.29,0.15c-0.08-0.13-0.12-0.27-0.1-0.41c0.02-0.2,0.11-0.41,0.28-0.65c0.19-0.27,0.38-0.4,0.57-0.4
				c0.03,0,0.06,0,0.09,0.01c0.12,0.03,0.18,0.16,0.18,0.39c0,0.14-0.04,0.27-0.13,0.38C19.32,25.18,19.12,25.35,18.86,25.5z"/>
		</g>
		<g>
			<path class="st0" d="M16.62,32.61h-0.31l0-0.04c-0.08-0.2-0.22-0.36-0.44-0.5c-0.2-0.13-0.43-0.19-0.67-0.19l-0.09-0.22
				c0.2-0.15,0.32-0.23,0.36-0.26l0.31-0.23l-0.34-0.58h-0.38l0.04-0.31h0.38c0.07,0,0.11,0.05,0.13,0.15
				c0.04-0.1,0.1-0.15,0.17-0.15h2.14l-0.04,0.31h-2.08l0.38,0.64l-0.55,0.4h0.01c0.3,0.09,0.54,0.24,0.71,0.44l0.14-1.32
				c0.08-0.01,0.18-0.02,0.3-0.02c0.18,0,0.35,0.06,0.51,0.17c0.12,0.07,0.21,0.19,0.28,0.35c0.04,0.11,0.05,0.23,0.04,0.37
				c-0.01,0.12-0.05,0.23-0.12,0.33c-0.08,0.11-0.18,0.18-0.32,0.21l-0.04,0c-0.09,0-0.17-0.03-0.22-0.1
				c-0.05-0.06-0.08-0.14-0.07-0.22c0.01-0.09,0.05-0.17,0.12-0.23c0.07-0.06,0.15-0.09,0.24-0.09c0.04,0,0.08,0.01,0.11,0.02
				c-0.01-0.18-0.08-0.32-0.21-0.39c-0.1-0.07-0.21-0.11-0.34-0.11L16.62,32.61z"/>
			<path class="st0" d="M18.87,32.61h-0.31l0.21-2.02h-0.16l0.04-0.31h0.16c0.07,0,0.11,0.05,0.13,0.16
				c0.05-0.11,0.11-0.16,0.17-0.16h0.16l-0.04,0.31h-0.16L18.87,32.61z"/>
			<path class="st0" d="M21.99,32.61h-0.31l0.13-1.21c-0.02-0.02-0.06-0.03-0.1-0.03c-0.03,0-0.07,0.01-0.12,0.03
				c-0.04,0.02-0.07,0.03-0.07,0.04c0,0.02,0,0.03,0.01,0.04c0.01,0.01,0.01,0.02,0.01,0.03c0.04,0.1,0.05,0.21,0.04,0.33h-0.3
				c0.01-0.07-0.01-0.14-0.04-0.23c-0.03-0.09-0.09-0.16-0.16-0.23c-0.07-0.06-0.17-0.1-0.29-0.1c-0.13,0.01-0.24,0.05-0.34,0.12
				c-0.1,0.07-0.15,0.18-0.18,0.32c-0.01,0.09,0.01,0.18,0.05,0.26c0.04,0.08,0.1,0.12,0.17,0.14c-0.03-0.05-0.04-0.11-0.03-0.17
				c0.01-0.09,0.05-0.17,0.12-0.23c0.07-0.06,0.15-0.09,0.24-0.09c0.07,0,0.14,0.03,0.2,0.08c0.07,0.07,0.1,0.16,0.09,0.25
				c0,0.01,0,0.02,0,0.03c0,0.01,0,0.02-0.01,0.02c0,0.01,0,0.01-0.01,0.02c0,0.01-0.01,0.02-0.01,0.03
				c-0.05,0.12-0.14,0.21-0.25,0.28c-0.11,0.06-0.22,0.1-0.33,0.1c-0.12,0-0.22-0.04-0.3-0.1s-0.15-0.16-0.19-0.27
				c-0.04-0.11-0.05-0.22-0.04-0.34c0.04-0.23,0.15-0.41,0.32-0.54c0.17-0.13,0.35-0.19,0.52-0.19c0.2,0,0.37,0.07,0.52,0.22
				c0.13-0.09,0.25-0.13,0.38-0.13c0.01,0,0.02,0,0.04,0c0.01,0,0.04,0,0.07,0.01l0.05-0.5h-1.95l0.04-0.31h1.95
				c0.07,0,0.12,0.05,0.13,0.15c0.05-0.1,0.11-0.15,0.17-0.15h0.16l-0.04,0.31H22.2L21.99,32.61z"/>
			<path class="st0" d="M23.33,32.61h-0.31l0.21-2.02h-0.16l0.04-0.31h0.16c0.07,0,0.11,0.05,0.13,0.16
				c0.05-0.11,0.11-0.16,0.17-0.16h0.16l-0.04,0.31h-0.16L23.33,32.61z"/>
			<path class="st0" d="M26.14,32.61h-0.31l0.01-0.1c-0.05-0.15-0.11-0.27-0.21-0.38c-0.19-0.21-0.43-0.34-0.72-0.38
				c-0.12-0.02-0.24-0.02-0.37-0.02l-0.07-0.22c0.45-0.42,0.96-0.73,1.52-0.91h-1.59l0.04-0.31h1.62c0.07,0,0.12,0.05,0.13,0.15
				c0.05-0.1,0.11-0.15,0.17-0.15h1.05l-0.04,0.31h-0.97c0.24,0.04,0.42,0.13,0.56,0.28c0.13,0.15,0.19,0.35,0.16,0.59
				c-0.01,0.12-0.05,0.23-0.12,0.33s-0.16,0.16-0.27,0.2C26.73,32,26.7,32,26.66,32c-0.08,0-0.15-0.03-0.21-0.09
				c-0.06-0.06-0.08-0.14-0.07-0.23c0.01-0.09,0.05-0.16,0.12-0.22c0.07-0.06,0.15-0.09,0.24-0.09c0.04,0,0.08,0.01,0.11,0.02
				c0-0.14-0.05-0.26-0.14-0.34c-0.1-0.08-0.22-0.14-0.38-0.16L26.14,32.61z M25.9,31.95l0.11-1.05c-0.37,0.13-0.71,0.31-1.02,0.54
				C25.36,31.49,25.66,31.66,25.9,31.95z"/>
			<path class="st0" d="M26.18,32.96l-0.05,0.43l-0.4-0.45l0.24-0.21L26.18,32.96z"/>
		</g>
	</g>
</g>
</svg>
